<svg width="73" height="73" viewBox="0 0 73 73" fill="none" xmlns="http://www.w3.org/2000/svg">
<path d="M71.7949 45.4954C71.0643 41.2117 68.6696 38.3545 64.3723 37.2287C61.7831 36.5517 59.1728 36.5306 56.5448 36.899C51.7792 37.5697 48.1891 40.7121 47.0519 45.2815C46.2614 48.4473 46.3327 51.6416 47.0017 54.8205C47.8538 58.8595 50.1749 61.5217 54.2601 62.5357C57.3637 63.3051 60.4833 63.1796 63.7706 62.8095C63.6799 61.6877 63.5989 60.6794 63.5163 59.6437C61.1854 59.6437 58.9566 59.8324 56.7746 59.5992C53.5746 59.2541 51.4285 57.4303 50.5975 54.236C50.0078 51.9724 49.8727 49.6689 50.2565 47.3648C50.8502 43.785 52.678 41.1707 56.3218 40.1738C58.6891 39.5259 61.0776 39.5898 63.4455 40.2684C65.5796 40.8815 67.0488 42.2195 67.7274 44.3245C68.6126 47.0814 68.4871 49.8982 67.9744 52.6995C67.801 53.6383 67.0875 54.1299 66.3456 54.0124C65.4416 53.8675 65.2871 53.1701 65.2677 52.4315C65.1964 49.8018 65.1462 47.1704 65.092 44.5389C65.088 44.3753 65.0869 44.2122 65.0875 44.0451C65.0875 43.6458 64.7624 43.3008 64.3637 43.2814C63.9098 43.2597 63.3982 43.2158 63.3258 43.2141C61.6627 43.1662 59.998 43.043 58.3338 43.0459C57.0318 43.0476 55.6927 43.3727 54.8424 44.4294C54.2053 45.2216 53.8854 46.2259 53.7268 47.2166C53.4474 48.9634 53.4434 50.8118 53.667 52.5701C54.2316 57.006 58.0316 57.8215 61.101 56.4317C61.7101 56.1562 62.2924 55.8203 62.8747 55.518C66.8132 58.616 70.9258 57.0219 71.8468 52.0922C72.2597 49.8828 72.165 47.6757 71.7949 45.4954ZM60.9476 53.3719C60.3932 53.6491 59.7419 53.8276 59.1186 53.7615C58.023 53.6446 57.6529 52.5478 57.4595 51.6182C57.2987 50.8443 57.2571 50.0482 57.3141 49.2606C57.3666 48.5374 57.3837 47.5542 57.8633 46.9656C58.3464 46.3731 59.2857 46.0622 60.0225 46.0155C60.4046 45.991 60.8318 46.0366 61.1398 46.2864C61.7791 46.8042 61.5789 48.1456 61.5738 48.8636C61.5686 49.5754 61.5481 50.2877 61.5646 50.9994C61.5863 51.8857 61.9274 52.882 60.9476 53.3719Z" fill="url(#paint0_linear_108_511)"/>
<path d="M64.6114 10.9511C63.9111 9.92279 61.1668 10.0095 60.1334 9.94731C57.9747 9.82355 55.8275 9.97183 53.6689 9.95986C50.2356 9.94731 46.8029 9.94731 43.3696 9.94731C40.7747 9.94731 38.1797 9.93476 35.5848 9.93476C32.9899 9.93476 30.395 9.94731 27.8001 9.94731C24.3668 9.94731 20.9341 9.94731 17.5008 9.95986C15.3421 9.9724 13.1949 9.82355 11.0363 9.94731C10.0029 10.0095 7.25854 9.92279 6.55819 10.9511C6.39737 11.1866 6.48919 11.5208 7.05208 12.0044C15.3536 19.3147 23.655 26.6381 31.9679 33.9238C31.9793 33.9341 31.9913 33.9443 32.0027 33.954C34.0684 35.746 37.1007 35.746 39.167 33.954C39.1784 33.9438 39.1903 33.9341 39.2017 33.9238C47.5146 26.6381 55.8161 19.3153 64.1176 12.0044C64.6805 11.5214 64.7723 11.1866 64.6114 10.9511Z" fill="url(#paint1_linear_108_511)"/>
<path d="M70.2991 19.7407V36.0938C68.8892 35.0222 67.2091 34.2443 65.2803 33.7367C62.4384 32.9924 59.3816 32.8567 56.0435 33.3306C49.8294 34.1992 45.0359 38.4395 43.5474 44.4055C42.6674 47.913 42.6452 51.6685 43.4687 55.5711C43.5474 55.988 43.6603 56.3947 43.7733 56.7887H35.5853C27.2621 56.7887 18.9276 56.7887 10.593 56.7773C4.43537 56.7773 0.882324 52.9317 0.882324 46.2665V19.7407C0.882324 17.5301 1.41214 15.534 2.67539 13.7404C3.00218 14.3159 3.4647 14.8685 4.07379 15.3869L9.23911 19.9431C15.8262 25.7404 22.4014 31.5376 29.0444 37.3565C30.8716 38.9357 33.1831 39.8037 35.5858 39.8037C37.9766 39.8037 40.3 38.9357 42.1724 37.3114C48.7698 31.537 55.3563 25.7404 61.9428 19.9317L67.0631 15.4206C67.6836 14.8793 68.157 14.3153 68.4843 13.729C69.7578 15.534 70.2991 17.5301 70.2991 19.7407Z" fill="url(#paint2_linear_108_511)"/>
<defs>
<linearGradient id="paint0_linear_108_511" x1="46.8804" y1="36.7017" x2="76.6981" y2="52.3416" gradientUnits="userSpaceOnUse">
<stop stop-color="#FF8181"/>
<stop offset="0.47" stop-color="#F5BA79"/>
<stop offset="1" stop-color="#6A94FF"/>
</linearGradient>
<linearGradient id="paint1_linear_108_511" x1="7.39724" y1="9.93718" x2="41.4279" y2="52.1144" gradientUnits="userSpaceOnUse">
<stop stop-color="#FF8181"/>
<stop offset="0.47" stop-color="#F5BA79"/>
<stop offset="1" stop-color="#6A94FF"/>
</linearGradient>
<linearGradient id="paint2_linear_108_511" x1="1.96772" y1="13.7959" x2="60.4431" y2="64.7907" gradientUnits="userSpaceOnUse">
<stop stop-color="#FF8181"/>
<stop offset="0.47" stop-color="#F5BA79"/>
<stop offset="1" stop-color="#6A94FF"/>
</linearGradient>
</defs>
</svg>
