<svg width="137" height="137" viewBox="0 0 137 137" fill="none" xmlns="http://www.w3.org/2000/svg">
<rect x="0.614796" y="0.614796" width="135.255" height="135.255" rx="17.8291" stroke="url(#paint0_linear_108_2705)" stroke-width="1.22959"/>
<rect x="7.99224" y="7.99224" width="120.5" height="120.5" rx="14.1403" stroke="url(#paint1_linear_108_2705)" stroke-width="1.22959"/>
<rect x="14.1402" y="14.1402" width="108.204" height="108.204" rx="11.6811" stroke="url(#paint2_linear_108_2705)" stroke-width="1.22959"/>
<rect x="19.6733" y="19.6736" width="97.1378" height="97.1378" rx="9.83673" fill="url(#paint3_linear_108_2705)"/>
<path d="M39.8848 41.9982H65.2452C65.8057 41.9982 66.3432 41.7755 66.7395 41.3792C67.1359 40.9829 67.3585 40.4453 67.3585 39.8848C67.3585 39.3243 67.1359 38.7868 66.7395 38.3905C66.3432 37.9941 65.8057 37.7715 65.2452 37.7715H39.8848C39.3243 37.7715 38.7868 37.9941 38.3905 38.3905C37.9941 38.7868 37.7715 39.3243 37.7715 39.8848C37.7715 40.4453 37.9941 40.9829 38.3905 41.3792C38.7868 41.7755 39.3243 41.9982 39.8848 41.9982Z" fill="url(#paint4_linear_108_2705)"/>
<path d="M39.8848 50.4516H54.6784C55.2389 50.4516 55.7764 50.2289 56.1727 49.8326C56.5691 49.4363 56.7917 48.8987 56.7917 48.3382C56.7917 47.7777 56.5691 47.2402 56.1727 46.8438C55.7764 46.4475 55.2389 46.2249 54.6784 46.2249H39.8848C39.3243 46.2249 38.7868 46.4475 38.3905 46.8438C37.9941 47.2402 37.7715 47.7777 37.7715 48.3382C37.7715 48.8987 37.9941 49.4363 38.3905 49.8326C38.7868 50.2289 39.3243 50.4516 39.8848 50.4516Z" fill="url(#paint5_linear_108_2705)"/>
<path d="M99.0589 96.9457H94.8322V88.4922C94.8322 87.9317 94.6096 87.3942 94.2132 86.9979C93.8169 86.6015 93.2794 86.3789 92.7189 86.3789H84.2654C83.7049 86.3789 83.1674 86.6015 82.771 86.9979C82.3747 87.3942 82.1521 87.9317 82.1521 88.4922V96.9457H75.812V80.0388C75.812 79.4783 75.5893 78.9408 75.193 78.5444C74.7967 78.1481 74.2591 77.9254 73.6986 77.9254H65.2452C64.6847 77.9254 64.1471 78.1481 63.7508 78.5444C63.3545 78.9408 63.1318 79.4783 63.1318 80.0388V96.9457H56.7917V63.1319C56.7917 62.5714 56.5691 62.0339 56.1727 61.6375C55.7764 61.2412 55.2389 61.0186 54.6784 61.0186H46.2249C45.6644 61.0186 45.1269 61.2412 44.7306 61.6375C44.3342 62.0339 44.1116 62.5714 44.1116 63.1319V96.9457H39.8848C39.3243 96.9457 38.7868 97.1683 38.3905 97.5647C37.9941 97.961 37.7715 98.4986 37.7715 99.0591C37.7715 99.6195 37.9941 100.157 38.3905 100.553C38.7868 100.95 39.3243 101.172 39.8848 101.172H99.0589C99.6194 101.172 100.157 100.95 100.553 100.553C100.95 100.157 101.172 99.6195 101.172 99.0591C101.172 98.4986 100.95 97.961 100.553 97.5647C100.157 97.1683 99.6194 96.9457 99.0589 96.9457ZM86.3788 90.6056H90.6055V96.9457H86.3788V90.6056ZM67.3585 82.1522H71.5853V96.9457H67.3585V82.1522ZM48.3383 65.2453H52.565V96.9457H48.3383V65.2453Z" fill="url(#paint6_linear_108_2705)"/>
<path d="M91.7891 56.5592H85.1954C84.4516 56.5537 83.7399 56.2558 83.214 55.7299C82.6881 55.2039 82.3902 54.4922 82.3846 53.7485V47.1548C82.3847 46.6652 82.1916 46.1953 81.8474 45.8471C81.5032 45.499 81.0356 45.3006 80.546 45.295C78.5817 45.2809 76.6397 45.7107 74.8648 46.5524C73.09 47.394 71.5282 48.6258 70.2962 50.1557C68.9353 51.8402 68.008 53.8324 67.5953 55.9583C67.1827 58.0841 67.2973 60.2786 67.9292 62.3498C68.5531 64.4314 69.6915 66.3223 71.2391 67.8478C72.7868 69.3733 74.6938 70.4842 76.7842 71.078C77.9887 71.4123 79.2326 71.5829 80.4826 71.5852C82.2142 71.588 83.9293 71.2487 85.5293 70.5867C87.1293 69.9247 88.5828 68.9531 89.8062 67.7277C91.0297 66.5023 91.999 65.0472 92.6584 63.4461C93.3178 61.845 93.6544 60.1294 93.6488 58.3979C93.6433 57.9083 93.4449 57.4407 93.0967 57.0964C92.7485 56.7522 92.2787 56.5592 91.7891 56.5592Z" fill="url(#paint7_linear_108_2705)"/>
<path d="M88.0274 37.7715C87.5285 37.7715 87.0501 37.9696 86.6974 38.3224C86.3447 38.6751 86.1465 39.1535 86.1465 39.6524V50.0078C86.1465 51.9733 86.9707 52.7975 88.0062 52.7975H99.2916C99.7904 52.7975 100.269 52.5993 100.622 52.2466C100.974 51.8938 101.172 51.4154 101.172 50.9166C101.167 47.432 99.7802 44.0917 97.3162 41.6278C94.8522 39.1638 91.512 37.7771 88.0274 37.7715Z" fill="url(#paint8_linear_108_2705)"/>
<defs>
<linearGradient id="paint0_linear_108_2705" x1="0" y1="0" x2="136.485" y2="136.485" gradientUnits="userSpaceOnUse">
<stop stop-color="#28292C"/>
<stop offset="1" stop-color="#939393"/>
</linearGradient>
<linearGradient id="paint1_linear_108_2705" x1="7.37744" y1="7.37744" x2="68.2422" y2="129.107" gradientUnits="userSpaceOnUse">
<stop stop-color="#28292C"/>
<stop offset="1" stop-color="#9A9A9A"/>
</linearGradient>
<linearGradient id="paint2_linear_108_2705" x1="13.5254" y1="13.5254" x2="122.959" y2="122.959" gradientUnits="userSpaceOnUse">
<stop stop-color="#28292C"/>
<stop offset="1" stop-color="white"/>
</linearGradient>
<linearGradient id="paint3_linear_108_2705" x1="19.6733" y1="19.6736" x2="116.811" y2="116.811" gradientUnits="userSpaceOnUse">
<stop stop-color="#FF8181"/>
<stop offset="0.52" stop-color="#F5BA79"/>
<stop offset="1" stop-color="#6A94FF"/>
</linearGradient>
<linearGradient id="paint4_linear_108_2705" x1="52.565" y1="37.7715" x2="52.565" y2="41.9982" gradientUnits="userSpaceOnUse">
<stop/>
<stop offset="1" stop-color="#232323"/>
</linearGradient>
<linearGradient id="paint5_linear_108_2705" x1="47.2816" y1="46.2249" x2="47.2816" y2="50.4516" gradientUnits="userSpaceOnUse">
<stop/>
<stop offset="1" stop-color="#232323"/>
</linearGradient>
<linearGradient id="paint6_linear_108_2705" x1="69.4719" y1="61.0186" x2="69.4719" y2="101.172" gradientUnits="userSpaceOnUse">
<stop/>
<stop offset="1" stop-color="#232323"/>
</linearGradient>
<linearGradient id="paint7_linear_108_2705" x1="80.5007" y1="45.2947" x2="80.5007" y2="71.5852" gradientUnits="userSpaceOnUse">
<stop/>
<stop offset="1" stop-color="#232323"/>
</linearGradient>
<linearGradient id="paint8_linear_108_2705" x1="93.6595" y1="37.7715" x2="93.6595" y2="52.7975" gradientUnits="userSpaceOnUse">
<stop/>
<stop offset="1" stop-color="#232323"/>
</linearGradient>
</defs>
</svg>
