<svg width="819" height="242" viewBox="0 0 819 242" fill="none" xmlns="http://www.w3.org/2000/svg">
<circle cx="2.39543" cy="204.42" r="1.49211" fill="#353535"/>
<circle cx="14.332" cy="216.357" r="1.49211" fill="#353535"/>
<circle cx="26.2695" cy="216.357" r="1.49211" fill="#F5BA79"/>
<circle cx="26.2695" cy="228.293" r="1.49211" fill="#353535"/>
<circle cx="14.332" cy="228.293" r="1.49211" fill="#F5BA79"/>
<circle cx="50.1435" cy="216.357" r="1.49211" fill="#FF8181"/>
<circle cx="50.1435" cy="240.23" r="1.49211" fill="#353535"/>
<circle cx="62.08" cy="240.23" r="1.49211" fill="#353535"/>
<circle cx="97.8905" cy="240.23" r="1.49211" fill="#353535"/>
<circle cx="121.765" cy="240.23" r="1.49211" fill="#F5BA79"/>
<circle cx="133.701" cy="240.23" r="1.49211" fill="#353535"/>
<circle cx="145.639" cy="240.23" r="1.49211" fill="#353535"/>
<circle cx="62.08" cy="204.42" r="1.49211" fill="#F5BA79"/>
<circle cx="74.0165" cy="204.42" r="1.49211" fill="#FF8181"/>
<circle cx="74.0165" cy="192.483" r="1.49211" fill="#353535"/>
<circle cx="97.8905" cy="180.546" r="1.49211" fill="#F5BA79"/>
<circle cx="109.828" cy="180.546" r="1.49211" fill="#353535"/>
<circle cx="145.639" cy="204.42" r="1.49211" fill="#F5BA79"/>
<circle cx="145.639" cy="216.357" r="1.49211" fill="#353535"/>
<circle cx="157.575" cy="216.357" r="1.49211" fill="#353535"/>
<circle cx="157.575" cy="192.483" r="1.49211" fill="#353535"/>
<circle cx="169.513" cy="192.483" r="1.49211" fill="#FF8181"/>
<circle cx="181.449" cy="192.483" r="1.49211" fill="#353535"/>
<circle cx="181.449" cy="180.546" r="1.49211" fill="#353535"/>
<circle cx="193.386" cy="204.42" r="1.49211" fill="#353535"/>
<circle cx="193.386" cy="216.357" r="1.49211" fill="#353535"/>
<circle cx="205.323" cy="216.357" r="1.49211" fill="#353535"/>
<circle cx="217.26" cy="216.357" r="1.49211" fill="#353535"/>
<circle cx="205.323" cy="192.483" r="1.49211" fill="#353535"/>
<circle cx="217.26" cy="180.546" r="1.49211" fill="#353535"/>
<circle cx="217.26" cy="168.609" r="1.49211" fill="#6A94FF"/>
<circle cx="205.323" cy="156.672" r="1.49211" fill="#353535"/>
<circle cx="193.386" cy="144.735" r="1.49211" fill="#FF8181"/>
<circle cx="181.449" cy="132.798" r="1.49211" fill="#FF8181"/>
<circle cx="181.449" cy="108.924" r="1.49211" fill="#FF8181"/>
<circle cx="217.26" cy="120.861" r="1.49211" fill="#353535"/>
<circle cx="217.26" cy="132.798" r="1.49211" fill="#353535"/>
<circle cx="229.197" cy="132.798" r="1.49211" fill="#6A94FF"/>
<circle cx="217.26" cy="144.735" r="1.49211" fill="#353535"/>
<circle cx="265.008" cy="108.924" r="1.49211" fill="#353535"/>
<circle cx="265.008" cy="180.546" r="1.49211" fill="#353535"/>
<circle cx="276.944" cy="180.546" r="1.49211" fill="#353535"/>
<circle cx="276.944" cy="192.483" r="1.49211" fill="#353535"/>
<circle cx="276.944" cy="204.42" r="1.49211" fill="#353535"/>
<circle cx="288.882" cy="204.42" r="1.49211" fill="#353535"/>
<circle cx="288.882" cy="192.483" r="1.49211" fill="#353535"/>
<circle cx="288.882" cy="168.609" r="1.49211" fill="#353535"/>
<circle cx="288.882" cy="156.672" r="1.49211" fill="#353535"/>
<circle cx="288.882" cy="132.798" r="1.49211" fill="#353535"/>
<circle cx="288.882" cy="120.861" r="1.49211" fill="#353535"/>
<circle cx="288.882" cy="108.924" r="1.49211" fill="#6A94FF"/>
<circle cx="276.944" cy="96.9875" r="1.49211" fill="#6A94FF"/>
<circle cx="312.755" cy="96.9875" r="1.49211" fill="#353535"/>
<circle cx="324.692" cy="96.9875" r="1.49211" fill="#353535"/>
<circle cx="324.692" cy="85.0505" r="1.49211" fill="#353535"/>
<circle cx="265.008" cy="73.1137" r="1.49211" fill="#353535"/>
<circle cx="276.944" cy="73.1137" r="1.49211" fill="#6A94FF"/>
<circle cx="276.944" cy="61.1767" r="1.49211" fill="#353535"/>
<circle cx="276.944" cy="49.2399" r="1.49211" fill="#353535"/>
<circle cx="288.882" cy="61.1767" r="1.49211" fill="#353535"/>
<circle cx="300.818" cy="61.1767" r="1.49211" fill="#6A94FF"/>
<circle cx="336.629" cy="73.1137" r="1.49211" fill="#353535"/>
<circle cx="348.566" cy="73.1137" r="1.49211" fill="#353535"/>
<circle cx="360.503" cy="73.1137" r="1.49211" fill="#353535"/>
<circle cx="372.439" cy="73.1137" r="1.49211" fill="#353535"/>
<circle cx="336.629" cy="61.1767" r="1.49211" fill="#353535"/>
<circle cx="324.692" cy="49.2399" r="1.49211" fill="#353535"/>
<circle cx="324.692" cy="37.3029" r="1.49211" fill="#353535"/>
<circle cx="348.566" cy="37.3029" r="1.49211" fill="#353535"/>
<circle cx="360.503" cy="37.3029" r="1.49211" fill="#353535"/>
<circle cx="360.503" cy="25.3659" r="1.49211" fill="#353535"/>
<circle cx="348.566" cy="25.3659" r="1.49211" fill="#353535"/>
<circle cx="336.629" cy="25.3659" r="1.49211" fill="#353535"/>
<circle cx="336.629" cy="13.4289" r="1.49211" fill="#353535"/>
<circle cx="411.234" cy="1.49211" r="1.49211" fill="#353535"/>
<circle cx="411.234" cy="49.2399" r="1.49211" fill="#353535"/>
<circle cx="423.172" cy="61.1767" r="1.49211" fill="#353535"/>
<circle cx="435.108" cy="61.1767" r="1.49211" fill="#353535"/>
<circle cx="435.108" cy="49.2399" r="1.49211" fill="#353535"/>
<circle cx="435.108" cy="37.3029" r="1.49211" fill="#353535"/>
<circle cx="435.108" cy="25.3659" r="1.49211" fill="#353535"/>
<circle cx="447.046" cy="13.4289" r="1.49211" fill="#353535"/>
<circle cx="447.046" cy="1.49211" r="1.49211" fill="#353535"/>
<circle cx="458.982" cy="1.49211" r="1.49211" fill="#353535"/>
<circle cx="470.919" cy="1.49211" r="1.49211" fill="#F5BA79"/>
<circle cx="482.856" cy="13.4289" r="1.49211" fill="#F5BA79"/>
<circle cx="458.982" cy="13.4289" r="1.49211" fill="#353535"/>
<circle cx="470.919" cy="37.3029" r="1.49211" fill="#353535"/>
<circle cx="482.856" cy="49.2399" r="1.49211" fill="#F5BA79"/>
<circle cx="494.793" cy="61.1767" r="1.49211" fill="#353535"/>
<circle cx="470.919" cy="73.1137" r="1.49211" fill="#353535"/>
<circle cx="458.982" cy="73.1137" r="1.49211" fill="#F5BA79"/>
<circle cx="470.919" cy="85.0505" r="1.49211" fill="#353535"/>
<circle cx="506.73" cy="73.1137" r="1.49211" fill="#353535"/>
<circle cx="518.667" cy="85.0505" r="1.49211" fill="#353535"/>
<circle cx="542.541" cy="85.0505" r="1.49211" fill="#F5BA79"/>
<circle cx="542.541" cy="73.1137" r="1.49211" fill="#353535"/>
<circle cx="482.856" cy="96.9875" r="1.49211" fill="#353535"/>
<circle cx="494.793" cy="96.9875" r="1.49211" fill="#F5BA79"/>
<circle cx="506.73" cy="96.9875" r="1.49211" fill="#353535"/>
<circle cx="494.793" cy="108.924" r="1.49211" fill="#353535"/>
<circle cx="494.793" cy="120.861" r="1.49211" fill="#353535"/>
<circle cx="506.73" cy="120.861" r="1.49211" fill="#353535"/>
<circle cx="518.667" cy="120.861" r="1.49211" fill="#F5BA79"/>
<circle cx="530.603" cy="120.861" r="1.49211" fill="#353535"/>
<circle cx="542.541" cy="108.924" r="1.49211" fill="#353535"/>
<circle cx="554.477" cy="108.924" r="1.49211" fill="#353535"/>
<circle cx="554.477" cy="120.861" r="1.49211" fill="#F5BA79"/>
<circle cx="506.73" cy="132.798" r="1.49211" fill="#353535"/>
<circle cx="506.73" cy="144.735" r="1.49211" fill="#353535"/>
<circle cx="506.73" cy="180.546" r="1.49211" fill="#353535"/>
<circle cx="518.667" cy="168.609" r="1.49211" fill="#353535"/>
<circle cx="530.603" cy="168.609" r="1.49211" fill="#353535"/>
<circle cx="494.793" cy="180.546" r="1.49211" fill="#353535"/>
<circle cx="494.793" cy="192.483" r="1.49211" fill="#353535"/>
<circle cx="494.793" cy="204.42" r="1.49211" fill="#353535"/>
<circle cx="530.603" cy="204.42" r="1.49211" fill="#353535"/>
<circle cx="530.603" cy="192.483" r="1.49211" fill="#353535"/>
<circle cx="542.541" cy="192.483" r="1.49211" fill="#353535"/>
<circle cx="542.541" cy="180.546" r="1.49211" fill="#353535"/>
<circle cx="542.541" cy="204.42" r="1.49211" fill="#353535"/>
<circle cx="554.477" cy="180.546" r="1.49211" fill="#353535"/>
<circle cx="590.288" cy="132.798" r="1.49211" fill="#353535"/>
<circle cx="602.226" cy="132.798" r="1.49211" fill="#353535"/>
<circle cx="602.226" cy="120.861" r="1.49211" fill="#353535"/>
<circle cx="602.226" cy="144.735" r="1.49211" fill="#FF8181"/>
<circle cx="602.226" cy="168.609" r="1.49211" fill="#353535"/>
<circle cx="602.226" cy="180.546" r="1.49211" fill="#FF8181"/>
<circle cx="602.226" cy="216.357" r="1.49211" fill="#353535"/>
<circle cx="614.162" cy="216.357" r="1.49211" fill="#353535"/>
<circle cx="614.162" cy="192.483" r="1.49211" fill="#353535"/>
<circle cx="614.162" cy="156.672" r="1.49211" fill="#FF8181"/>
<circle cx="626.1" cy="144.735" r="1.49211" fill="#353535"/>
<circle cx="626.1" cy="204.42" r="1.49211" fill="#353535"/>
<circle cx="626.1" cy="216.357" r="1.49211" fill="#FF8181"/>
<circle cx="638.036" cy="192.483" r="1.49211" fill="#353535"/>
<circle cx="638.036" cy="180.546" r="1.49211" fill="#FF8181"/>
<circle cx="638.036" cy="132.798" r="1.49211" fill="#353535"/>
<circle cx="638.036" cy="108.924" r="1.49211" fill="#FF8181"/>
<circle cx="649.973" cy="192.483" r="1.49211" fill="#353535"/>
<circle cx="661.91" cy="192.483" r="1.49211" fill="#6A94FF"/>
<circle cx="661.91" cy="216.357" r="1.49211" fill="#353535"/>
<circle cx="673.847" cy="216.357" r="1.49211" fill="#6A94FF"/>
<circle cx="673.847" cy="204.42" r="1.49211" fill="#353535"/>
<circle cx="673.847" cy="240.23" r="1.49211" fill="#353535"/>
<circle cx="685.784" cy="240.23" r="1.49211" fill="#353535"/>
<circle cx="697.721" cy="240.23" r="1.49211" fill="#353535"/>
<circle cx="721.595" cy="240.23" r="1.49211" fill="#6A94FF"/>
<circle cx="757.405" cy="240.23" r="1.49211" fill="#6A94FF"/>
<circle cx="769.342" cy="240.23" r="1.49211" fill="#353535"/>
<circle cx="769.342" cy="216.357" r="1.49211" fill="#353535"/>
<circle cx="757.405" cy="204.42" r="1.49211" fill="#6A94FF"/>
<circle cx="745.469" cy="204.42" r="1.49211" fill="#353535"/>
<circle cx="745.469" cy="192.483" r="1.49211" fill="#353535"/>
<circle cx="721.595" cy="180.546" r="1.49211" fill="#353535"/>
<circle cx="709.657" cy="180.546" r="1.49211" fill="#6A94FF"/>
<circle cx="793.216" cy="216.357" r="1.49211" fill="#353535"/>
<circle cx="793.216" cy="228.293" r="1.49211" fill="#6A94FF"/>
<circle cx="805.153" cy="216.357" r="1.49211" fill="#353535"/>
<circle cx="817.09" cy="204.42" r="1.49211" fill="#353535"/>
<circle cx="312.755" cy="120.861" r="1.49211" fill="#353535"/>
<circle cx="312.755" cy="132.798" r="1.49211" fill="#353535"/>
<circle cx="312.755" cy="144.735" r="1.49211" fill="#353535"/>
<circle cx="324.692" cy="144.735" r="1.49211" fill="#353535"/>
<circle cx="300.818" cy="168.609" r="1.49211" fill="#353535"/>
<circle cx="312.755" cy="168.609" r="1.49211" fill="#353535"/>
<circle cx="312.755" cy="180.546" r="1.49211" fill="#353535"/>
<circle cx="324.692" cy="180.546" r="1.49211" fill="#353535"/>
<circle cx="324.692" cy="192.483" r="1.49211" fill="#353535"/>
<circle cx="324.692" cy="204.42" r="1.49211" fill="#353535"/>
<circle cx="324.692" cy="108.924" r="1.49211" fill="#353535"/>
</svg>
