<svg width="73" height="73" viewBox="0 0 73 73" fill="none" xmlns="http://www.w3.org/2000/svg">
<path d="M4.5625 6.84375H31.9375C32.5425 6.84375 33.1228 6.6034 33.5506 6.17559C33.9784 5.74777 34.2188 5.16753 34.2188 4.5625C34.2188 3.95747 33.9784 3.37723 33.5506 2.94941C33.1228 2.5216 32.5425 2.28125 31.9375 2.28125H4.5625C3.95747 2.28125 3.37723 2.5216 2.94941 2.94941C2.5216 3.37723 2.28125 3.95747 2.28125 4.5625C2.28125 5.16753 2.5216 5.74777 2.94941 6.17559C3.37723 6.6034 3.95747 6.84375 4.5625 6.84375Z" fill="url(#paint0_linear_108_427)"/>
<path d="M4.5625 15.9688H20.5312C21.1363 15.9688 21.7165 15.7284 22.1443 15.3006C22.5722 14.8728 22.8125 14.2925 22.8125 13.6875C22.8125 13.0825 22.5722 12.5022 22.1443 12.0744C21.7165 11.6466 21.1363 11.4062 20.5312 11.4062H4.5625C3.95747 11.4062 3.37723 11.6466 2.94941 12.0744C2.5216 12.5022 2.28125 13.0825 2.28125 13.6875C2.28125 14.2925 2.5216 14.8728 2.94941 15.3006C3.37723 15.7284 3.95747 15.9688 4.5625 15.9688Z" fill="url(#paint1_linear_108_427)"/>
<path d="M68.4375 66.1562H63.875V57.0312C63.875 56.4262 63.6347 55.846 63.2068 55.4182C62.779 54.9903 62.1988 54.75 61.5938 54.75H52.4688C51.8637 54.75 51.2835 54.9903 50.8557 55.4182C50.4278 55.846 50.1875 56.4262 50.1875 57.0312V66.1562H43.3438V47.9062C43.3438 47.3012 43.1034 46.721 42.6756 46.2932C42.2478 45.8653 41.6675 45.625 41.0625 45.625H31.9375C31.3325 45.625 30.7522 45.8653 30.3244 46.2932C29.8966 46.721 29.6562 47.3012 29.6562 47.9062V66.1562H22.8125V29.6562C22.8125 29.0512 22.5722 28.471 22.1443 28.0432C21.7165 27.6153 21.1363 27.375 20.5312 27.375H11.4062C10.8012 27.375 10.221 27.6153 9.79316 28.0432C9.36535 28.471 9.125 29.0512 9.125 29.6562V66.1562H4.5625C3.95747 66.1562 3.37723 66.3966 2.94941 66.8244C2.5216 67.2522 2.28125 67.8325 2.28125 68.4375C2.28125 69.0425 2.5216 69.6228 2.94941 70.0506C3.37723 70.4784 3.95747 70.7188 4.5625 70.7188H68.4375C69.0425 70.7188 69.6228 70.4784 70.0506 70.0506C70.4784 69.6228 70.7188 69.0425 70.7188 68.4375C70.7188 67.8325 70.4784 67.2522 70.0506 66.8244C69.6228 66.3966 69.0425 66.1562 68.4375 66.1562ZM54.75 59.3125H59.3125V66.1562H54.75V59.3125ZM34.2188 50.1875H38.7812V66.1562H34.2188V50.1875ZM13.6875 31.9375H18.25V66.1562H13.6875V31.9375Z" fill="url(#paint2_linear_108_427)"/>
<path d="M60.5897 22.5615H53.4722C52.6694 22.5556 51.9011 22.234 51.3334 21.6663C50.7657 21.0986 50.4442 20.3303 50.4382 19.5275V12.41C50.4382 11.8815 50.2298 11.3743 49.8583 10.9985C49.4867 10.6226 48.982 10.4085 48.4535 10.4025C46.3332 10.3872 44.2368 10.8511 42.321 11.7597C40.4051 12.6682 38.7193 13.9979 37.3894 15.6493C35.9204 17.4676 34.9194 19.6181 34.474 21.9128C34.0286 24.2075 34.1523 26.5764 34.8344 28.8122C35.5079 31.0591 36.7367 33.1002 38.4073 34.7469C40.0779 36.3935 42.1364 37.5927 44.3929 38.2337C45.693 38.5945 47.0358 38.7787 48.3851 38.7812C50.2542 38.7842 52.1055 38.4179 53.8327 37.7033C55.5598 36.9887 57.1288 35.94 58.4494 34.6172C59.77 33.2945 60.8163 31.7238 61.5281 29.9955C62.2399 28.2672 62.6033 26.4153 62.5972 24.5462C62.5912 24.0178 62.3771 23.513 62.0013 23.1414C61.6254 22.7699 61.1182 22.5615 60.5897 22.5615Z" fill="url(#paint3_linear_108_427)"/>
<path d="M56.5293 2.28125C55.9909 2.28125 55.4744 2.49516 55.0937 2.87591C54.7129 3.25667 54.499 3.77309 54.499 4.31156V15.4897C54.499 17.6112 55.3887 18.5009 56.5065 18.5009H68.6884C69.2269 18.5009 69.7433 18.287 70.124 17.9063C70.5048 17.5255 70.7187 17.0091 70.7187 16.4706C70.7127 12.7092 69.2158 9.1036 66.5561 6.44389C63.8964 3.78417 60.2907 2.28728 56.5293 2.28125Z" fill="url(#paint4_linear_108_427)"/>
<defs>
<linearGradient id="paint0_linear_108_427" x1="1.68333" y1="2.2625" x2="2.95314" y2="11.216" gradientUnits="userSpaceOnUse">
<stop stop-color="#FF8181"/>
<stop offset="0.47" stop-color="#F5BA79"/>
<stop offset="1" stop-color="#6A94FF"/>
</linearGradient>
<linearGradient id="paint1_linear_108_427" x1="1.89688" y1="11.3875" x2="3.81833" y2="20.0972" gradientUnits="userSpaceOnUse">
<stop stop-color="#FF8181"/>
<stop offset="0.47" stop-color="#F5BA79"/>
<stop offset="1" stop-color="#6A94FF"/>
</linearGradient>
<linearGradient id="paint2_linear_108_427" x1="1" y1="27.1969" x2="40.0989" y2="89.3826" gradientUnits="userSpaceOnUse">
<stop stop-color="#FF8181"/>
<stop offset="0.47" stop-color="#F5BA79"/>
<stop offset="1" stop-color="#6A94FF"/>
</linearGradient>
<linearGradient id="paint3_linear_108_427" x1="33.6805" y1="10.2855" x2="62.0855" y2="38.9041" gradientUnits="userSpaceOnUse">
<stop stop-color="#FF8181"/>
<stop offset="0.47" stop-color="#F5BA79"/>
<stop offset="1" stop-color="#6A94FF"/>
</linearGradient>
<linearGradient id="paint4_linear_108_427" x1="54.1954" y1="2.21459" x2="70.4299" y2="18.5676" gradientUnits="userSpaceOnUse">
<stop stop-color="#FF8181"/>
<stop offset="0.47" stop-color="#F5BA79"/>
<stop offset="1" stop-color="#6A94FF"/>
</linearGradient>
</defs>
</svg>
