<svg width="248" height="61" viewBox="0 0 248 61" fill="none" xmlns="http://www.w3.org/2000/svg">
<circle cx="231.441" cy="16.147" r="1.79412" transform="rotate(180 231.441 16.147)" fill="#F5BA79"/>
<circle cx="231.441" cy="30.5" r="1.79412" transform="rotate(180 231.441 30.5)" fill="#353535"/>
<circle cx="217.088" cy="30.5" r="1.79412" transform="rotate(180 217.088 30.5)" fill="#353535"/>
<circle cx="245.794" cy="30.5" r="1.79412" transform="rotate(180 245.794 30.5)" fill="#353535"/>
<circle cx="231.441" cy="59.2059" r="1.79412" transform="rotate(180 231.441 59.2059)" fill="#6A94FF"/>
<circle cx="188.383" cy="59.2059" r="1.79412" transform="rotate(180 188.383 59.2059)" fill="#F5BA79"/>
<circle cx="159.677" cy="59.2059" r="1.79412" transform="rotate(180 159.677 59.2059)" fill="#353535"/>
<circle cx="145.324" cy="59.2059" r="1.79412" transform="rotate(180 145.324 59.2059)" fill="#353535"/>
<circle cx="130.971" cy="59.2059" r="1.79412" transform="rotate(180 130.971 59.2059)" fill="#F5BA79"/>
<circle cx="116.618" cy="59.2059" r="1.79412" transform="rotate(180 116.618 59.2059)" fill="#353535"/>
<circle cx="102.265" cy="59.2059" r="1.79412" transform="rotate(180 102.265 59.2059)" fill="#353535"/>
<circle cx="87.9119" cy="59.2059" r="1.79412" transform="rotate(180 87.9119 59.2059)" fill="#F5BA79"/>
<circle cx="44.8533" cy="59.2059" r="1.79412" transform="rotate(180 44.8533 59.2059)" fill="#353535"/>
<circle cx="30.5003" cy="59.2059" r="1.79412" transform="rotate(180 30.5003 59.2059)" fill="#353535"/>
<circle cx="1.79426" cy="44.853" r="1.79412" transform="rotate(180 1.79426 44.853)" fill="#F5BA79"/>
<circle cx="16.1473" cy="44.853" r="1.79412" transform="rotate(180 16.1473 44.853)" fill="#353535"/>
<circle cx="59.2059" cy="44.853" r="1.79412" transform="rotate(180 59.2059 44.853)" fill="#6A94FF"/>
<circle cx="73.5589" cy="44.853" r="1.79412" transform="rotate(180 73.5589 44.853)" fill="#353535"/>
<circle cx="102.265" cy="44.853" r="1.79412" transform="rotate(180 102.265 44.853)" fill="#6A94FF"/>
<circle cx="130.971" cy="44.853" r="1.79412" transform="rotate(180 130.971 44.853)" fill="#353535"/>
<circle cx="174.03" cy="30.5" r="1.79412" transform="rotate(180 174.03 30.5)" fill="#F5BA79"/>
<circle cx="159.677" cy="30.5" r="1.79412" transform="rotate(180 159.677 30.5)" fill="#353535"/>
<circle cx="145.324" cy="16.147" r="1.79412" transform="rotate(180 145.324 16.147)" fill="#F5BA79"/>
<circle cx="130.971" cy="16.147" r="1.79412" transform="rotate(180 130.971 16.147)" fill="#353535"/>
<circle cx="102.265" cy="16.147" r="1.79412" transform="rotate(180 102.265 16.147)" fill="#353535"/>
<circle cx="59.2059" cy="16.147" r="1.79412" transform="rotate(180 59.2059 16.147)" fill="#353535"/>
<circle cx="16.1473" cy="16.147" r="1.79412" transform="rotate(180 16.1473 16.147)" fill="#6A94FF"/>
<circle cx="16.1473" cy="30.5001" r="1.79412" transform="rotate(180 16.1473 30.5001)" fill="#F5BA79"/>
<circle cx="44.8529" cy="30.5001" r="1.79412" transform="rotate(180 44.8529 30.5001)" fill="#353535"/>
<circle cx="59.2059" cy="30.5001" r="1.79412" transform="rotate(180 59.2059 30.5001)" fill="#353535"/>
<circle cx="73.5589" cy="30.5001" r="1.79412" transform="rotate(180 73.5589 30.5001)" fill="#353535"/>
<circle cx="44.8529" cy="1.79414" r="1.79412" transform="rotate(180 44.8529 1.79414)" fill="#353535"/>
<circle cx="59.2059" cy="1.79414" r="1.79412" transform="rotate(180 59.2059 1.79414)" fill="#F5BA79"/>
<circle cx="73.5589" cy="1.79414" r="1.79412" transform="rotate(180 73.5589 1.79414)" fill="#353535"/>
<circle cx="116.618" cy="1.79414" r="1.79412" transform="rotate(180 116.618 1.79414)" fill="#353535"/>
<circle cx="130.971" cy="1.79414" r="1.79412" transform="rotate(180 130.971 1.79414)" fill="#6A94FF"/>
</svg>
