<svg width="63" height="65" viewBox="0 0 63 65" fill="none" xmlns="http://www.w3.org/2000/svg">
<path fill-rule="evenodd" clip-rule="evenodd" d="M62.3256 21.0938V57.5938C62.3256 59.4096 61.6052 61.1502 60.3208 62.4323C59.0364 63.7166 57.2956 64.4375 55.4798 64.4375H18.9688C17.1531 64.4375 15.4123 63.7166 14.1279 62.4323C12.8435 61.1502 12.1231 59.4096 12.1231 57.5938V41.3239C13.2347 41.5223 14.3789 41.625 15.546 41.625C26.2515 41.625 34.9424 32.9357 34.9424 22.2344C34.9424 11.533 26.2515 2.84375 15.546 2.84375C14.9559 2.84375 14.3724 2.87112 13.7986 2.9213C15.0537 1.47727 16.9053 0.5625 18.9688 0.5625H41.7882V14.25C41.7882 16.0659 42.5086 17.8065 43.793 19.0885C45.0774 20.3729 46.8182 21.0938 48.634 21.0938H62.3256ZM25.8146 53.0312V50.75C25.8146 49.4907 24.791 48.4688 23.5327 48.4688C22.2744 48.4688 21.2508 49.4907 21.2508 50.75V53.0312C21.2508 54.2905 22.2744 55.3125 23.5327 55.3125C24.791 55.3125 25.8146 54.2905 25.8146 53.0312ZM34.9424 53.0312V43.9062C34.9424 42.647 33.9188 41.625 32.6605 41.625C31.4021 41.625 30.3785 42.647 30.3785 43.9062V53.0312C30.3785 54.2905 31.4021 55.3125 32.6605 55.3125C33.9188 55.3125 34.9424 54.2905 34.9424 53.0312ZM44.0701 53.0312V46.1875C44.0701 44.9282 43.0465 43.9062 41.7882 43.9062C40.5298 43.9062 39.5062 44.9282 39.5062 46.1875V53.0312C39.5062 54.2905 40.5298 55.3125 41.7882 55.3125C43.0465 55.3125 44.0701 54.2905 44.0701 53.0312ZM53.1978 53.0312V37.0625C53.1978 35.8032 52.1742 34.7812 50.9159 34.7812C49.6576 34.7812 48.634 35.8032 48.634 37.0625V53.0312C48.634 54.2905 49.6576 55.3125 50.9159 55.3125C52.1742 55.3125 53.1978 54.2905 53.1978 53.0312ZM46.3521 0.605837C47.9918 0.7929 49.5207 1.56854 50.6421 2.80269L60.5457 13.6911C61.2857 14.5078 61.8138 15.4819 62.0941 16.5312H48.634C48.0276 16.5312 47.4474 16.2917 47.0204 15.8628C46.5933 15.4363 46.3521 14.8545 46.3521 14.25V0.605837ZM30.2025 24.5156C29.1039 31.6172 22.9557 37.0625 15.546 37.0625C7.36034 37.0625 0.713379 30.4172 0.713379 22.2344C0.713379 14.8272 6.16065 8.6792 13.264 7.58191V19.9531C13.264 22.4739 15.308 24.5156 17.8279 24.5156H30.2025ZM17.8279 7.58191C24.188 8.56513 29.2212 13.5953 30.2025 19.9531H17.8279V7.58191Z" fill="url(#paint0_linear_108_460)"/>
<defs>
<linearGradient id="paint0_linear_108_460" x1="0.999879" y1="1" x2="61.9999" y2="64" gradientUnits="userSpaceOnUse">
<stop stop-color="#FF8181"/>
<stop offset="0.48" stop-color="#F5BA79"/>
<stop offset="1" stop-color="#6A94FF"/>
</linearGradient>
</defs>
</svg>
