<svg width="819" height="242" viewBox="0 0 819 242" fill="none" xmlns="http://www.w3.org/2000/svg">
<circle cx="2.39495" cy="204.42" r="1.49211" fill="#353535"/>
<circle cx="14.332" cy="216.357" r="1.49211" fill="#353535"/>
<circle cx="26.269" cy="216.357" r="1.49211" fill="#F5BA79"/>
<circle cx="26.269" cy="228.293" r="1.49211" fill="#353535"/>
<circle cx="14.332" cy="228.293" r="1.49211" fill="#F5BA79"/>
<circle cx="50.1425" cy="216.357" r="1.49211" fill="#FF8181"/>
<circle cx="50.1425" cy="240.23" r="1.49211" fill="#353535"/>
<circle cx="62.0795" cy="240.23" r="1.49211" fill="#353535"/>
<circle cx="97.8901" cy="240.23" r="1.49211" fill="#353535"/>
<circle cx="121.764" cy="240.23" r="1.49211" fill="#F5BA79"/>
<circle cx="133.701" cy="240.23" r="1.49211" fill="#353535"/>
<circle cx="145.638" cy="240.23" r="1.49211" fill="#353535"/>
<circle cx="62.0795" cy="204.42" r="1.49211" fill="#F5BA79"/>
<circle cx="74.0165" cy="204.42" r="1.49211" fill="#FF8181"/>
<circle cx="74.0165" cy="192.483" r="1.49211" fill="#353535"/>
<circle cx="97.8901" cy="180.546" r="1.49211" fill="#F5BA79"/>
<circle cx="109.827" cy="180.546" r="1.49211" fill="#353535"/>
<circle cx="145.638" cy="204.42" r="1.49211" fill="#F5BA79"/>
<circle cx="145.638" cy="216.357" r="1.49211" fill="#353535"/>
<circle cx="157.575" cy="216.357" r="1.49211" fill="#353535"/>
<circle cx="157.575" cy="192.483" r="1.49211" fill="#353535"/>
<circle cx="169.512" cy="192.483" r="1.49211" fill="#FF8181"/>
<circle cx="181.449" cy="192.483" r="1.49211" fill="#353535"/>
<circle cx="181.449" cy="180.546" r="1.49211" fill="#353535"/>
<circle cx="193.386" cy="204.42" r="1.49211" fill="#353535"/>
<circle cx="193.386" cy="216.357" r="1.49211" fill="#353535"/>
<circle cx="205.323" cy="216.357" r="1.49211" fill="#353535"/>
<circle cx="217.259" cy="216.357" r="1.49211" fill="#353535"/>
<circle cx="205.323" cy="192.483" r="1.49211" fill="#353535"/>
<circle cx="217.259" cy="180.546" r="1.49211" fill="#353535"/>
<circle cx="217.259" cy="168.609" r="1.49211" fill="#6A94FF"/>
<circle cx="205.323" cy="156.672" r="1.49211" fill="#353535"/>
<circle cx="193.386" cy="144.735" r="1.49211" fill="#FF8181"/>
<circle cx="181.449" cy="132.798" r="1.49211" fill="#FF8181"/>
<circle cx="181.449" cy="108.924" r="1.49211" fill="#FF8181"/>
<circle cx="217.259" cy="120.861" r="1.49211" fill="#353535"/>
<circle cx="217.259" cy="132.798" r="1.49211" fill="#353535"/>
<circle cx="229.196" cy="132.798" r="1.49211" fill="#6A94FF"/>
<circle cx="217.259" cy="144.735" r="1.49211" fill="#353535"/>
<circle cx="265.007" cy="108.924" r="1.49211" fill="#353535"/>
<circle cx="265.007" cy="180.546" r="1.49211" fill="#353535"/>
<circle cx="276.944" cy="180.546" r="1.49211" fill="#353535"/>
<circle cx="276.944" cy="192.483" r="1.49211" fill="#353535"/>
<circle cx="276.944" cy="204.42" r="1.49211" fill="#353535"/>
<circle cx="288.881" cy="204.42" r="1.49211" fill="#353535"/>
<circle cx="288.881" cy="192.483" r="1.49211" fill="#353535"/>
<circle cx="288.881" cy="168.609" r="1.49211" fill="#353535"/>
<circle cx="288.881" cy="156.672" r="1.49211" fill="#353535"/>
<circle cx="288.881" cy="132.798" r="1.49211" fill="#353535"/>
<circle cx="288.881" cy="120.861" r="1.49211" fill="#353535"/>
<circle cx="288.881" cy="108.924" r="1.49211" fill="#6A94FF"/>
<circle cx="276.944" cy="96.9874" r="1.49211" fill="#6A94FF"/>
<circle cx="312.755" cy="96.9874" r="1.49211" fill="#353535"/>
<circle cx="324.692" cy="96.9874" r="1.49211" fill="#353535"/>
<circle cx="324.692" cy="85.0505" r="1.49211" fill="#353535"/>
<circle cx="265.007" cy="73.1136" r="1.49211" fill="#353535"/>
<circle cx="276.944" cy="73.1136" r="1.49211" fill="#6A94FF"/>
<circle cx="276.944" cy="61.1767" r="1.49211" fill="#353535"/>
<circle cx="276.944" cy="49.2398" r="1.49211" fill="#353535"/>
<circle cx="288.881" cy="61.1767" r="1.49211" fill="#353535"/>
<circle cx="300.818" cy="61.1767" r="1.49211" fill="#6A94FF"/>
<circle cx="336.628" cy="73.1136" r="1.49211" fill="#353535"/>
<circle cx="348.565" cy="73.1136" r="1.49211" fill="#353535"/>
<circle cx="360.502" cy="73.1136" r="1.49211" fill="#353535"/>
<circle cx="372.439" cy="73.1136" r="1.49211" fill="#353535"/>
<circle cx="336.628" cy="61.1767" r="1.49211" fill="#353535"/>
<circle cx="324.692" cy="49.2398" r="1.49211" fill="#353535"/>
<circle cx="324.692" cy="37.3029" r="1.49211" fill="#353535"/>
<circle cx="348.565" cy="37.3029" r="1.49211" fill="#353535"/>
<circle cx="360.502" cy="37.3029" r="1.49211" fill="#353535"/>
<circle cx="360.502" cy="25.3659" r="1.49211" fill="#353535"/>
<circle cx="348.565" cy="25.3659" r="1.49211" fill="#353535"/>
<circle cx="336.628" cy="25.3659" r="1.49211" fill="#353535"/>
<circle cx="336.628" cy="13.429" r="1.49211" fill="#353535"/>
<circle cx="411.234" cy="1.49211" r="1.49211" fill="#353535"/>
<circle cx="411.234" cy="49.2398" r="1.49211" fill="#353535"/>
<circle cx="423.171" cy="61.1767" r="1.49211" fill="#353535"/>
<circle cx="435.108" cy="61.1767" r="1.49211" fill="#353535"/>
<circle cx="435.108" cy="49.2398" r="1.49211" fill="#353535"/>
<circle cx="435.108" cy="37.3029" r="1.49211" fill="#353535"/>
<circle cx="435.108" cy="25.3659" r="1.49211" fill="#353535"/>
<circle cx="447.045" cy="13.429" r="1.49211" fill="#353535"/>
<circle cx="447.045" cy="1.49211" r="1.49211" fill="#353535"/>
<circle cx="458.982" cy="1.49211" r="1.49211" fill="#353535"/>
<circle cx="470.919" cy="1.49211" r="1.49211" fill="#F5BA79"/>
<circle cx="482.856" cy="13.429" r="1.49211" fill="#F5BA79"/>
<circle cx="458.982" cy="13.429" r="1.49211" fill="#353535"/>
<circle cx="470.919" cy="37.3029" r="1.49211" fill="#353535"/>
<circle cx="482.856" cy="49.2398" r="1.49211" fill="#F5BA79"/>
<circle cx="494.793" cy="61.1767" r="1.49211" fill="#353535"/>
<circle cx="470.919" cy="73.1136" r="1.49211" fill="#353535"/>
<circle cx="458.982" cy="73.1136" r="1.49211" fill="#F5BA79"/>
<circle cx="470.919" cy="85.0505" r="1.49211" fill="#353535"/>
<circle cx="506.729" cy="73.1136" r="1.49211" fill="#353535"/>
<circle cx="518.666" cy="85.0505" r="1.49211" fill="#353535"/>
<circle cx="542.54" cy="85.0505" r="1.49211" fill="#F5BA79"/>
<circle cx="542.54" cy="73.1136" r="1.49211" fill="#353535"/>
<circle cx="482.856" cy="96.9874" r="1.49211" fill="#353535"/>
<circle cx="494.793" cy="96.9874" r="1.49211" fill="#F5BA79"/>
<circle cx="506.729" cy="96.9874" r="1.49211" fill="#353535"/>
<circle cx="494.793" cy="108.924" r="1.49211" fill="#353535"/>
<circle cx="494.793" cy="120.861" r="1.49211" fill="#353535"/>
<circle cx="506.729" cy="120.861" r="1.49211" fill="#353535"/>
<circle cx="518.666" cy="120.861" r="1.49211" fill="#F5BA79"/>
<circle cx="530.603" cy="120.861" r="1.49211" fill="#353535"/>
<circle cx="542.54" cy="108.924" r="1.49211" fill="#353535"/>
<circle cx="554.477" cy="108.924" r="1.49211" fill="#353535"/>
<circle cx="554.477" cy="120.861" r="1.49211" fill="#F5BA79"/>
<circle cx="506.729" cy="132.798" r="1.49211" fill="#353535"/>
<circle cx="506.729" cy="144.735" r="1.49211" fill="#353535"/>
<circle cx="506.729" cy="180.546" r="1.49211" fill="#353535"/>
<circle cx="518.666" cy="168.609" r="1.49211" fill="#353535"/>
<circle cx="530.603" cy="168.609" r="1.49211" fill="#353535"/>
<circle cx="494.793" cy="180.546" r="1.49211" fill="#353535"/>
<circle cx="494.793" cy="192.483" r="1.49211" fill="#353535"/>
<circle cx="494.793" cy="204.42" r="1.49211" fill="#353535"/>
<circle cx="530.603" cy="204.42" r="1.49211" fill="#353535"/>
<circle cx="530.603" cy="192.483" r="1.49211" fill="#353535"/>
<circle cx="542.54" cy="192.483" r="1.49211" fill="#353535"/>
<circle cx="542.54" cy="180.546" r="1.49211" fill="#353535"/>
<circle cx="542.54" cy="204.42" r="1.49211" fill="#353535"/>
<circle cx="554.477" cy="180.546" r="1.49211" fill="#353535"/>
<circle cx="590.288" cy="132.798" r="1.49211" fill="#353535"/>
<circle cx="602.225" cy="132.798" r="1.49211" fill="#353535"/>
<circle cx="602.225" cy="120.861" r="1.49211" fill="#353535"/>
<circle cx="602.225" cy="144.735" r="1.49211" fill="#FF8181"/>
<circle cx="602.225" cy="168.609" r="1.49211" fill="#353535"/>
<circle cx="602.225" cy="180.546" r="1.49211" fill="#FF8181"/>
<circle cx="602.225" cy="216.357" r="1.49211" fill="#353535"/>
<circle cx="614.162" cy="216.357" r="1.49211" fill="#353535"/>
<circle cx="614.162" cy="192.483" r="1.49211" fill="#353535"/>
<circle cx="614.162" cy="156.672" r="1.49211" fill="#FF8181"/>
<circle cx="626.099" cy="144.735" r="1.49211" fill="#353535"/>
<circle cx="626.099" cy="204.42" r="1.49211" fill="#353535"/>
<circle cx="626.099" cy="216.357" r="1.49211" fill="#FF8181"/>
<circle cx="638.036" cy="192.483" r="1.49211" fill="#353535"/>
<circle cx="638.036" cy="180.546" r="1.49211" fill="#FF8181"/>
<circle cx="638.036" cy="132.798" r="1.49211" fill="#353535"/>
<circle cx="638.036" cy="108.924" r="1.49211" fill="#FF8181"/>
<circle cx="649.973" cy="192.483" r="1.49211" fill="#353535"/>
<circle cx="661.91" cy="192.483" r="1.49211" fill="#6A94FF"/>
<circle cx="661.91" cy="216.357" r="1.49211" fill="#353535"/>
<circle cx="673.847" cy="216.357" r="1.49211" fill="#6A94FF"/>
<circle cx="673.847" cy="204.42" r="1.49211" fill="#353535"/>
<circle cx="673.847" cy="240.23" r="1.49211" fill="#353535"/>
<circle cx="685.783" cy="240.23" r="1.49211" fill="#353535"/>
<circle cx="697.72" cy="240.23" r="1.49211" fill="#353535"/>
<circle cx="721.594" cy="240.23" r="1.49211" fill="#6A94FF"/>
<circle cx="757.405" cy="240.23" r="1.49211" fill="#6A94FF"/>
<circle cx="769.342" cy="240.23" r="1.49211" fill="#353535"/>
<circle cx="769.342" cy="216.357" r="1.49211" fill="#353535"/>
<circle cx="757.405" cy="204.42" r="1.49211" fill="#6A94FF"/>
<circle cx="745.468" cy="204.42" r="1.49211" fill="#353535"/>
<circle cx="745.468" cy="192.483" r="1.49211" fill="#353535"/>
<circle cx="721.594" cy="180.546" r="1.49211" fill="#353535"/>
<circle cx="709.657" cy="180.546" r="1.49211" fill="#6A94FF"/>
<circle cx="793.216" cy="216.357" r="1.49211" fill="#353535"/>
<circle cx="793.216" cy="228.293" r="1.49211" fill="#6A94FF"/>
<circle cx="805.152" cy="216.357" r="1.49211" fill="#353535"/>
<circle cx="817.089" cy="204.42" r="1.49211" fill="#353535"/>
<circle cx="312.755" cy="120.861" r="1.49211" fill="#353535"/>
<circle cx="312.755" cy="132.798" r="1.49211" fill="#353535"/>
<circle cx="312.755" cy="144.735" r="1.49211" fill="#353535"/>
<circle cx="324.692" cy="144.735" r="1.49211" fill="#353535"/>
<circle cx="300.818" cy="168.609" r="1.49211" fill="#353535"/>
<circle cx="312.755" cy="168.609" r="1.49211" fill="#353535"/>
<circle cx="312.755" cy="180.546" r="1.49211" fill="#353535"/>
<circle cx="324.692" cy="180.546" r="1.49211" fill="#353535"/>
<circle cx="324.692" cy="192.483" r="1.49211" fill="#353535"/>
<circle cx="324.692" cy="204.42" r="1.49211" fill="#353535"/>
<circle cx="324.692" cy="108.924" r="1.49211" fill="#353535"/>
</svg>
