<svg width="105" height="144" viewBox="0 0 105 144" fill="none" xmlns="http://www.w3.org/2000/svg">
<circle cx="103.409" cy="78.3636" r="1.59091" transform="rotate(180 103.409 78.3636)" fill="#353535"/>
<circle cx="65.2274" cy="78.3636" r="1.59091" transform="rotate(180 65.2274 78.3636)" fill="#353535"/>
<circle cx="39.7729" cy="78.3636" r="1.59091" transform="rotate(180 39.7729 78.3636)" fill="#353535"/>
<circle cx="27.0453" cy="78.3636" r="1.59091" transform="rotate(180 27.0453 78.3636)" fill="#FF8181"/>
<circle cx="14.3183" cy="78.3636" r="1.59091" transform="rotate(180 14.3183 78.3636)" fill="#353535"/>
<circle cx="27.0453" cy="91.0908" r="1.59091" transform="rotate(180 27.0453 91.0908)" fill="#353535"/>
<circle cx="52.4999" cy="91.0908" r="1.59091" transform="rotate(180 52.4999 91.0908)" fill="#FF8181"/>
<circle cx="39.7729" cy="116.545" r="1.59091" transform="rotate(180 39.7729 116.545)" fill="#353535"/>
<circle cx="27.0453" cy="103.818" r="1.59091" transform="rotate(180 27.0453 103.818)" fill="#353535"/>
<circle cx="14.3183" cy="103.818" r="1.59091" transform="rotate(180 14.3183 103.818)" fill="#F5BA79"/>
<circle cx="14.3183" cy="129.273" r="1.59091" transform="rotate(180 14.3183 129.273)" fill="#353535"/>
<circle cx="1.59073" cy="129.273" r="1.59091" transform="rotate(180 1.59073 129.273)" fill="#353535"/>
<circle cx="14.3183" cy="142" r="1.59091" transform="rotate(180 14.3183 142)" fill="#353535"/>
<circle cx="14.3183" cy="65.6363" r="1.59091" transform="rotate(180 14.3183 65.6363)" fill="#353535"/>
<circle cx="1.59073" cy="65.6363" r="1.59091" transform="rotate(180 1.59073 65.6363)" fill="#353535"/>
<circle cx="14.3183" cy="40.1818" r="1.59091" transform="rotate(180 14.3183 40.1818)" fill="#353535"/>
<circle cx="27.0453" cy="40.1818" r="1.59091" transform="rotate(180 27.0453 40.1818)" fill="#353535"/>
<circle cx="27.0453" cy="27.4545" r="1.59091" transform="rotate(180 27.0453 27.4545)" fill="#353535"/>
<circle cx="27.0453" cy="14.7272" r="1.59091" transform="rotate(180 27.0453 14.7272)" fill="#353535"/>
<circle cx="39.7729" cy="52.909" r="1.59091" transform="rotate(180 39.7729 52.909)" fill="#F5BA79"/>
<circle cx="52.4999" cy="52.909" r="1.59091" transform="rotate(180 52.4999 52.909)" fill="#353535"/>
<circle cx="90.682" cy="52.909" r="1.59091" transform="rotate(180 90.682 52.909)" fill="#FF8181"/>
<circle cx="77.9545" cy="40.1818" r="1.59091" transform="rotate(180 77.9545 40.1818)" fill="#353535"/>
<circle cx="65.2274" cy="40.1818" r="1.59091" transform="rotate(180 65.2274 40.1818)" fill="#353535"/>
<circle cx="65.2274" cy="27.4545" r="1.59091" transform="rotate(180 65.2274 27.4545)" fill="#FF8181"/>
<circle cx="77.9545" cy="27.4545" r="1.59091" transform="rotate(180 77.9545 27.4545)" fill="#353535"/>
<circle cx="52.4999" cy="27.4545" r="1.59091" transform="rotate(180 52.4999 27.4545)" fill="#353535"/>
<circle cx="52.4999" cy="1.99993" r="1.59091" transform="rotate(180 52.4999 1.99993)" fill="#353535"/>
<circle cx="65.2274" cy="1.99993" r="1.59091" transform="rotate(180 65.2274 1.99993)" fill="#F5BA79"/>
<circle cx="77.9545" cy="1.99993" r="1.59091" transform="rotate(180 77.9545 1.99993)" fill="#353535"/>
<circle cx="65.2274" cy="14.7272" r="1.59091" transform="rotate(180 65.2274 14.7272)" fill="#353535"/>
</svg>
