<svg width="66" height="90" viewBox="0 0 66 90" fill="none" xmlns="http://www.w3.org/2000/svg">
<circle cx="25" cy="66" r="1" fill="#FF8181"/>
<circle cx="25" cy="73" r="1" fill="#FF8181"/>
<circle cx="17" cy="73" r="1" fill="#353535"/>
<circle cx="32" cy="73" r="1" fill="#6A94FF"/>
<circle cx="49" cy="57" r="1" fill="#353535"/>
<circle cx="65" cy="57" r="1" fill="#FF8181"/>
<circle cx="57" cy="49" r="1" fill="#353535"/>
<circle cx="49" cy="49" r="1" fill="#6A94FF"/>
<circle cx="49" cy="42" r="1" fill="#FF8181"/>
<circle cx="65" cy="42" r="1" fill="#6A94FF"/>
<circle cx="65" cy="33" r="1" fill="#353535"/>
<circle cx="65" cy="26" r="1" fill="#353535"/>
<circle cx="57" cy="18" r="1" fill="#FF8181"/>
<circle cx="49" cy="26" r="1" fill="#6A94FF"/>
<circle cx="41" cy="33" r="1" fill="#FF8181"/>
<circle cx="49" cy="1" r="1" fill="#FF8181"/>
<circle cx="57" cy="1" r="1" fill="#353535"/>
<circle cx="41" cy="81" r="1" fill="#FF8181"/>
<circle cx="32" cy="89" r="1" fill="#353535"/>
<circle cx="1" cy="89" r="1" fill="#6A94FF"/>
<circle cx="1" cy="66" r="1" fill="#353535"/>
<circle cx="8" cy="66" r="1" fill="#FF8181"/>
<circle cx="8" cy="57" r="1" fill="#353535"/>
<circle cx="1" cy="57" r="1" fill="#FF8181"/>
<circle cx="1" cy="49" r="1" fill="#6A94FF"/>
<circle cx="8" cy="42" r="1" fill="#FF8181"/>
<circle cx="25" cy="49" r="1" fill="#353535"/>
<circle cx="32" cy="42" r="1" fill="#6A94FF"/>
<circle cx="41" cy="73" r="1" fill="#FF8181"/>
</svg>
