<svg width="138" height="34" viewBox="0 0 138 34" fill="none" xmlns="http://www.w3.org/2000/svg">
<circle cx="9" cy="25" r="1" fill="#353535"/>
<circle cx="9" cy="17" r="1" fill="#353535"/>
<circle cx="17" cy="17" r="1" fill="#353535"/>
<circle cx="1" cy="17" r="1" fill="#F5BA79"/>
<circle cx="9" cy="1" r="1" fill="#FF8181"/>
<circle cx="33" cy="1" r="1" fill="#353535"/>
<circle cx="49" cy="1" r="1" fill="#FF8181"/>
<circle cx="57" cy="1" r="1" fill="#353535"/>
<circle cx="65" cy="1" r="1" fill="#F5BA79"/>
<circle cx="73" cy="1" r="1" fill="#353535"/>
<circle cx="81" cy="1" r="1" fill="#353535"/>
<circle cx="89" cy="1" r="1" fill="#F5BA79"/>
<circle cx="113" cy="1" r="1" fill="#353535"/>
<circle cx="121" cy="1" r="1" fill="#F5BA79"/>
<circle cx="137" cy="9" r="1" fill="#F5BA79"/>
<circle cx="129" cy="9" r="1" fill="#353535"/>
<circle cx="105" cy="9" r="1" fill="#FF8181"/>
<circle cx="97" cy="9" r="1" fill="#353535"/>
<circle cx="81" cy="9" r="1" fill="#FF8181"/>
<circle cx="65" cy="9" r="1" fill="#353535"/>
<circle cx="41" cy="17" r="1" fill="#F5BA79"/>
<circle cx="49" cy="17" r="1" fill="#353535"/>
<circle cx="57" cy="25" r="1" fill="#353535"/>
<circle cx="65" cy="25" r="1" fill="#353535"/>
<circle cx="81" cy="25" r="1" fill="#353535"/>
<circle cx="105" cy="25" r="1" fill="#353535"/>
<circle cx="129" cy="25" r="1" fill="#FF8181"/>
<circle cx="129" cy="17" r="1" fill="#353535"/>
<circle cx="113" cy="17" r="1" fill="#353535"/>
<circle cx="105" cy="17" r="1" fill="#353535"/>
<circle cx="97" cy="17" r="1" fill="#353535"/>
<circle cx="113" cy="33" r="1" fill="#353535"/>
<circle cx="105" cy="33" r="1" fill="#F5BA79"/>
<circle cx="97" cy="33" r="1" fill="#353535"/>
<circle cx="73" cy="33" r="1" fill="#F5BA79"/>
<circle cx="65" cy="33" r="1" fill="#353535"/>
</svg>
