<svg width="137" height="137" viewBox="0 0 137 137" fill="none" xmlns="http://www.w3.org/2000/svg">
<rect x="0.614796" y="0.614796" width="135.255" height="135.255" rx="17.8291" stroke="url(#paint0_linear_108_2653)" stroke-width="1.22959"/>
<rect x="7.99273" y="7.99224" width="120.5" height="120.5" rx="14.1403" stroke="url(#paint1_linear_108_2653)" stroke-width="1.22959"/>
<rect x="14.1402" y="14.1402" width="108.204" height="108.204" rx="11.6811" stroke="url(#paint2_linear_108_2653)" stroke-width="1.22959"/>
<rect x="19.6738" y="19.6733" width="97.1378" height="97.1378" rx="9.83673" fill="url(#paint3_linear_108_2653)"/>
<path d="M82.917 54.707C81.1019 54.707 79.3612 53.986 78.0777 52.7025C76.7943 51.4191 76.0732 49.6784 76.0732 47.8633V36.457H50.9795C49.1644 36.457 47.4237 37.1781 46.1402 38.4615C44.8568 39.745 44.1357 41.4857 44.1357 43.3008V93.4883C44.1357 95.3034 44.8568 97.0441 46.1402 98.3275C47.4237 99.611 49.1644 100.332 50.9795 100.332H87.4795C89.2946 100.332 91.0353 99.611 92.3188 98.3275C93.6022 97.0441 94.3232 95.3034 94.3232 93.4883V54.707H82.917ZM62.3857 47.8633C63.7393 47.8633 65.0625 48.2647 66.1879 49.0167C67.3134 49.7687 68.1906 50.8375 68.7085 52.088C69.2265 53.3386 69.3621 54.7146 69.098 56.0422C68.8339 57.3697 68.1821 58.5892 67.225 59.5463C66.2679 60.5034 65.0484 61.1552 63.7209 61.4193C62.3933 61.6833 61.0173 61.5478 59.7668 61.0298C58.5162 60.5118 57.4474 59.6347 56.6954 58.5092C55.9434 57.3838 55.542 56.0606 55.542 54.707C55.542 52.892 56.263 51.1512 57.5465 49.8678C58.8299 48.5843 60.5707 47.8633 62.3857 47.8633ZM53.2607 70.6758C53.2607 68.8607 53.9818 67.12 55.2652 65.8365C56.5487 64.5531 58.2894 63.832 60.1045 63.832H64.667C66.4821 63.832 68.2228 64.5531 69.5063 65.8365C70.7897 67.12 71.5107 68.8607 71.5107 70.6758V75.2383C71.5107 75.8433 71.2704 76.4236 70.8426 76.8514C70.4148 77.2792 69.8345 77.5195 69.2295 77.5195H55.542C54.937 77.5195 54.3567 77.2792 53.9289 76.8514C53.5011 76.4236 53.2607 75.8433 53.2607 75.2383V70.6758ZM82.917 88.9258H55.542C54.937 88.9258 54.3567 88.6854 53.9289 88.2576C53.5011 87.8298 53.2607 87.2496 53.2607 86.6445C53.2607 86.0395 53.5011 85.4593 53.9289 85.0314C54.3567 84.6036 54.937 84.3633 55.542 84.3633H82.917C83.522 84.3633 84.1023 84.6036 84.5301 85.0314C84.9579 85.4593 85.1982 86.0395 85.1982 86.6445C85.1982 87.2496 84.9579 87.8298 84.5301 88.2576C84.1023 88.6854 83.522 88.9258 82.917 88.9258ZM82.917 77.5195H78.3545C77.7495 77.5195 77.1692 77.2792 76.7414 76.8514C76.3136 76.4236 76.0732 75.8433 76.0732 75.2383C76.0732 74.6333 76.3136 74.053 76.7414 73.6252C77.1692 73.1974 77.7495 72.957 78.3545 72.957H82.917C83.522 72.957 84.1023 73.1974 84.5301 73.6252C84.9579 74.053 85.1982 74.6333 85.1982 75.2383C85.1982 75.8433 84.9579 76.4236 84.5301 76.8514C84.1023 77.2792 83.522 77.5195 82.917 77.5195ZM82.917 66.1133H78.3545C77.7495 66.1133 77.1692 65.8729 76.7414 65.4451C76.3136 65.0173 76.0732 64.4371 76.0732 63.832C76.0732 63.227 76.3136 62.6468 76.7414 62.2189C77.1692 61.7911 77.7495 61.5508 78.3545 61.5508H82.917C83.522 61.5508 84.1023 61.7911 84.5301 62.2189C84.9579 62.6468 85.1982 63.227 85.1982 63.832C85.1982 64.4371 84.9579 65.0173 84.5301 65.4451C84.1023 65.8729 83.522 66.1133 82.917 66.1133Z" fill="url(#paint4_linear_108_2653)"/>
<path d="M82.917 50.1445H93.0001L80.6357 37.7802V47.8633C80.6357 48.4683 80.8761 49.0485 81.3039 49.4764C81.7317 49.9042 82.312 50.1445 82.917 50.1445Z" fill="url(#paint5_linear_108_2653)"/>
<defs>
<linearGradient id="paint0_linear_108_2653" x1="0" y1="0" x2="136.485" y2="136.485" gradientUnits="userSpaceOnUse">
<stop stop-color="#28292C"/>
<stop offset="1" stop-color="#939393"/>
</linearGradient>
<linearGradient id="paint1_linear_108_2653" x1="7.37793" y1="7.37744" x2="68.2427" y2="129.107" gradientUnits="userSpaceOnUse">
<stop stop-color="#28292C"/>
<stop offset="1" stop-color="#9A9A9A"/>
</linearGradient>
<linearGradient id="paint2_linear_108_2653" x1="13.5254" y1="13.5254" x2="122.959" y2="122.959" gradientUnits="userSpaceOnUse">
<stop stop-color="#28292C"/>
<stop offset="1" stop-color="white"/>
</linearGradient>
<linearGradient id="paint3_linear_108_2653" x1="19.6738" y1="19.6733" x2="116.812" y2="116.811" gradientUnits="userSpaceOnUse">
<stop stop-color="#FF8181"/>
<stop offset="0.52" stop-color="#F5BA79"/>
<stop offset="1" stop-color="#6A94FF"/>
</linearGradient>
<linearGradient id="paint4_linear_108_2653" x1="69.2295" y1="36.457" x2="69.2295" y2="100.332" gradientUnits="userSpaceOnUse">
<stop/>
<stop offset="1" stop-color="#1E1E1E"/>
</linearGradient>
<linearGradient id="paint5_linear_108_2653" x1="86.8179" y1="37.7802" x2="86.8179" y2="50.1445" gradientUnits="userSpaceOnUse">
<stop/>
<stop offset="1" stop-color="#1E1E1E"/>
</linearGradient>
</defs>
</svg>
