<svg width="137" height="137" viewBox="0 0 137 137" fill="none" xmlns="http://www.w3.org/2000/svg">
<rect x="0.614796" y="0.614796" width="135.255" height="135.255" rx="17.8291" stroke="url(#paint0_linear_108_2671)" stroke-width="1.22959"/>
<rect x="7.99273" y="7.99236" width="120.5" height="120.5" rx="14.1403" stroke="url(#paint1_linear_108_2671)" stroke-width="1.22959"/>
<rect x="14.1402" y="14.1403" width="108.204" height="108.204" rx="11.6811" stroke="url(#paint2_linear_108_2671)" stroke-width="1.22959"/>
<rect x="19.6738" y="19.6735" width="97.1378" height="97.1378" rx="9.83673" fill="url(#paint3_linear_108_2671)"/>
<path d="M101.243 76.8478C100.566 72.8793 98.3478 70.2322 94.3666 69.1892C91.9679 68.5621 89.5496 68.5425 87.1149 68.8838C82.6999 69.5052 79.3739 72.4164 78.3203 76.6496C77.588 79.5826 77.6541 82.5419 78.2738 85.487C79.0632 89.2288 81.2136 91.6952 84.9983 92.6346C87.8736 93.3474 90.7637 93.2312 93.8092 92.8882C93.7252 91.849 93.6502 90.9148 93.5735 89.9553C91.4141 89.9553 89.3493 90.1302 87.3278 89.9141C84.3632 89.5944 82.375 87.9048 81.6052 84.9454C81.0588 82.8484 80.9336 80.7143 81.2892 78.5797C81.8392 75.2632 83.5326 72.8412 86.9083 71.9177C89.1015 71.3174 91.3143 71.3766 93.508 72.0054C95.4852 72.5734 96.8462 73.8129 97.475 75.7631C98.295 78.3172 98.1787 80.9267 97.7037 83.522C97.5431 84.3917 96.8821 84.8471 96.1947 84.7383C95.3573 84.6041 95.2141 83.9579 95.1961 83.2737C95.1301 80.8374 95.0836 78.3996 95.0334 75.9617C95.0297 75.8101 95.0286 75.659 95.0292 75.5042C95.0292 75.1343 94.728 74.8147 94.3587 74.7967C93.9381 74.7766 93.4642 74.7359 93.3971 74.7343C91.8564 74.69 90.3141 74.5758 88.7723 74.5785C87.5661 74.5801 86.3255 74.8812 85.5377 75.8603C84.9476 76.5942 84.6511 77.5246 84.5043 78.4424C84.2454 80.0607 84.2417 81.7731 84.4488 83.4021C84.9719 87.5117 88.4923 88.2672 91.3359 86.9796C91.9002 86.7244 92.4397 86.4132 92.9791 86.1332C96.628 89.0032 100.438 87.5265 101.291 82.9593C101.674 80.9124 101.586 78.8677 101.243 76.8478ZM91.1938 84.145C90.6802 84.4017 90.0769 84.5671 89.4994 84.5058C88.4844 84.3975 88.1415 83.3815 87.9624 82.5202C87.8134 81.8033 87.7748 81.0657 87.8276 80.336C87.8762 79.6661 87.8921 78.7552 88.3364 78.2099C88.784 77.6609 89.6542 77.373 90.3368 77.3296C90.6908 77.3069 91.0866 77.3492 91.3719 77.5806C91.9642 78.0604 91.7787 79.3031 91.774 79.9683C91.7692 80.6277 91.7502 81.2876 91.7655 81.947C91.7856 82.7681 92.1015 83.6911 91.1938 84.145Z" fill="url(#paint4_linear_108_2671)"/>
<path d="M94.5877 44.8445C93.9389 43.8919 91.3964 43.9722 90.439 43.9146C88.4392 43.8 86.4499 43.9373 84.4501 43.9262C81.2693 43.9146 78.0891 43.9146 74.9084 43.9146C72.5044 43.9146 70.1003 43.903 67.6963 43.903C65.2923 43.903 62.8882 43.9146 60.4842 43.9146C57.3035 43.9146 54.1233 43.9146 50.9426 43.9262C48.9427 43.9379 46.9535 43.8 44.9536 43.9146C43.9962 43.9722 41.4538 43.8919 40.8049 44.8445C40.6559 45.0627 40.741 45.3724 41.2625 45.8204C48.9533 52.5929 56.6441 59.3776 64.3455 66.1274C64.356 66.1369 64.3671 66.1464 64.3777 66.1554C66.2914 67.8155 69.1007 67.8155 71.0149 66.1554C71.0255 66.1459 71.0366 66.1369 71.0472 66.1274C78.7485 59.3776 86.4393 52.5934 94.1301 45.8204C94.6516 45.3729 94.7367 45.0627 94.5877 44.8445Z" fill="url(#paint5_linear_108_2671)"/>
<path d="M99.8572 52.9876V68.1378C98.5511 67.145 96.9945 66.4244 95.2076 65.9541C92.5748 65.2646 89.7428 65.1389 86.6503 65.5779C80.8933 66.3826 76.4525 70.311 75.0734 75.8381C74.2582 79.0875 74.2376 82.5668 75.0005 86.1824C75.0734 86.5686 75.1781 86.9453 75.2827 87.3104H67.697C59.9861 87.3104 52.2647 87.3104 44.5432 87.2998C38.8386 87.2998 35.5469 83.7371 35.5469 77.5622V52.9876C35.5469 50.9397 36.0377 49.0905 37.208 47.4288C37.5108 47.9619 37.9393 48.4739 38.5036 48.9542L43.2889 53.1752C49.3915 58.546 55.4829 63.9168 61.6373 69.3076C63.3301 70.7706 65.4716 71.5748 67.6975 71.5748C69.9124 71.5748 72.065 70.7706 73.7996 69.2659C79.9116 63.9162 86.0136 58.546 92.1157 53.1646L96.8593 48.9853C97.4341 48.4839 97.8727 47.9614 98.176 47.4182C99.3558 49.0905 99.8572 50.9397 99.8572 52.9876Z" fill="url(#paint6_linear_108_2671)"/>
<defs>
<linearGradient id="paint0_linear_108_2671" x1="0" y1="0" x2="136.485" y2="136.485" gradientUnits="userSpaceOnUse">
<stop stop-color="#28292C"/>
<stop offset="1" stop-color="#939393"/>
</linearGradient>
<linearGradient id="paint1_linear_108_2671" x1="7.37793" y1="7.37756" x2="68.2427" y2="129.107" gradientUnits="userSpaceOnUse">
<stop stop-color="#28292C"/>
<stop offset="1" stop-color="#9A9A9A"/>
</linearGradient>
<linearGradient id="paint2_linear_108_2671" x1="13.5254" y1="13.5255" x2="122.959" y2="122.959" gradientUnits="userSpaceOnUse">
<stop stop-color="#28292C"/>
<stop offset="1" stop-color="white"/>
</linearGradient>
<linearGradient id="paint3_linear_108_2671" x1="19.6738" y1="19.6735" x2="116.812" y2="116.811" gradientUnits="userSpaceOnUse">
<stop stop-color="#FF8181"/>
<stop offset="0.52" stop-color="#F5BA79"/>
<stop offset="1" stop-color="#6A94FF"/>
</linearGradient>
<linearGradient id="paint4_linear_108_2671" x1="89.6658" y1="68.663" x2="89.6658" y2="93.159" gradientUnits="userSpaceOnUse">
<stop/>
<stop offset="1" stop-color="#191919"/>
</linearGradient>
<linearGradient id="paint5_linear_108_2671" x1="67.6963" y1="43.8687" x2="67.6963" y2="67.4004" gradientUnits="userSpaceOnUse">
<stop/>
<stop offset="1" stop-color="#191919"/>
</linearGradient>
<linearGradient id="paint6_linear_108_2671" x1="67.702" y1="47.4182" x2="67.702" y2="87.3104" gradientUnits="userSpaceOnUse">
<stop/>
<stop offset="1" stop-color="#191919"/>
</linearGradient>
</defs>
</svg>
