<svg width="230" height="135" viewBox="0 0 230 135" fill="none" xmlns="http://www.w3.org/2000/svg">
<ellipse cx="1.4921" cy="1.4921" rx="1.4921" ry="1.4921" transform="matrix(-1 0 0 1 229.784 23.874)" fill="#353535"/>
<ellipse cx="1.4921" cy="1.4921" rx="1.4921" ry="1.4921" transform="matrix(-1 0 0 1 217.847 23.874)" fill="#353535"/>
<ellipse cx="1.4921" cy="1.4921" rx="1.4921" ry="1.4921" transform="matrix(-1 0 0 1 217.847 11.9375)" fill="#353535"/>
<ellipse cx="1.4921" cy="1.4921" rx="1.4921" ry="1.4921" transform="matrix(-1 0 0 1 217.847 35.8096)" fill="#FF8181"/>
<ellipse cx="1.4921" cy="1.4921" rx="1.4921" ry="1.4921" transform="matrix(-1 0 0 1 217.847 59.6836)" fill="#353535"/>
<ellipse cx="1.4921" cy="1.4921" rx="1.4921" ry="1.4921" transform="matrix(-1 0 0 1 217.847 71.6211)" fill="#FF8181"/>
<ellipse cx="1.4921" cy="1.4921" rx="1.4921" ry="1.4921" transform="matrix(-1 0 0 1 217.847 107.431)" fill="#353535"/>
<ellipse cx="1.4921" cy="1.4921" rx="1.4921" ry="1.4921" transform="matrix(-1 0 0 1 205.911 107.431)" fill="#353535"/>
<ellipse cx="1.4921" cy="1.4921" rx="1.4921" ry="1.4921" transform="matrix(-1 0 0 1 205.911 83.5586)" fill="#353535"/>
<ellipse cx="1.4921" cy="1.4921" rx="1.4921" ry="1.4921" transform="matrix(-1 0 0 1 205.911 47.7471)" fill="#FF8181"/>
<ellipse cx="1.4921" cy="1.4921" rx="1.4921" ry="1.4921" transform="matrix(-1 0 0 1 193.974 35.8096)" fill="#353535"/>
<ellipse cx="1.4921" cy="1.4921" rx="1.4921" ry="1.4921" transform="matrix(-1 0 0 1 193.974 95.4961)" fill="#353535"/>
<ellipse cx="1.4921" cy="1.4921" rx="1.4921" ry="1.4921" transform="matrix(-1 0 0 1 193.974 107.431)" fill="#FF8181"/>
<ellipse cx="1.4921" cy="1.4921" rx="1.4921" ry="1.4921" transform="matrix(-1 0 0 1 182.037 83.5586)" fill="#353535"/>
<ellipse cx="1.4921" cy="1.4921" rx="1.4921" ry="1.4921" transform="matrix(-1 0 0 1 182.037 71.6211)" fill="#FF8181"/>
<ellipse cx="1.4921" cy="1.4921" rx="1.4921" ry="1.4921" transform="matrix(-1 0 0 1 182.037 23.874)" fill="#353535"/>
<ellipse cx="1.4921" cy="1.4921" rx="1.4921" ry="1.4921" transform="matrix(-1 0 0 1 182.037 0)" fill="#FF8181"/>
<ellipse cx="1.4921" cy="1.4921" rx="1.4921" ry="1.4921" transform="matrix(-1 0 0 1 170.1 83.5586)" fill="#353535"/>
<ellipse cx="1.4921" cy="1.4921" rx="1.4921" ry="1.4921" transform="matrix(-1 0 0 1 158.163 83.5586)" fill="#6A94FF"/>
<ellipse cx="1.4921" cy="1.4921" rx="1.4921" ry="1.4921" transform="matrix(-1 0 0 1 158.163 107.431)" fill="#353535"/>
<ellipse cx="1.4921" cy="1.4921" rx="1.4921" ry="1.4921" transform="matrix(-1 0 0 1 146.227 107.431)" fill="#6A94FF"/>
<ellipse cx="1.4921" cy="1.4921" rx="1.4921" ry="1.4921" transform="matrix(-1 0 0 1 146.227 95.4961)" fill="#353535"/>
<ellipse cx="1.4921" cy="1.4921" rx="1.4921" ry="1.4921" transform="matrix(-1 0 0 1 146.227 131.306)" fill="#353535"/>
<ellipse cx="1.4921" cy="1.4921" rx="1.4921" ry="1.4921" transform="matrix(-1 0 0 1 134.29 131.306)" fill="#353535"/>
<ellipse cx="1.4921" cy="1.4921" rx="1.4921" ry="1.4921" transform="matrix(-1 0 0 1 122.353 131.306)" fill="#353535"/>
<ellipse cx="1.4921" cy="1.4921" rx="1.4921" ry="1.4921" transform="matrix(-1 0 0 1 98.479 131.306)" fill="#6A94FF"/>
<ellipse cx="1.4921" cy="1.4921" rx="1.4921" ry="1.4921" transform="matrix(-1 0 0 1 62.6685 131.306)" fill="#6A94FF"/>
<ellipse cx="1.4921" cy="1.4921" rx="1.4921" ry="1.4921" transform="matrix(-1 0 0 1 50.7314 131.306)" fill="#353535"/>
<ellipse cx="1.4921" cy="1.4921" rx="1.4921" ry="1.4921" transform="matrix(-1 0 0 1 50.7314 107.431)" fill="#353535"/>
<ellipse cx="1.4921" cy="1.4921" rx="1.4921" ry="1.4921" transform="matrix(-1 0 0 1 62.6685 95.4961)" fill="#6A94FF"/>
<ellipse cx="1.4921" cy="1.4921" rx="1.4921" ry="1.4921" transform="matrix(-1 0 0 1 74.6055 95.4961)" fill="#353535"/>
<ellipse cx="1.4921" cy="1.4921" rx="1.4921" ry="1.4921" transform="matrix(-1 0 0 1 74.6055 83.5586)" fill="#353535"/>
<ellipse cx="1.4921" cy="1.4921" rx="1.4921" ry="1.4921" transform="matrix(-1 0 0 1 98.479 71.6211)" fill="#353535"/>
<ellipse cx="1.4921" cy="1.4921" rx="1.4921" ry="1.4921" transform="matrix(-1 0 0 1 110.416 71.6211)" fill="#6A94FF"/>
<ellipse cx="1.4921" cy="1.4921" rx="1.4921" ry="1.4921" transform="matrix(-1 0 0 1 26.8579 107.431)" fill="#353535"/>
<ellipse cx="1.4921" cy="1.4921" rx="1.4921" ry="1.4921" transform="matrix(-1 0 0 1 26.8579 119.368)" fill="#6A94FF"/>
<ellipse cx="1.4921" cy="1.4921" rx="1.4921" ry="1.4921" transform="matrix(-1 0 0 1 14.9209 107.431)" fill="#353535"/>
<ellipse cx="1.4921" cy="1.4921" rx="1.4921" ry="1.4921" transform="matrix(-1 0 0 1 2.98438 95.4961)" fill="#353535"/>
</svg>
