<svg width="1083" height="496" viewBox="0 0 1083 496" fill="none" xmlns="http://www.w3.org/2000/svg">
<circle cx="1018" cy="447" r="1" fill="#353535"/>
<circle cx="1042" cy="447" r="1" fill="#353535"/>
<circle cx="1058" cy="447" r="1" fill="#353535"/>
<circle cx="1066" cy="447" r="1" fill="#FF8181"/>
<circle cx="1074" cy="447" r="1" fill="#353535"/>
<circle cx="1066" cy="439" r="1" fill="#353535"/>
<circle cx="1050" cy="439" r="1" fill="#FF8181"/>
<circle cx="1058" cy="423" r="1" fill="#353535"/>
<circle cx="1066" cy="431" r="1" fill="#353535"/>
<circle cx="1074" cy="431" r="1" fill="#F5BA79"/>
<circle cx="1074" cy="415" r="1" fill="#353535"/>
<circle cx="1082" cy="415" r="1" fill="#353535"/>
<circle cx="1074" cy="407" r="1" fill="#353535"/>
<circle cx="1074" cy="455" r="1" fill="#353535"/>
<circle cx="1082" cy="455" r="1" fill="#353535"/>
<circle cx="1074" cy="471" r="1" fill="#353535"/>
<circle cx="1066" cy="471" r="1" fill="#353535"/>
<circle cx="1066" cy="479" r="1" fill="#353535"/>
<circle cx="1066" cy="487" r="1" fill="#353535"/>
<circle cx="1058" cy="463" r="1" fill="#F5BA79"/>
<circle cx="1050" cy="463" r="1" fill="#353535"/>
<circle cx="1026" cy="463" r="1" fill="#FF8181"/>
<circle cx="1034" cy="471" r="1" fill="#353535"/>
<circle cx="1042" cy="471" r="1" fill="#353535"/>
<circle cx="1042" cy="479" r="1" fill="#FF8181"/>
<circle cx="1034" cy="479" r="1" fill="#353535"/>
<circle cx="1050" cy="479" r="1" fill="#353535"/>
<circle cx="1050" cy="495" r="1" fill="#353535"/>
<circle cx="1042" cy="495" r="1" fill="#F5BA79"/>
<circle cx="1034" cy="495" r="1" fill="#353535"/>
<circle cx="1042" cy="487" r="1" fill="#353535"/>
<circle cx="1" cy="41" r="1" fill="#353535"/>
<circle cx="25" cy="41" r="1" fill="#F5BA79"/>
<circle cx="41" cy="41" r="1" fill="#353535"/>
<circle cx="49" cy="41" r="1" fill="#F5BA79"/>
<circle cx="57" cy="41" r="1" fill="#353535"/>
<circle cx="49" cy="33" r="1" fill="#F5BA79"/>
<circle cx="33" cy="33" r="1" fill="#353535"/>
<circle cx="41" cy="17" r="1" fill="#F5BA79"/>
<circle cx="49" cy="25" r="1" fill="#353535"/>
<circle cx="57" cy="25" r="1" fill="#353535"/>
<circle cx="57" cy="9" r="1" fill="#F5BA79"/>
<circle cx="65" cy="9" r="1" fill="#353535"/>
<circle cx="57" cy="1" r="1" fill="#353535"/>
<circle cx="57" cy="49" r="1" fill="#353535"/>
<circle cx="65" cy="49" r="1" fill="#353535"/>
<circle cx="57" cy="65" r="1" fill="#353535"/>
<circle cx="49" cy="65" r="1" fill="#353535"/>
<circle cx="49" cy="73" r="1" fill="#353535"/>
<circle cx="49" cy="81" r="1" fill="#353535"/>
<circle cx="41" cy="57" r="1" fill="#353535"/>
<circle cx="33" cy="57" r="1" fill="#353535"/>
<circle cx="9" cy="57" r="1" fill="#6A94FF"/>
<circle cx="17" cy="65" r="1" fill="#6A94FF"/>
<circle cx="25" cy="65" r="1" fill="#353535"/>
<circle cx="25" cy="73" r="1" fill="#353535"/>
<circle cx="17" cy="73" r="1" fill="#353535"/>
<circle cx="33" cy="73" r="1" fill="#353535"/>
<circle cx="33" cy="89" r="1" fill="#353535"/>
<circle cx="25" cy="89" r="1" fill="#353535"/>
<circle cx="17" cy="89" r="1" fill="#6A94FF"/>
<circle cx="25" cy="81" r="1" fill="#6A94FF"/>
</svg>
