<svg width="643" height="629" viewBox="0 0 643 629" fill="none" xmlns="http://www.w3.org/2000/svg">
<circle cx="321.292" cy="314.862" r="200.03" transform="rotate(90 321.292 314.862)" stroke="url(#paint0_linear_108_570)" stroke-width="0.569886"/>
<circle cx="321.292" cy="314.292" r="171.536" transform="rotate(90 321.292 314.292)" stroke="url(#paint1_linear_108_570)" stroke-width="0.569886"/>
<circle cx="321.292" cy="313.722" r="228.524" transform="rotate(90 321.292 313.722)" stroke="url(#paint2_linear_108_570)" stroke-width="0.569886"/>
<rect x="264.588" y="57.5586" width="113.977" height="113.977" rx="56.9886" fill="black"/>
<rect x="275.986" y="68.9563" width="91.1817" height="91.1817" rx="45.5909" fill="url(#paint3_linear_108_570)"/>
<rect x="276.778" y="69.7482" width="89.5979" height="89.5979" rx="44.799" stroke="#E2E8FF" stroke-opacity="0.08" stroke-width="1.58381"/>
<path d="M303.661 97.9314H319.262C319.607 97.9314 319.937 97.7944 320.181 97.5506C320.425 97.3068 320.562 96.9761 320.562 96.6314C320.562 96.2866 320.425 95.9559 320.181 95.7121C319.937 95.4683 319.607 95.3313 319.262 95.3313H303.661C303.317 95.3313 302.986 95.4683 302.742 95.7121C302.498 95.9559 302.361 96.2866 302.361 96.6314C302.361 96.9761 302.498 97.3068 302.742 97.5506C302.986 97.7944 303.317 97.9314 303.661 97.9314Z" fill="white"/>
<path d="M303.661 103.131H312.762C313.107 103.131 313.437 102.994 313.681 102.751C313.925 102.507 314.062 102.176 314.062 101.831C314.062 101.487 313.925 101.156 313.681 100.912C313.437 100.668 313.107 100.531 312.762 100.531H303.661C303.317 100.531 302.986 100.668 302.742 100.912C302.498 101.156 302.361 101.487 302.361 101.831C302.361 102.176 302.498 102.507 302.742 102.751C302.986 102.994 303.317 103.131 303.661 103.131Z" fill="white"/>
<path d="M340.063 131.733H337.463V126.533C337.463 126.188 337.326 125.857 337.082 125.613C336.838 125.369 336.507 125.232 336.163 125.232H330.962C330.618 125.232 330.287 125.369 330.043 125.613C329.799 125.857 329.662 126.188 329.662 126.533V131.733H325.762V121.332C325.762 120.988 325.625 120.657 325.381 120.413C325.138 120.169 324.807 120.032 324.462 120.032H319.262C318.917 120.032 318.587 120.169 318.343 120.413C318.099 120.657 317.962 120.988 317.962 121.332V131.733H314.062V110.932C314.062 110.587 313.925 110.256 313.681 110.013C313.437 109.769 313.107 109.632 312.762 109.632H307.562C307.217 109.632 306.886 109.769 306.642 110.013C306.398 110.256 306.261 110.587 306.261 110.932V131.733H303.661C303.317 131.733 302.986 131.87 302.742 132.113C302.498 132.357 302.361 132.688 302.361 133.033C302.361 133.378 302.498 133.708 302.742 133.952C302.986 134.196 303.317 134.333 303.661 134.333H340.063C340.408 134.333 340.738 134.196 340.982 133.952C341.226 133.708 341.363 133.378 341.363 133.033C341.363 132.688 341.226 132.357 340.982 132.113C340.738 131.87 340.408 131.733 340.063 131.733ZM332.263 127.833H334.863V131.733H332.263V127.833ZM320.562 122.632H323.162V131.733H320.562V122.632ZM308.862 112.232H311.462V131.733H308.862V112.232Z" fill="white"/>
<path d="M335.59 106.889H331.534C331.077 106.885 330.639 106.702 330.315 106.379C329.992 106.055 329.809 105.617 329.805 105.16V101.103C329.805 100.802 329.686 100.513 329.475 100.299C329.263 100.085 328.975 99.9629 328.674 99.9594C327.466 99.9507 326.271 100.215 325.179 100.733C324.088 101.251 323.127 102.008 322.369 102.95C321.532 103.986 320.961 105.211 320.707 106.519C320.454 107.827 320.524 109.177 320.913 110.451C321.297 111.731 321.997 112.895 322.949 113.833C323.901 114.771 325.074 115.455 326.36 115.82C327.101 116.026 327.866 116.131 328.635 116.132C329.7 116.134 330.755 115.925 331.74 115.518C332.724 115.111 333.618 114.513 334.371 113.759C335.123 113.005 335.72 112.11 336.125 111.125C336.531 110.14 336.738 109.085 336.735 108.02C336.731 107.719 336.609 107.431 336.395 107.219C336.181 107.007 335.892 106.889 335.59 106.889Z" fill="white"/>
<path d="M333.277 95.3313C332.97 95.3313 332.676 95.4532 332.459 95.6702C332.242 95.8872 332.12 96.1815 332.12 96.4883V102.859C332.12 104.068 332.627 104.575 333.264 104.575H340.206C340.513 104.575 340.807 104.453 341.024 104.236C341.241 104.019 341.363 103.724 341.363 103.418C341.36 101.274 340.507 99.2193 338.991 97.7035C337.475 96.1878 335.42 95.3347 333.277 95.3313Z" fill="white"/>
<rect x="437.834" y="158.428" width="113.977" height="113.977" rx="56.9886" fill="black"/>
<rect x="449.231" y="169.826" width="91.1817" height="91.1817" rx="45.5909" fill="url(#paint4_linear_108_570)"/>
<rect x="450.023" y="170.618" width="89.5979" height="89.5979" rx="44.799" stroke="#E2E8FF" stroke-opacity="0.08" stroke-width="1.58381"/>
<path d="M510.926 198.872H478.149C476.384 198.872 474.997 200.259 474.997 202.024V229.317C474.997 231.082 476.384 232.469 478.149 232.469H510.926C512.691 232.469 514.077 231.082 514.077 229.317V202.087C514.077 200.322 512.691 198.872 510.926 198.872ZM512.817 229.38C512.817 230.452 511.997 231.271 510.926 231.271H478.149C477.077 231.271 476.258 230.452 476.258 229.38V202.087C476.258 201.015 477.077 200.196 478.149 200.196H510.926C511.997 200.196 512.817 201.015 512.817 202.087V229.38Z" fill="white"/>
<path d="M508.594 205.869C509.638 205.869 510.485 205.022 510.485 203.978C510.485 202.933 509.638 202.087 508.594 202.087C507.549 202.087 506.703 202.933 506.703 203.978C506.703 205.022 507.549 205.869 508.594 205.869Z" fill="white"/>
<path d="M503.173 205.869C504.217 205.869 505.064 205.022 505.064 203.978C505.064 202.933 504.217 202.087 503.173 202.087C502.128 202.087 501.282 202.933 501.282 203.978C501.282 205.022 502.128 205.869 503.173 205.869Z" fill="white"/>
<path d="M497.752 205.869C498.796 205.869 499.643 205.022 499.643 203.978C499.643 202.933 498.796 202.087 497.752 202.087C496.707 202.087 495.861 202.933 495.861 203.978C495.861 205.022 496.707 205.869 497.752 205.869Z" fill="white"/>
<path d="M479.599 204.608H492.52C492.835 204.608 493.151 204.356 493.151 203.978C493.151 203.6 492.835 203.347 492.52 203.347H479.599C479.22 203.347 478.968 203.6 478.968 203.978C478.968 204.356 479.22 204.608 479.599 204.608Z" fill="white"/>
<path d="M489.179 209.02C489.179 210.722 487.792 212.109 486.028 212.109C484.326 212.109 482.939 210.722 482.939 209.02C482.939 207.319 484.326 205.932 486.028 205.932C487.792 205.932 489.179 207.319 489.179 209.02Z" fill="white"/>
<path d="M492.394 221.564C491.638 222.509 490.503 223.077 489.306 223.077H482.75C481.237 223.077 479.914 222.257 479.283 220.87C478.842 220.051 478.779 219.106 478.968 218.223L479.22 217.278C479.22 217.278 479.22 217.278 479.22 217.215L479.851 214.63C480.166 213.37 481.3 212.487 482.624 212.487H482.813C484.956 213.18 487.162 213.18 489.306 212.487H489.495C490.818 212.487 491.953 213.37 492.268 214.63L493.151 218.16C493.403 219.421 493.151 220.618 492.394 221.564Z" fill="white"/>
<path d="M493.403 224.274H479.283C478.905 224.274 478.653 224.527 478.653 224.905V228.687C478.653 229.002 478.905 229.317 479.283 229.317H493.403C493.718 229.317 494.033 229.002 494.033 228.687V224.905C494.033 224.59 493.718 224.274 493.403 224.274ZM481.552 227.426H481.048C480.67 227.426 480.418 227.111 480.418 226.796C480.418 226.418 480.67 226.165 481.048 226.165H481.552C481.931 226.165 482.183 226.418 482.183 226.796C482.183 227.174 481.868 227.426 481.552 227.426ZM483.758 227.426H483.191C482.813 227.426 482.561 227.111 482.561 226.796C482.561 226.418 482.813 226.165 483.191 226.165H483.695C484.074 226.165 484.326 226.418 484.326 226.796C484.389 227.174 484.074 227.426 483.758 227.426ZM485.902 227.426H485.397C485.082 227.426 484.767 227.111 484.767 226.796C484.767 226.418 485.082 226.165 485.397 226.165H485.902C486.217 226.165 486.532 226.418 486.532 226.796C486.532 227.174 486.28 227.426 485.902 227.426Z" fill="white"/>
<path d="M509.161 208.39H497.563C497.248 208.39 496.933 208.705 496.933 209.02C496.933 209.335 497.248 209.651 497.563 209.651H509.161C509.476 209.651 509.791 209.335 509.791 209.02C509.791 208.705 509.539 208.39 509.161 208.39Z" fill="white"/>
<path d="M509.161 211.605H497.563C497.248 211.605 496.933 211.92 496.933 212.235C496.933 212.55 497.248 212.865 497.563 212.865H509.161C509.476 212.865 509.791 212.55 509.791 212.235C509.791 211.92 509.539 211.605 509.161 211.605Z" fill="white"/>
<path d="M509.161 214.819H497.563C497.248 214.819 496.933 215.134 496.933 215.45C496.933 215.765 497.248 216.08 497.563 216.08H509.161C509.476 216.08 509.791 215.765 509.791 215.45C509.791 215.134 509.539 214.819 509.161 214.819Z" fill="white"/>
<path d="M509.161 218.097H497.563C497.248 218.097 496.933 218.412 496.933 218.727C496.933 219.043 497.248 219.358 497.563 219.358H509.161C509.476 219.358 509.791 219.043 509.791 218.727C509.791 218.412 509.539 218.097 509.161 218.097Z" fill="white"/>
<path d="M509.161 221.312H497.563C497.248 221.312 496.933 221.627 496.933 221.942C496.933 222.257 497.248 222.572 497.563 222.572H509.161C509.476 222.572 509.791 222.257 509.791 221.942C509.791 221.627 509.539 221.312 509.161 221.312Z" fill="white"/>
<path d="M509.161 224.526H497.563C497.248 224.526 496.933 224.842 496.933 225.157C496.933 225.472 497.248 225.787 497.563 225.787H509.161C509.476 225.787 509.791 225.472 509.791 225.157C509.791 224.842 509.539 224.526 509.161 224.526Z" fill="white"/>
<path d="M509.161 227.741H497.563C497.248 227.741 496.933 228.056 496.933 228.371C496.933 228.686 497.248 229.002 497.563 229.002H509.161C509.476 229.002 509.791 228.686 509.791 228.371C509.791 228.056 509.539 227.741 509.161 227.741Z" fill="white"/>
<rect x="437.834" y="355.609" width="113.977" height="113.977" rx="56.9886" fill="black"/>
<rect x="449.231" y="367.007" width="91.1817" height="91.1817" rx="45.5909" fill="url(#paint5_linear_108_570)"/>
<rect x="450.023" y="367.798" width="89.5979" height="89.5979" rx="44.799" stroke="#E2E8FF" stroke-opacity="0.08" stroke-width="1.58381"/>
<path fill-rule="evenodd" clip-rule="evenodd" d="M511.534 406.382V427.183C511.534 428.218 511.124 429.21 510.392 429.94C509.66 430.672 508.668 431.083 507.633 431.083H486.826C485.791 431.083 484.799 430.672 484.067 429.94C483.335 429.21 482.925 428.218 482.925 427.183V417.911C483.558 418.024 484.21 418.083 484.875 418.083C490.976 418.083 495.929 413.131 495.929 407.032C495.929 400.934 490.976 395.982 484.875 395.982C484.539 395.982 484.206 395.997 483.879 396.026C484.595 395.203 485.65 394.682 486.826 394.682H499.83V402.482C499.83 403.517 500.241 404.509 500.973 405.239C501.705 405.971 502.697 406.382 503.732 406.382H511.534ZM490.727 424.583V423.283C490.727 422.565 490.144 421.983 489.427 421.983C488.71 421.983 488.126 422.565 488.126 423.283V424.583C488.126 425.3 488.71 425.883 489.427 425.883C490.144 425.883 490.727 425.3 490.727 424.583ZM495.929 424.583V419.383C495.929 418.665 495.346 418.083 494.629 418.083C493.911 418.083 493.328 418.665 493.328 419.383V424.583C493.328 425.3 493.911 425.883 494.629 425.883C495.346 425.883 495.929 425.3 495.929 424.583ZM501.131 424.583V420.683C501.131 419.965 500.547 419.383 499.83 419.383C499.113 419.383 498.53 419.965 498.53 420.683V424.583C498.53 425.3 499.113 425.883 499.83 425.883C500.547 425.883 501.131 425.3 501.131 424.583ZM506.333 424.583V415.482C506.333 414.765 505.749 414.182 505.032 414.182C504.315 414.182 503.732 414.765 503.732 415.482V424.583C503.732 425.3 504.315 425.883 505.032 425.883C505.749 425.883 506.333 425.3 506.333 424.583ZM502.431 394.706C503.366 394.813 504.237 395.255 504.876 395.958L510.52 402.163C510.942 402.629 511.243 403.184 511.402 403.782H503.732C503.386 403.782 503.055 403.645 502.812 403.401C502.569 403.158 502.431 402.826 502.431 402.482V394.706ZM493.228 408.332C492.602 412.379 489.098 415.482 484.875 415.482C480.21 415.482 476.422 411.695 476.422 407.032C476.422 402.811 479.527 399.307 483.575 398.682V405.732C483.575 407.169 484.74 408.332 486.176 408.332H493.228ZM486.176 398.682C489.8 399.242 492.669 402.109 493.228 405.732H486.176V398.682Z" fill="white"/>
<rect x="264.588" y="458.188" width="113.977" height="113.977" rx="56.9886" fill="black"/>
<rect x="275.986" y="469.586" width="91.1817" height="91.1817" rx="45.5909" fill="url(#paint6_linear_108_570)"/>
<rect x="276.778" y="470.378" width="89.5979" height="89.5979" rx="44.799" stroke="#E2E8FF" stroke-opacity="0.08" stroke-width="1.58381"/>
<path d="M319.373 498.127C312.959 498.127 307.738 503.342 307.738 509.755C307.738 519.913 318.402 532.047 318.853 532.56C318.985 532.705 319.172 532.795 319.373 532.795C319.574 532.795 319.761 532.705 319.893 532.56C319.921 532.525 320.406 531.977 321.155 531.034C320.184 530.514 319.525 529.488 319.525 528.316V520.863C319.525 519.157 320.912 517.77 322.618 517.77H323.221C323.242 516.148 324.566 514.837 326.196 514.837H330.231C330.751 513.021 331.007 511.322 331.007 509.755C331.001 503.342 325.786 498.127 319.373 498.127ZM319.366 515.538C316.176 515.538 313.583 512.945 313.583 509.755C313.583 506.566 316.176 503.972 319.366 503.972C322.555 503.972 325.149 506.559 325.149 509.755C325.149 512.952 322.562 515.538 319.366 515.538Z" fill="white"/>
<path d="M334.294 519.157H332.297V517.812C332.297 516.938 331.59 516.224 330.709 516.224H326.196C325.322 516.224 324.608 516.938 324.608 517.812V519.157H322.618C321.675 519.157 320.912 519.92 320.912 520.863V528.316C320.912 529.252 321.675 530.015 322.618 530.015H334.294C335.23 530.015 335.993 529.252 335.993 528.316V520.863C335.993 519.92 335.23 519.157 334.294 519.157ZM325.994 517.812C325.994 517.701 326.085 517.611 326.196 517.611H330.709C330.82 517.611 330.91 517.701 330.91 517.812V519.157H325.994V517.812Z" fill="white"/>
<rect x="91.3433" y="355.609" width="113.977" height="113.977" rx="56.9886" fill="black"/>
<rect x="102.741" y="367.007" width="91.1817" height="91.1817" rx="45.5909" fill="url(#paint7_linear_108_570)"/>
<rect x="103.533" y="367.798" width="89.5979" height="89.5979" rx="44.799" stroke="#E2E8FF" stroke-opacity="0.08" stroke-width="1.58381"/>
<path d="M156.418 405.082C155.383 405.082 154.391 404.671 153.66 403.94C152.929 403.208 152.518 402.216 152.518 401.182V394.682H138.217C137.183 394.682 136.191 395.093 135.459 395.824C134.728 396.555 134.317 397.547 134.317 398.582V427.183C134.317 428.217 134.728 429.209 135.459 429.941C136.191 430.672 137.183 431.083 138.217 431.083H159.018C160.052 431.083 161.044 430.672 161.776 429.941C162.507 429.209 162.918 428.217 162.918 427.183V405.082H156.418ZM144.717 401.182C145.489 401.182 146.243 401.411 146.884 401.839C147.525 402.268 148.025 402.877 148.321 403.59C148.616 404.302 148.693 405.086 148.543 405.843C148.392 406.599 148.021 407.294 147.475 407.84C146.93 408.385 146.235 408.757 145.478 408.907C144.722 409.058 143.937 408.981 143.225 408.685C142.512 408.39 141.903 407.89 141.474 407.249C141.046 406.607 140.817 405.853 140.817 405.082C140.817 404.048 141.228 403.056 141.959 402.324C142.691 401.593 143.683 401.182 144.717 401.182ZM139.517 414.182C139.517 413.148 139.928 412.156 140.659 411.425C141.391 410.693 142.383 410.282 143.417 410.282H146.017C147.052 410.282 148.044 410.693 148.775 411.425C149.507 412.156 149.918 413.148 149.918 414.182V416.783C149.918 417.127 149.781 417.458 149.537 417.702C149.293 417.946 148.962 418.083 148.617 418.083H140.817C140.472 418.083 140.142 417.946 139.898 417.702C139.654 417.458 139.517 417.127 139.517 416.783V414.182ZM156.418 424.583H140.817C140.472 424.583 140.142 424.446 139.898 424.202C139.654 423.958 139.517 423.628 139.517 423.283C139.517 422.938 139.654 422.607 139.898 422.364C140.142 422.12 140.472 421.983 140.817 421.983H156.418C156.763 421.983 157.093 422.12 157.337 422.364C157.581 422.607 157.718 422.938 157.718 423.283C157.718 423.628 157.581 423.958 157.337 424.202C157.093 424.446 156.763 424.583 156.418 424.583ZM156.418 418.083H153.818C153.473 418.083 153.142 417.946 152.898 417.702C152.655 417.458 152.518 417.127 152.518 416.783C152.518 416.438 152.655 416.107 152.898 415.863C153.142 415.619 153.473 415.482 153.818 415.482H156.418C156.763 415.482 157.093 415.619 157.337 415.863C157.581 416.107 157.718 416.438 157.718 416.783C157.718 417.127 157.581 417.458 157.337 417.702C157.093 417.946 156.763 418.083 156.418 418.083ZM156.418 411.582H153.818C153.473 411.582 153.142 411.445 152.898 411.202C152.655 410.958 152.518 410.627 152.518 410.282C152.518 409.937 152.655 409.607 152.898 409.363C153.142 409.119 153.473 408.982 153.818 408.982H156.418C156.763 408.982 157.093 409.119 157.337 409.363C157.581 409.607 157.718 409.937 157.718 410.282C157.718 410.627 157.581 410.958 157.337 411.202C157.093 411.445 156.763 411.582 156.418 411.582Z" fill="white"/>
<path d="M156.418 402.482H162.164L155.118 395.436V401.182C155.118 401.527 155.255 401.857 155.498 402.101C155.742 402.345 156.073 402.482 156.418 402.482Z" fill="white"/>
<rect x="91.3433" y="158.428" width="113.977" height="113.977" rx="56.9886" fill="black"/>
<rect x="102.741" y="169.826" width="91.1817" height="91.1817" rx="45.5909" fill="url(#paint8_linear_108_570)"/>
<rect x="103.533" y="170.618" width="89.5979" height="89.5979" rx="44.799" stroke="#E2E8FF" stroke-opacity="0.08" stroke-width="1.58381"/>
<path d="M168.732 220.828C168.315 218.387 166.951 216.759 164.502 216.117C163.026 215.731 161.538 215.719 160.041 215.929C157.325 216.312 155.279 218.102 154.631 220.706C154.18 222.511 154.221 224.331 154.602 226.143C155.088 228.444 156.411 229.961 158.739 230.539C160.507 230.978 162.285 230.906 164.159 230.695C164.107 230.056 164.061 229.481 164.014 228.891C162.685 228.891 161.415 228.999 160.172 228.866C158.348 228.669 157.125 227.63 156.652 225.809C156.315 224.519 156.238 223.207 156.457 221.894C156.795 219.854 157.837 218.364 159.914 217.796C161.263 217.426 162.624 217.463 163.973 217.849C165.19 218.199 166.027 218.961 166.414 220.161C166.918 221.732 166.847 223.337 166.554 224.934C166.456 225.469 166.049 225.749 165.626 225.682C165.111 225.599 165.023 225.202 165.012 224.781C164.971 223.282 164.943 221.783 164.912 220.283C164.909 220.19 164.909 220.097 164.909 220.002C164.909 219.774 164.724 219.578 164.497 219.567C164.238 219.554 163.946 219.529 163.905 219.528C162.957 219.501 162.009 219.431 161.06 219.432C160.318 219.433 159.555 219.619 159.071 220.221C158.708 220.672 158.525 221.245 158.435 221.809C158.276 222.805 158.273 223.858 158.401 224.86C158.722 227.388 160.888 227.853 162.637 227.061C162.984 226.904 163.316 226.712 163.648 226.54C165.893 228.305 168.236 227.397 168.761 224.588C168.996 223.329 168.943 222.071 168.732 220.828ZM162.55 225.317C162.234 225.475 161.863 225.577 161.508 225.539C160.883 225.472 160.672 224.847 160.562 224.318C160.47 223.877 160.447 223.423 160.479 222.974C160.509 222.562 160.519 222.002 160.792 221.666C161.067 221.328 161.603 221.151 162.023 221.125C162.24 221.111 162.484 221.137 162.659 221.279C163.024 221.574 162.91 222.339 162.907 222.748C162.904 223.153 162.892 223.559 162.901 223.965C162.914 224.47 163.108 225.038 162.55 225.317Z" fill="white"/>
<path d="M164.638 201.142C164.239 200.556 162.675 200.605 162.086 200.57C160.856 200.499 159.632 200.584 158.402 200.577C156.445 200.57 154.489 200.57 152.532 200.57C151.054 200.57 149.575 200.563 148.096 200.563C146.617 200.563 145.138 200.57 143.66 200.57C141.703 200.57 139.747 200.57 137.79 200.577C136.56 200.584 135.336 200.499 134.106 200.57C133.517 200.605 131.953 200.556 131.554 201.142C131.462 201.276 131.515 201.466 131.836 201.742C136.566 205.908 141.297 210.082 146.035 214.234C146.041 214.239 146.048 214.245 146.055 214.251C147.232 215.272 148.96 215.272 150.137 214.251C150.144 214.245 150.151 214.239 150.157 214.234C154.895 210.082 159.625 205.908 164.356 201.742C164.677 201.467 164.729 201.276 164.638 201.142Z" fill="white"/>
<path d="M167.879 206.151V215.47C167.076 214.86 166.118 214.416 165.019 214.127C163.399 213.703 161.657 213.626 159.755 213.896C156.214 214.391 153.482 216.807 152.634 220.207C152.132 222.206 152.119 224.346 152.589 226.57C152.634 226.808 152.698 227.04 152.762 227.264H148.096C143.353 227.264 138.603 227.264 133.853 227.258C130.344 227.258 128.319 225.066 128.319 221.268V206.151C128.319 204.891 128.621 203.754 129.341 202.732C129.527 203.06 129.791 203.374 130.138 203.67L133.082 206.266C136.836 209.57 140.583 212.874 144.368 216.19C145.41 217.09 146.727 217.585 148.096 217.585C149.459 217.585 150.783 217.09 151.85 216.164C155.61 212.874 159.363 209.57 163.117 206.26L166.035 203.689C166.388 203.381 166.658 203.059 166.845 202.725C167.571 203.754 167.879 204.891 167.879 206.151Z" fill="white"/>
<path fill-rule="evenodd" clip-rule="evenodd" d="M305.721 262.735C303.451 263.129 303.618 264.993 304.143 266.471C304.667 267.948 305.646 268.087 306.618 267.719C307.105 267.719 308.408 269.317 308.922 270.546C309.01 270.754 309.106 270.956 309.136 270.994C309.196 271.069 309.381 271.521 309.688 272.339C310.428 274.31 310.675 275.034 310.702 275.314L310.733 275.633L310.296 275.993C308.563 277.416 308.074 278.51 307.898 281.354C307.839 282.297 307.687 361.883 307.74 363.531C307.766 364.324 307.61 364.278 310.065 364.228C311.203 364.205 314.027 364.168 316.34 364.145C320.564 364.103 321.007 364.077 321.126 363.854C321.165 363.78 321.202 353.255 321.22 336.567C321.242 316.716 321.272 309.179 321.33 308.574C321.694 304.799 322.036 303.469 323.297 300.92C326.299 294.85 333.071 291.222 340.029 291.957C342.456 292.213 345.219 293.264 347.332 294.734C349.122 295.979 350.916 298.055 351.695 299.783C353.064 302.818 353.365 305.53 352.666 308.54C352.502 309.247 352.413 309.518 352.017 310.505C350.84 313.441 348.011 316.012 344.715 317.138C344.431 317.236 344.058 317.371 343.887 317.438C343.717 317.506 343.453 317.583 343.301 317.609C343.15 317.636 342.839 317.714 342.612 317.783C342.213 317.904 341.416 318.044 340.28 318.192C339.943 318.236 336.74 318.265 331.763 318.27C327.376 318.275 323.694 318.299 323.58 318.323L323.374 318.367L323.398 326.986C323.412 332.262 323.447 335.631 323.487 335.673C323.529 335.718 323.91 335.373 324.566 334.697C325.924 333.297 326.76 332.772 327.89 332.606C328.136 332.57 328.493 332.506 328.683 332.465C328.898 332.418 330.903 332.367 333.992 332.33C336.723 332.297 339.298 332.253 339.716 332.231C341.431 332.143 342.642 332.043 343.196 331.944C343.52 331.886 343.939 331.812 344.129 331.779C345.68 331.514 349.561 330.214 350.3 329.712C350.395 329.648 350.628 329.524 350.817 329.438C351.43 329.159 352.863 328.326 353.748 327.735C357.602 325.163 359.948 322.667 362.623 318.295C362.895 317.85 363.385 316.951 363.468 316.745C363.521 316.613 363.621 316.43 363.69 316.34C363.759 316.249 363.815 316.148 363.815 316.114C363.815 316.08 363.987 315.697 364.196 315.263C365.037 313.519 366.029 310.398 366.231 308.858C366.261 308.626 366.334 308.157 366.392 307.816C366.804 305.414 366.765 301.908 366.299 299.403C366.263 299.214 366.199 298.857 366.156 298.611C366.113 298.364 366.053 298.085 366.023 297.99C365.993 297.895 365.917 297.616 365.854 297.369C365.427 295.698 364.97 294.458 364.057 292.492C363.885 292.121 363.716 291.772 363.681 291.715C363.646 291.658 363.383 291.224 363.097 290.75C362.81 290.276 362.451 289.717 362.299 289.509C362.147 289.3 361.944 289.02 361.849 288.888C361.754 288.755 361.544 288.487 361.383 288.293C361.223 288.098 360.854 287.648 360.564 287.293C359.978 286.575 358.821 285.424 358.008 284.751C357.715 284.509 357.574 284.488 357.555 284.438C357.548 284.419 357.515 284.383 357.476 284.341C357.371 284.227 357.211 284.103 357.096 283.999C356.737 283.668 354.768 282.354 353.748 281.764C351.943 280.72 349.041 279.442 347.335 278.94C343.842 277.91 342.038 277.623 338.509 277.533C336.247 277.476 333.99 277.623 332.51 277.923C332.339 277.957 331.967 278.021 331.682 278.064C331.398 278.108 330.963 278.203 330.717 278.277C330.471 278.35 330.114 278.438 329.924 278.472C328.918 278.655 326.89 279.265 325.442 279.821C324.386 280.227 324.093 280.187 323.917 279.613C323.851 279.397 323.152 277.786 322.974 277.439C322.703 276.909 322.367 276.465 321.805 275.895C321.17 275.249 321.125 275.134 321.368 274.776C321.466 274.631 321.546 274.477 321.546 274.432C321.546 274.004 322.761 271.326 323.336 270.486C324.383 268.958 324.95 267.802 326.733 267.682C327.851 268.738 328.785 268.863 329.941 267.352C330.153 267.076 330.268 266.737 330.266 266.388L330.265 266.202C330.253 264.153 328.457 262.949 326.45 263.644C325.18 264.083 324.386 265.532 324.977 266.331C325.204 266.639 325.179 266.796 324.886 266.893C324.441 267.04 323.365 267.994 322.671 268.859C322.271 269.357 322.167 269.498 322.167 269.545C322.167 269.57 322.079 269.72 321.971 269.878C321.683 270.303 320.791 272.095 320.786 272.257C320.786 272.283 320.576 272.723 320.321 273.235C319.799 274.282 319.768 274.305 319.269 274.034C318.318 273.516 317.08 273.33 315.802 273.513C314.527 273.695 314.186 273.789 312.789 274.343C312.102 274.616 311.754 274.553 311.754 274.157C311.754 274.113 311.602 273.755 311.416 273.362C311.229 272.97 310.891 272.215 310.664 271.684C309.729 269.497 309.105 268.516 308.139 267.718C307.508 267.196 307.397 266.768 307.849 266.594C308.019 266.529 308.238 265.823 308.238 265.34C308.238 263.968 306.857 262.539 305.721 262.735ZM259.418 265.65C256.525 265.898 255.88 266.071 255.19 266.786C254.575 267.422 254.287 268.07 254.336 268.709C254.507 270.965 255.148 274.1 255.761 275.683C255.835 275.873 255.972 276.23 256.066 276.476C256.567 277.784 257.38 279.239 258.525 280.87C260.205 283.263 263.698 286.328 265.659 287.13C265.924 287.239 266.173 287.351 266.212 287.38C266.361 287.488 267.818 287.863 268.323 287.922C269.092 288.012 269.853 287.909 272.14 287.405C272.558 287.313 273.193 287.177 273.554 287.103C274.526 286.903 274.905 286.824 275.558 286.682C276.78 286.417 279.799 286.035 282.139 285.85C286.382 285.512 292.603 285.872 295.826 286.641C296.073 286.7 296.647 286.828 297.102 286.924C298.813 287.289 300.239 287.639 300.86 287.849C301.068 287.92 301.596 288.078 302.032 288.202C302.468 288.326 303.197 288.565 303.652 288.734C306.121 289.65 305.979 289.656 306.044 288.632C306.07 288.223 306.112 287.728 306.139 287.533C306.239 286.772 305.267 285.584 302.791 283.444C302.43 283.133 302.058 282.808 301.963 282.723C301.827 282.6 301.046 281.961 300.557 281.574C300.515 281.541 300.232 281.309 299.929 281.058C298.945 280.245 298.092 279.556 297.348 278.975C296.947 278.661 296.51 278.317 296.378 278.21C296.245 278.103 295.509 277.583 294.744 277.056C293.443 276.161 292.663 275.651 291.31 274.813C291.006 274.625 290.437 274.27 290.045 274.025C289.653 273.78 289.318 273.58 289.302 273.58C289.285 273.58 288.985 273.4 288.636 273.18C288.286 272.96 287.814 272.677 287.586 272.55C287.359 272.423 287.033 272.233 286.862 272.127C286.097 271.653 283.41 270.279 282.372 269.833C281.583 269.493 280.903 269.196 280.691 269.099C280.615 269.065 280.336 268.955 280.07 268.855C279.804 268.755 279.463 268.625 279.312 268.567C279.049 268.465 277.198 267.811 276.76 267.664C276.304 267.512 275.622 267.31 274.968 267.135C274.588 267.034 274.076 266.892 273.83 266.82C272.743 266.505 270.448 266.065 269.175 265.928C266.697 265.661 266.122 265.632 263.142 265.613C261.454 265.603 259.778 265.619 259.418 265.65ZM282.139 288.3C282.073 288.328 281.056 288.426 279.622 288.543C279.262 288.573 278.749 288.648 278.484 288.71C278.219 288.773 277.665 288.885 277.254 288.959C276.843 289.033 276.481 289.11 276.448 289.13C276.416 289.15 276.209 289.199 275.989 289.237C275.057 289.401 272.941 290.095 270.692 290.974C270.503 291.048 270.223 291.154 270.071 291.211C269.92 291.266 269.687 291.369 269.554 291.439C269.422 291.509 269.009 291.712 268.637 291.891C268.266 292.07 267.846 292.293 267.706 292.389C267.465 292.552 266.48 293.162 265.54 293.73C264.48 294.369 263.769 295.096 263.406 295.912C263.294 296.164 263.16 296.462 263.109 296.576C262.6 297.71 262.875 298.655 264.175 300.231C264.425 300.534 264.72 300.907 264.83 301.058C265.184 301.548 266.947 303.249 267.727 303.855C271.597 306.861 277.136 308.791 280.565 308.329C282 308.136 284.503 307.127 285.862 306.195C286.118 306.019 287.477 305.162 287.985 304.855C288.107 304.782 288.61 304.46 289.103 304.139C290.039 303.53 290.106 303.488 291.32 302.728C292.362 302.077 293.882 301.182 294.619 300.786C294.96 300.603 295.441 300.344 295.688 300.21C296.424 299.812 299.088 298.496 299.274 298.44C299.369 298.411 299.704 298.267 300.019 298.119C300.334 297.972 300.605 297.852 300.621 297.852C300.638 297.852 301.324 297.585 302.148 297.258C302.971 296.932 303.981 296.557 304.391 296.424C305.267 296.142 305.248 296.165 305.345 295.22C305.385 294.828 305.444 294.275 305.475 293.99C305.621 292.681 305.549 292.605 303.618 291.995C302.992 291.798 302.294 291.574 302.067 291.498C301.839 291.421 301.544 291.329 301.411 291.291C301.095 291.203 300.393 291.001 299.791 290.825C299.526 290.748 299.215 290.665 299.101 290.642C298.988 290.619 298.786 290.559 298.653 290.51C298.148 290.322 294.445 289.453 293.516 289.304C293.251 289.262 292.785 289.182 292.482 289.128C292.179 289.073 291.589 288.981 291.172 288.924C290.754 288.866 290.242 288.788 290.034 288.751C289.609 288.673 288.946 288.596 287.276 288.431C286.239 288.328 282.307 288.228 282.139 288.3ZM304.756 299.082C304.376 299.265 303.834 299.517 303.549 299.642C302.586 300.068 299.276 301.855 299.133 302.027C299.087 302.082 299.015 302.127 298.972 302.127C298.843 302.127 296.184 303.939 295.783 304.298C295.741 304.337 295.462 304.554 295.165 304.782C294.867 305.009 294.483 305.321 294.311 305.474C294.14 305.627 293.875 305.856 293.723 305.983C292.331 307.148 289.345 310.524 289.345 310.933C289.345 310.956 289.272 311.071 289.184 311.188C289.014 311.414 288.05 313.141 287.929 313.435C287.89 313.53 287.799 313.732 287.728 313.884C287.421 314.534 287.313 314.798 287.019 315.628C286.849 316.11 286.686 316.628 286.657 316.78C286.628 316.932 286.539 317.304 286.46 317.607C286.078 319.054 285.909 322.546 286.137 324.262C286.5 326.989 286.935 329 287.464 330.398C287.558 330.645 287.698 331.017 287.776 331.226C288.202 332.359 288.815 333.695 289.166 334.251C289.264 334.406 289.345 334.55 289.345 334.572C289.345 334.593 289.402 334.694 289.473 334.797C289.543 334.9 289.87 335.387 290.198 335.88C290.974 337.044 290.961 337.028 291.094 336.977C291.156 336.953 291.206 336.913 291.206 336.886C291.206 336.821 292.768 335.24 294.688 333.362C297.28 330.827 298.468 329.525 299.903 327.647C300.175 327.29 300.452 326.945 300.518 326.879C300.718 326.679 302.584 323.815 302.584 323.708C302.584 323.682 302.733 323.4 302.916 323.082C304.512 320.305 305.311 317.41 305.549 313.539C305.655 311.815 305.64 298.748 305.532 298.749C305.484 298.75 305.135 298.899 304.756 299.082ZM368.519 312.522C368.407 312.56 368.205 312.957 368.07 313.401C367.928 313.873 367.438 315.23 367.308 315.514C367.25 315.641 367.064 316.056 366.895 316.435C366.726 316.815 366.414 317.466 366.202 317.883C365.989 318.3 365.815 318.67 365.815 318.705C365.815 318.74 365.773 318.818 365.721 318.878C365.67 318.937 365.517 319.19 365.382 319.439C364.896 320.337 363.211 322.88 362.591 323.653C360.768 325.924 360.776 326.26 362.66 326.343C368.761 326.612 372.817 328.987 374.355 333.191C375.365 335.95 375.356 339.285 374.332 341.707C374.244 341.915 374.084 342.303 373.978 342.569C373.254 344.369 371.373 346.628 369.435 348.027C368.521 348.686 366.705 349.69 366.199 349.815C366.087 349.842 365.917 349.906 365.819 349.957C365.722 350.008 365.603 350.05 365.555 350.05C365.507 350.05 365.25 350.127 364.984 350.219C363.388 350.777 363.047 350.789 349.637 350.754C339.876 350.729 338.035 350.738 337.983 350.818C337.919 350.918 337.936 364.06 338.002 364.278C338.105 364.624 337.599 364.613 350.879 364.565C357.671 364.54 363.896 364.493 364.711 364.461C367.246 364.358 369.3 363.947 371.4 363.12C371.722 362.993 372.281 362.774 372.641 362.633C375.542 361.494 378.908 359.292 381.389 356.911C384.739 353.696 387.494 348.807 388.439 344.4C388.515 344.042 388.592 343.727 388.609 343.699C388.626 343.672 388.702 343.251 388.778 342.765C388.855 342.278 388.96 341.628 389.012 341.32C389.299 339.629 389.299 335.187 389.012 333.639C388.959 333.355 388.853 332.755 388.776 332.306C388.7 331.856 388.606 331.432 388.569 331.362C388.531 331.292 388.5 331.163 388.499 331.075C388.498 330.891 388.217 329.903 388.024 329.398C387.95 329.209 387.792 328.79 387.671 328.468C387.106 326.959 386.218 325.235 385.275 323.816C383.687 321.425 382.297 319.923 379.915 318.022C379.726 317.871 379.54 317.721 379.502 317.689C379.465 317.657 379.167 317.455 378.842 317.24C378.517 317.025 378.113 316.758 377.946 316.647C377.778 316.535 377.482 316.342 377.288 316.218C376.844 315.933 374.508 314.742 373.856 314.467C373.586 314.353 373.226 314.195 373.055 314.116C372.572 313.89 372.513 313.867 371.78 313.604C371.4 313.468 370.749 313.232 370.331 313.079C369.228 312.675 368.619 312.488 368.519 312.522ZM305.299 325.313C305.043 325.605 304.513 326.365 303.438 327.982C302.847 328.872 302.302 329.679 302.228 329.775C302.153 329.871 301.825 330.307 301.5 330.743C300.518 332.058 299.922 332.793 298.929 333.913C297.517 335.506 296.787 336.271 294.784 338.259C292.491 340.535 292.607 340.295 293.322 341.273C294.617 343.044 294.929 343.442 295.478 344.034C296.703 345.35 298.599 347.218 299.308 347.806C299.536 347.994 300.001 348.398 300.343 348.703C301.83 350.033 302.997 350.915 303.36 350.983C303.658 351.039 303.651 351.054 303.508 350.662C303.447 350.496 303.371 350.128 303.338 349.844C303.305 349.559 303.246 349.062 303.207 348.74C302.934 346.504 303.192 341.987 303.755 339.156C303.834 338.757 303.973 338.013 304.065 337.501C304.262 336.399 304.601 334.833 304.789 334.156C304.951 333.576 305.196 332.446 305.28 331.896C305.313 331.676 305.402 331.242 305.477 330.93C305.689 330.055 305.755 329.313 305.755 327.849C305.755 325.286 305.681 324.877 305.299 325.313Z" fill="url(#paint9_linear_108_570)"/>
<circle cx="321.862" cy="313.152" r="257.018" transform="rotate(90 321.862 313.152)" stroke="url(#paint10_linear_108_570)" stroke-width="0.569886"/>
<circle cx="321.292" cy="312.582" r="285.513" transform="rotate(90 321.292 312.582)" stroke="url(#paint11_linear_108_570)" stroke-width="0.569886"/>
<circle cx="321.292" cy="314.292" r="314.007" transform="rotate(90 321.292 314.292)" stroke="url(#paint12_linear_108_570)" stroke-width="0.569886"/>
<rect x="146.292" y="34.1932" width="63.8272" height="63.8272" rx="31.9136" fill="url(#paint13_linear_108_570)"/>
<rect x="146.292" y="34.1932" width="63.8272" height="63.8272" rx="31.9136" stroke="black" stroke-width="6.83863"/>
<rect x="433.535" y="35.2435" width="63.8272" height="63.8272" rx="31.9136" fill="url(#paint14_linear_108_570)"/>
<rect x="433.535" y="35.2435" width="63.8272" height="63.8272" rx="31.9136" stroke="black" stroke-width="6.83863"/>
<rect x="574.8" y="279.922" width="63.8272" height="63.8272" rx="31.9136" fill="url(#paint15_linear_108_570)"/>
<rect x="574.8" y="279.922" width="63.8272" height="63.8272" rx="31.9136" stroke="black" stroke-width="6.83863"/>
<rect x="433.313" y="531.328" width="63.8272" height="63.8272" rx="31.9136" fill="url(#paint16_linear_108_570)"/>
<rect x="433.313" y="531.328" width="63.8272" height="63.8272" rx="31.9136" stroke="black" stroke-width="6.83863"/>
<rect x="144.846" y="528.156" width="63.8272" height="63.8272" rx="31.9136" fill="url(#paint17_linear_108_570)"/>
<rect x="144.846" y="528.156" width="63.8272" height="63.8272" rx="31.9136" stroke="black" stroke-width="6.83863"/>
<rect x="3.58069" y="283.478" width="63.8272" height="63.8272" rx="31.9136" fill="url(#paint18_linear_108_570)"/>
<rect x="3.58069" y="283.478" width="63.8272" height="63.8272" rx="31.9136" stroke="black" stroke-width="6.83863"/>
<defs>
<linearGradient id="paint0_linear_108_570" x1="321.007" y1="515.177" x2="321.007" y2="114.547" gradientUnits="userSpaceOnUse">
<stop stop-color="#28292D"/>
<stop offset="1" stop-color="#838693"/>
</linearGradient>
<linearGradient id="paint1_linear_108_570" x1="149.472" y1="314.292" x2="493.113" y2="314.292" gradientUnits="userSpaceOnUse">
<stop stop-color="#28292D"/>
<stop offset="1" stop-color="#838693"/>
</linearGradient>
<linearGradient id="paint2_linear_108_570" x1="92.4828" y1="313.722" x2="550.101" y2="313.722" gradientUnits="userSpaceOnUse">
<stop stop-color="#28292D"/>
<stop offset="1" stop-color="#838693"/>
</linearGradient>
<linearGradient id="paint3_linear_108_570" x1="321.577" y1="68.9563" x2="321.577" y2="160.138" gradientUnits="userSpaceOnUse">
<stop stop-color="#131313"/>
<stop offset="1" stop-color="#292929"/>
</linearGradient>
<linearGradient id="paint4_linear_108_570" x1="494.822" y1="169.826" x2="494.822" y2="261.008" gradientUnits="userSpaceOnUse">
<stop stop-color="#131313"/>
<stop offset="1" stop-color="#292929"/>
</linearGradient>
<linearGradient id="paint5_linear_108_570" x1="494.822" y1="367.007" x2="494.822" y2="458.188" gradientUnits="userSpaceOnUse">
<stop stop-color="#131313"/>
<stop offset="1" stop-color="#292929"/>
</linearGradient>
<linearGradient id="paint6_linear_108_570" x1="321.577" y1="469.586" x2="321.577" y2="560.768" gradientUnits="userSpaceOnUse">
<stop stop-color="#131313"/>
<stop offset="1" stop-color="#292929"/>
</linearGradient>
<linearGradient id="paint7_linear_108_570" x1="148.332" y1="367.007" x2="148.332" y2="458.188" gradientUnits="userSpaceOnUse">
<stop stop-color="#131313"/>
<stop offset="1" stop-color="#292929"/>
</linearGradient>
<linearGradient id="paint8_linear_108_570" x1="148.332" y1="169.826" x2="148.332" y2="261.008" gradientUnits="userSpaceOnUse">
<stop stop-color="#131313"/>
<stop offset="1" stop-color="#292929"/>
</linearGradient>
<linearGradient id="paint9_linear_108_570" x1="254.331" y1="262.717" x2="386.102" y2="387.663" gradientUnits="userSpaceOnUse">
<stop stop-color="#FF8181"/>
<stop offset="0.295" stop-color="#FFAA47"/>
<stop offset="0.63" stop-color="#4E80FF"/>
<stop offset="1" stop-color="#204CBE"/>
</linearGradient>
<linearGradient id="paint10_linear_108_570" x1="579.166" y1="313.437" x2="64.5587" y2="313.437" gradientUnits="userSpaceOnUse">
<stop stop-color="#28292D"/>
<stop offset="1" stop-color="#838693"/>
</linearGradient>
<linearGradient id="paint11_linear_108_570" x1="607.09" y1="312.899" x2="35.4944" y2="312.899" gradientUnits="userSpaceOnUse">
<stop stop-color="#28292D"/>
<stop offset="1" stop-color="#838693"/>
</linearGradient>
<linearGradient id="paint12_linear_108_570" x1="635.584" y1="314.64" x2="7.00004" y2="314.577" gradientUnits="userSpaceOnUse">
<stop stop-color="#838693"/>
<stop offset="1" stop-color="#28292D"/>
</linearGradient>
<linearGradient id="paint13_linear_108_570" x1="178.206" y1="37.6125" x2="178.206" y2="94.6011" gradientUnits="userSpaceOnUse">
<stop stop-color="#131313"/>
<stop offset="1" stop-color="#292929"/>
</linearGradient>
<linearGradient id="paint14_linear_108_570" x1="465.449" y1="38.6628" x2="465.449" y2="95.6514" gradientUnits="userSpaceOnUse">
<stop stop-color="#131313"/>
<stop offset="1" stop-color="#292929"/>
</linearGradient>
<linearGradient id="paint15_linear_108_570" x1="606.714" y1="283.341" x2="606.714" y2="340.329" gradientUnits="userSpaceOnUse">
<stop stop-color="#131313"/>
<stop offset="1" stop-color="#292929"/>
</linearGradient>
<linearGradient id="paint16_linear_108_570" x1="465.227" y1="534.747" x2="465.227" y2="591.736" gradientUnits="userSpaceOnUse">
<stop stop-color="#131313"/>
<stop offset="1" stop-color="#292929"/>
</linearGradient>
<linearGradient id="paint17_linear_108_570" x1="176.759" y1="531.575" x2="176.759" y2="588.564" gradientUnits="userSpaceOnUse">
<stop stop-color="#131313"/>
<stop offset="1" stop-color="#292929"/>
</linearGradient>
<linearGradient id="paint18_linear_108_570" x1="35.4943" y1="286.897" x2="35.4943" y2="343.886" gradientUnits="userSpaceOnUse">
<stop stop-color="#131313"/>
<stop offset="1" stop-color="#292929"/>
</linearGradient>
</defs>
</svg>
