<svg width="138" height="34" viewBox="0 0 138 34" fill="none" xmlns="http://www.w3.org/2000/svg">
<circle cx="129" cy="9" r="1" transform="rotate(180 129 9)" fill="#F5BA79"/>
<circle cx="129" cy="17" r="1" transform="rotate(180 129 17)" fill="#353535"/>
<circle cx="121" cy="17" r="1" transform="rotate(180 121 17)" fill="#353535"/>
<circle cx="137" cy="17" r="1" transform="rotate(180 137 17)" fill="#353535"/>
<circle cx="129" cy="33" r="1" transform="rotate(180 129 33)" fill="#6A94FF"/>
<circle cx="105" cy="33" r="1" transform="rotate(180 105 33)" fill="#F5BA79"/>
<circle cx="89" cy="33" r="1" transform="rotate(180 89 33)" fill="#353535"/>
<circle cx="81" cy="33" r="1" transform="rotate(180 81 33)" fill="#353535"/>
<circle cx="73" cy="33" r="1" transform="rotate(180 73 33)" fill="#F5BA79"/>
<circle cx="65" cy="33" r="1" transform="rotate(180 65 33)" fill="#353535"/>
<circle cx="57" cy="33" r="1" transform="rotate(180 57 33)" fill="#353535"/>
<circle cx="49" cy="33" r="1" transform="rotate(180 49 33)" fill="#F5BA79"/>
<circle cx="25" cy="33" r="1" transform="rotate(180 25 33)" fill="#353535"/>
<circle cx="17" cy="33" r="1" transform="rotate(180 17 33)" fill="#353535"/>
<circle cx="1" cy="25" r="1" transform="rotate(180 1 25)" fill="#F5BA79"/>
<circle cx="9" cy="25" r="1" transform="rotate(180 9 25)" fill="#353535"/>
<circle cx="33" cy="25" r="1" transform="rotate(180 33 25)" fill="#6A94FF"/>
<circle cx="41" cy="25" r="1" transform="rotate(180 41 25)" fill="#353535"/>
<circle cx="57" cy="25" r="1" transform="rotate(180 57 25)" fill="#6A94FF"/>
<circle cx="73" cy="25" r="1" transform="rotate(180 73 25)" fill="#353535"/>
<circle cx="97" cy="17" r="1" transform="rotate(180 97 17)" fill="#F5BA79"/>
<circle cx="89" cy="17" r="1" transform="rotate(180 89 17)" fill="#353535"/>
<circle cx="81" cy="9" r="1" transform="rotate(180 81 9)" fill="#F5BA79"/>
<circle cx="73" cy="9" r="1" transform="rotate(180 73 9)" fill="#353535"/>
<circle cx="57" cy="9" r="1" transform="rotate(180 57 9)" fill="#353535"/>
<circle cx="33" cy="9" r="1" transform="rotate(180 33 9)" fill="#353535"/>
<circle cx="9" cy="9" r="1" transform="rotate(180 9 9)" fill="#6A94FF"/>
<circle cx="9" cy="17" r="1" transform="rotate(180 9 17)" fill="#F5BA79"/>
<circle cx="25" cy="17" r="1" transform="rotate(180 25 17)" fill="#353535"/>
<circle cx="33" cy="17" r="1" transform="rotate(180 33 17)" fill="#353535"/>
<circle cx="41" cy="17" r="1" transform="rotate(180 41 17)" fill="#353535"/>
<circle cx="25" cy="1" r="1" transform="rotate(180 25 1)" fill="#353535"/>
<circle cx="33" cy="1" r="1" transform="rotate(180 33 1)" fill="#F5BA79"/>
<circle cx="41" cy="1" r="1" transform="rotate(180 41 1)" fill="#353535"/>
<circle cx="65" cy="1" r="1" transform="rotate(180 65 1)" fill="#353535"/>
<circle cx="73" cy="1" r="1" transform="rotate(180 73 1)" fill="#6A94FF"/>
</svg>
