<svg width="90" height="66" viewBox="0 0 90 66" fill="none" xmlns="http://www.w3.org/2000/svg">
<circle cx="66" cy="41" r="1" transform="rotate(-90 66 41)" fill="#F5BA79"/>
<circle cx="73" cy="41" r="1" transform="rotate(-90 73 41)" fill="#F5BA79"/>
<circle cx="73" cy="49" r="1" transform="rotate(-90 73 49)" fill="#353535"/>
<circle cx="73" cy="34" r="1" transform="rotate(-90 73 34)" fill="#6A94FF"/>
<circle cx="57" cy="17" r="1" transform="rotate(-90 57 17)" fill="#353535"/>
<circle cx="57" cy="1" r="1" transform="rotate(-90 57 1)" fill="#F5BA79"/>
<circle cx="49" cy="9" r="1" transform="rotate(-90 49 9)" fill="#353535"/>
<circle cx="49" cy="17" r="1" transform="rotate(-90 49 17)" fill="#6A94FF"/>
<circle cx="42" cy="17" r="1" transform="rotate(-90 42 17)" fill="#F5BA79"/>
<circle cx="42" cy="1" r="1" transform="rotate(-90 42 1)" fill="#6A94FF"/>
<circle cx="33" cy="1" r="1" transform="rotate(-90 33 1)" fill="#353535"/>
<circle cx="26" cy="1" r="1" transform="rotate(-90 26 1)" fill="#353535"/>
<circle cx="18" cy="9" r="1" transform="rotate(-90 18 9)" fill="#F5BA79"/>
<circle cx="26" cy="17" r="1" transform="rotate(-90 26 17)" fill="#6A94FF"/>
<circle cx="33" cy="25" r="1" transform="rotate(-90 33 25)" fill="#F5BA79"/>
<circle cx="1" cy="17" r="1" transform="rotate(-90 1 17)" fill="#F5BA79"/>
<circle cx="1" cy="9" r="1" transform="rotate(-90 1 9)" fill="#353535"/>
<circle cx="81" cy="25" r="1" transform="rotate(-90 81 25)" fill="#F5BA79"/>
<circle cx="89" cy="34" r="1" transform="rotate(-90 89 34)" fill="#353535"/>
<circle cx="89" cy="65" r="1" transform="rotate(-90 89 65)" fill="#6A94FF"/>
<circle cx="66" cy="65" r="1" transform="rotate(-90 66 65)" fill="#353535"/>
<circle cx="66" cy="58" r="1" transform="rotate(-90 66 58)" fill="#F5BA79"/>
<circle cx="57" cy="58" r="1" transform="rotate(-90 57 58)" fill="#353535"/>
<circle cx="57" cy="65" r="1" transform="rotate(-90 57 65)" fill="#F5BA79"/>
<circle cx="49" cy="65" r="1" transform="rotate(-90 49 65)" fill="#6A94FF"/>
<circle cx="42" cy="58" r="1" transform="rotate(-90 42 58)" fill="#F5BA79"/>
<circle cx="49" cy="41" r="1" transform="rotate(-90 49 41)" fill="#353535"/>
<circle cx="42" cy="34" r="1" transform="rotate(-90 42 34)" fill="#6A94FF"/>
<circle cx="73" cy="25" r="1" transform="rotate(-90 73 25)" fill="#F5BA79"/>
</svg>
