<svg width="61" height="248" viewBox="0 0 61 248" fill="none" xmlns="http://www.w3.org/2000/svg">
<circle cx="44.8527" cy="231.441" r="1.79412" transform="rotate(-90 44.8527 231.441)" fill="#F5BA79"/>
<circle cx="30.5002" cy="231.441" r="1.79412" transform="rotate(-90 30.5002 231.441)" fill="#353535"/>
<circle cx="30.5002" cy="217.088" r="1.79412" transform="rotate(-90 30.5002 217.088)" fill="#353535"/>
<circle cx="30.5002" cy="245.794" r="1.79412" transform="rotate(-90 30.5002 245.794)" fill="#353535"/>
<circle cx="1.79412" cy="231.441" r="1.79412" transform="rotate(-90 1.79412 231.441)" fill="#6A94FF"/>
<circle cx="1.79412" cy="188.382" r="1.79412" transform="rotate(-90 1.79412 188.382)" fill="#F5BA79"/>
<circle cx="1.79412" cy="159.676" r="1.79412" transform="rotate(-90 1.79412 159.676)" fill="#353535"/>
<circle cx="1.79412" cy="145.323" r="1.79412" transform="rotate(-90 1.79412 145.323)" fill="#353535"/>
<circle cx="1.79412" cy="130.971" r="1.79412" transform="rotate(-90 1.79412 130.971)" fill="#F5BA79"/>
<circle cx="1.79412" cy="116.618" r="1.79412" transform="rotate(-90 1.79412 116.618)" fill="#353535"/>
<circle cx="1.79412" cy="102.265" r="1.79412" transform="rotate(-90 1.79412 102.265)" fill="#353535"/>
<circle cx="1.79412" cy="87.9117" r="1.79412" transform="rotate(-90 1.79412 87.9117)" fill="#F5BA79"/>
<circle cx="1.79412" cy="44.8529" r="1.79412" transform="rotate(-90 1.79412 44.8529)" fill="#353535"/>
<circle cx="1.79412" cy="30.5" r="1.79412" transform="rotate(-90 1.79412 30.5)" fill="#353535"/>
<circle cx="16.1467" cy="1.79402" r="1.79412" transform="rotate(-90 16.1467 1.79402)" fill="#F5BA79"/>
<circle cx="16.1467" cy="16.1469" r="1.79412" transform="rotate(-90 16.1467 16.1469)" fill="#353535"/>
<circle cx="16.1467" cy="59.2058" r="1.79412" transform="rotate(-90 16.1467 59.2058)" fill="#6A94FF"/>
<circle cx="16.1467" cy="73.5588" r="1.79412" transform="rotate(-90 16.1467 73.5588)" fill="#353535"/>
<circle cx="16.1467" cy="102.265" r="1.79412" transform="rotate(-90 16.1467 102.265)" fill="#6A94FF"/>
<circle cx="16.1467" cy="130.971" r="1.79412" transform="rotate(-90 16.1467 130.971)" fill="#353535"/>
<circle cx="30.5002" cy="174.029" r="1.79412" transform="rotate(-90 30.5002 174.029)" fill="#F5BA79"/>
<circle cx="30.5002" cy="159.676" r="1.79412" transform="rotate(-90 30.5002 159.676)" fill="#353535"/>
<circle cx="44.8527" cy="145.323" r="1.79412" transform="rotate(-90 44.8527 145.323)" fill="#F5BA79"/>
<circle cx="44.8527" cy="130.971" r="1.79412" transform="rotate(-90 44.8527 130.971)" fill="#353535"/>
<circle cx="44.8527" cy="102.265" r="1.79412" transform="rotate(-90 44.8527 102.265)" fill="#353535"/>
<circle cx="44.8527" cy="59.2058" r="1.79412" transform="rotate(-90 44.8527 59.2058)" fill="#353535"/>
<circle cx="44.8527" cy="16.1469" r="1.79412" transform="rotate(-90 44.8527 16.1469)" fill="#6A94FF"/>
<circle cx="30.5002" cy="16.1469" r="1.79412" transform="rotate(-90 30.5002 16.1469)" fill="#F5BA79"/>
<circle cx="30.5002" cy="44.8529" r="1.79412" transform="rotate(-90 30.5002 44.8529)" fill="#353535"/>
<circle cx="30.5002" cy="59.2058" r="1.79412" transform="rotate(-90 30.5002 59.2058)" fill="#353535"/>
<circle cx="30.5002" cy="73.5588" r="1.79412" transform="rotate(-90 30.5002 73.5588)" fill="#353535"/>
<circle cx="59.2062" cy="44.8529" r="1.79412" transform="rotate(-90 59.2062 44.8529)" fill="#353535"/>
<circle cx="59.2062" cy="59.2058" r="1.79412" transform="rotate(-90 59.2062 59.2058)" fill="#F5BA79"/>
<circle cx="59.2062" cy="73.5588" r="1.79412" transform="rotate(-90 59.2062 73.5588)" fill="#353535"/>
<circle cx="59.2062" cy="116.618" r="1.79412" transform="rotate(-90 59.2062 116.618)" fill="#353535"/>
<circle cx="59.2062" cy="130.971" r="1.79412" transform="rotate(-90 59.2062 130.971)" fill="#6A94FF"/>
</svg>
