<svg width="137" height="137" viewBox="0 0 137 137" fill="none" xmlns="http://www.w3.org/2000/svg">
<rect x="0.614796" y="0.614796" width="135.255" height="135.255" rx="17.8291" stroke="url(#paint0_linear_108_2683)" stroke-width="1.22959"/>
<rect x="7.99273" y="7.99224" width="120.5" height="120.5" rx="14.1403" stroke="url(#paint1_linear_108_2683)" stroke-width="1.22959"/>
<rect x="14.1402" y="14.1403" width="108.204" height="108.204" rx="11.6811" stroke="url(#paint2_linear_108_2683)" stroke-width="1.22959"/>
<rect x="19.6738" y="19.6735" width="97.1378" height="97.1378" rx="9.83673" fill="url(#paint3_linear_108_2683)"/>
<path d="M95.187 41.1547H41.9028C39.0336 41.1547 36.7793 43.409 36.7793 46.2781V90.6475C36.7793 93.5167 39.0336 95.771 41.9028 95.771H95.187C98.0562 95.771 100.311 93.5167 100.311 90.6475V46.3806C100.311 43.5115 98.0562 41.1547 95.187 41.1547ZM98.2611 90.75C98.2611 92.492 96.929 93.8241 95.187 93.8241H41.9028C40.1608 93.8241 38.8287 92.492 38.8287 90.75V46.3806C38.8287 44.6386 40.1608 43.3065 41.9028 43.3065H95.187C96.929 43.3065 98.2611 44.6386 98.2611 46.3806V90.75Z" fill="url(#paint4_linear_108_2683)"/>
<path d="M91.3959 52.5288C93.0936 52.5288 94.47 51.1525 94.47 49.4547C94.47 47.7569 93.0936 46.3806 91.3959 46.3806C89.6981 46.3806 88.3218 47.7569 88.3218 49.4547C88.3218 51.1525 89.6981 52.5288 91.3959 52.5288Z" fill="url(#paint5_linear_108_2683)"/>
<path d="M82.5834 52.5288C84.2811 52.5288 85.6575 51.1525 85.6575 49.4547C85.6575 47.7569 84.2811 46.3806 82.5834 46.3806C80.8856 46.3806 79.5093 47.7569 79.5093 49.4547C79.5093 51.1525 80.8856 52.5288 82.5834 52.5288Z" fill="url(#paint6_linear_108_2683)"/>
<path d="M73.7709 52.5288C75.4686 52.5288 76.845 51.1525 76.845 49.4547C76.845 47.7569 75.4686 46.3806 73.7709 46.3806C72.0731 46.3806 70.6968 47.7569 70.6968 49.4547C70.6968 51.1525 72.0731 52.5288 73.7709 52.5288Z" fill="url(#paint7_linear_108_2683)"/>
<path d="M44.2596 50.4794H65.2658C65.7782 50.4794 66.2905 50.0696 66.2905 49.4548C66.2905 48.8399 65.7782 48.4301 65.2658 48.4301H44.2596C43.6447 48.4301 43.2349 48.8399 43.2349 49.4548C43.2349 50.0696 43.6447 50.4794 44.2596 50.4794Z" fill="url(#paint8_linear_108_2683)"/>
<path d="M59.8349 57.6522C59.8349 60.4189 57.5806 62.6733 54.7114 62.6733C51.9448 62.6733 49.6904 60.4189 49.6904 57.6522C49.6904 54.8856 51.9448 52.6312 54.7114 52.6312C57.5806 52.6312 59.8349 54.8856 59.8349 57.6522Z" fill="url(#paint9_linear_108_2683)"/>
<path d="M65.0607 78.0437C63.8311 79.5808 61.9866 80.503 60.0397 80.503H49.3829C46.9236 80.503 44.7717 79.1709 43.747 76.9166C43.0297 75.5845 42.9273 74.0474 43.2347 72.6128L43.6446 71.0758C43.6446 71.0758 43.6446 71.0758 43.6446 70.9733L44.6693 66.7721C45.1816 64.7227 47.0261 63.2881 49.1779 63.2881H49.4853C52.9693 64.4153 56.5557 64.4153 60.0397 63.2881H60.3471C62.499 63.2881 64.3434 64.7227 64.8558 66.7721L66.2904 72.5104C66.7002 74.5598 66.2904 76.5067 65.0607 78.0437Z" fill="url(#paint10_linear_108_2683)"/>
<path d="M66.7006 82.45H43.7474C43.1325 82.45 42.7227 82.8598 42.7227 83.4746V89.6228C42.7227 90.1352 43.1325 90.6475 43.7474 90.6475H66.7006C67.2129 90.6475 67.7253 90.1352 67.7253 89.6228V83.4746C67.7253 82.9623 67.2129 82.45 66.7006 82.45ZM47.4363 87.5734H46.6165C46.0017 87.5734 45.5918 87.0611 45.5918 86.5487C45.5918 85.9339 46.0017 85.524 46.6165 85.524H47.4363C48.0511 85.524 48.461 85.9339 48.461 86.5487C48.461 87.1636 47.9486 87.5734 47.4363 87.5734ZM51.0227 87.5734H50.1005C49.4857 87.5734 49.0758 87.0611 49.0758 86.5487C49.0758 85.9339 49.4857 85.524 50.1005 85.524H50.9202C51.5351 85.524 51.9449 85.9339 51.9449 86.5487C52.0474 87.1636 51.535 87.5734 51.0227 87.5734ZM54.5067 87.5734H53.6869C53.1746 87.5734 52.6622 87.0611 52.6622 86.5487C52.6622 85.9339 53.1746 85.524 53.6869 85.524H54.5067C55.019 85.524 55.5314 85.9339 55.5314 86.5487C55.5314 87.1636 55.1215 87.5734 54.5067 87.5734Z" fill="url(#paint11_linear_108_2683)"/>
<path d="M92.3181 56.6276H73.4637C72.9513 56.6276 72.439 57.1399 72.439 57.6523C72.439 58.1646 72.9513 58.677 73.4637 58.677H92.3181C92.8304 58.677 93.3428 58.1646 93.3428 57.6523C93.3428 57.1399 92.9329 56.6276 92.3181 56.6276Z" fill="url(#paint12_linear_108_2683)"/>
<path d="M92.3181 61.8535H73.4637C72.9513 61.8535 72.439 62.3659 72.439 62.8782C72.439 63.3906 72.9513 63.9029 73.4637 63.9029H92.3181C92.8304 63.9029 93.3428 63.3906 93.3428 62.8782C93.3428 62.3659 92.9329 61.8535 92.3181 61.8535Z" fill="url(#paint13_linear_108_2683)"/>
<path d="M92.3181 67.0795H73.4637C72.9513 67.0795 72.439 67.5918 72.439 68.1042C72.439 68.6165 72.9513 69.1289 73.4637 69.1289H92.3181C92.8304 69.1289 93.3428 68.6165 93.3428 68.1042C93.3428 67.5918 92.9329 67.0795 92.3181 67.0795Z" fill="url(#paint14_linear_108_2683)"/>
<path d="M92.3181 72.408H73.4637C72.9513 72.408 72.439 72.9203 72.439 73.4327C72.439 73.945 72.9513 74.4574 73.4637 74.4574H92.3181C92.8304 74.4574 93.3428 73.945 93.3428 73.4327C93.3428 72.9203 92.9329 72.408 92.3181 72.408Z" fill="url(#paint15_linear_108_2683)"/>
<path d="M92.3181 77.6339H73.4637C72.9513 77.6339 72.439 78.1463 72.439 78.6586C72.439 79.171 72.9513 79.6833 73.4637 79.6833H92.3181C92.8304 79.6833 93.3428 79.171 93.3428 78.6586C93.3428 78.1463 92.9329 77.6339 92.3181 77.6339Z" fill="url(#paint16_linear_108_2683)"/>
<path d="M92.3181 82.8599H73.4637C72.9513 82.8599 72.439 83.3722 72.439 83.8846C72.439 84.3969 72.9513 84.9093 73.4637 84.9093H92.3181C92.8304 84.9093 93.3428 84.3969 93.3428 83.8846C93.3428 83.3722 92.9329 82.8599 92.3181 82.8599Z" fill="url(#paint17_linear_108_2683)"/>
<path d="M92.3181 88.0858H73.4637C72.9513 88.0858 72.439 88.5982 72.439 89.1105C72.439 89.6229 72.9513 90.1352 73.4637 90.1352H92.3181C92.8304 90.1352 93.3428 89.6229 93.3428 89.1105C93.3428 88.5982 92.9329 88.0858 92.3181 88.0858Z" fill="url(#paint18_linear_108_2683)"/>
<defs>
<linearGradient id="paint0_linear_108_2683" x1="0" y1="0" x2="136.485" y2="136.485" gradientUnits="userSpaceOnUse">
<stop stop-color="#28292C"/>
<stop offset="1" stop-color="#939393"/>
</linearGradient>
<linearGradient id="paint1_linear_108_2683" x1="7.37793" y1="7.37744" x2="68.2427" y2="129.107" gradientUnits="userSpaceOnUse">
<stop stop-color="#28292C"/>
<stop offset="1" stop-color="#9A9A9A"/>
</linearGradient>
<linearGradient id="paint2_linear_108_2683" x1="13.5254" y1="13.5255" x2="122.959" y2="122.959" gradientUnits="userSpaceOnUse">
<stop stop-color="#28292C"/>
<stop offset="1" stop-color="white"/>
</linearGradient>
<linearGradient id="paint3_linear_108_2683" x1="19.6738" y1="19.6735" x2="116.812" y2="116.811" gradientUnits="userSpaceOnUse">
<stop stop-color="#FF8181"/>
<stop offset="0.52" stop-color="#F5BA79"/>
<stop offset="1" stop-color="#6A94FF"/>
</linearGradient>
<linearGradient id="paint4_linear_108_2683" x1="68.5449" y1="41.1547" x2="68.5449" y2="95.771" gradientUnits="userSpaceOnUse">
<stop/>
<stop offset="1" stop-color="#282828"/>
</linearGradient>
<linearGradient id="paint5_linear_108_2683" x1="91.3959" y1="46.3806" x2="91.3959" y2="52.5288" gradientUnits="userSpaceOnUse">
<stop/>
<stop offset="1" stop-color="#282828"/>
</linearGradient>
<linearGradient id="paint6_linear_108_2683" x1="82.5834" y1="46.3806" x2="82.5834" y2="52.5288" gradientUnits="userSpaceOnUse">
<stop/>
<stop offset="1" stop-color="#282828"/>
</linearGradient>
<linearGradient id="paint7_linear_108_2683" x1="73.7709" y1="46.3806" x2="73.7709" y2="52.5288" gradientUnits="userSpaceOnUse">
<stop/>
<stop offset="1" stop-color="#282828"/>
</linearGradient>
<linearGradient id="paint8_linear_108_2683" x1="54.7627" y1="48.4301" x2="54.7627" y2="50.4794" gradientUnits="userSpaceOnUse">
<stop/>
<stop offset="1" stop-color="#282828"/>
</linearGradient>
<linearGradient id="paint9_linear_108_2683" x1="54.7627" y1="52.6312" x2="54.7627" y2="62.6733" gradientUnits="userSpaceOnUse">
<stop/>
<stop offset="1" stop-color="#282828"/>
</linearGradient>
<linearGradient id="paint10_linear_108_2683" x1="54.7577" y1="63.2881" x2="54.7577" y2="80.503" gradientUnits="userSpaceOnUse">
<stop/>
<stop offset="1" stop-color="#282828"/>
</linearGradient>
<linearGradient id="paint11_linear_108_2683" x1="55.224" y1="82.45" x2="55.224" y2="90.6475" gradientUnits="userSpaceOnUse">
<stop/>
<stop offset="1" stop-color="#282828"/>
</linearGradient>
<linearGradient id="paint12_linear_108_2683" x1="82.8909" y1="56.6276" x2="82.8909" y2="58.677" gradientUnits="userSpaceOnUse">
<stop/>
<stop offset="1" stop-color="#282828"/>
</linearGradient>
<linearGradient id="paint13_linear_108_2683" x1="82.8909" y1="61.8535" x2="82.8909" y2="63.9029" gradientUnits="userSpaceOnUse">
<stop/>
<stop offset="1" stop-color="#282828"/>
</linearGradient>
<linearGradient id="paint14_linear_108_2683" x1="82.8909" y1="67.0795" x2="82.8909" y2="69.1289" gradientUnits="userSpaceOnUse">
<stop/>
<stop offset="1" stop-color="#282828"/>
</linearGradient>
<linearGradient id="paint15_linear_108_2683" x1="82.8909" y1="72.408" x2="82.8909" y2="74.4574" gradientUnits="userSpaceOnUse">
<stop/>
<stop offset="1" stop-color="#282828"/>
</linearGradient>
<linearGradient id="paint16_linear_108_2683" x1="82.8909" y1="77.6339" x2="82.8909" y2="79.6833" gradientUnits="userSpaceOnUse">
<stop/>
<stop offset="1" stop-color="#282828"/>
</linearGradient>
<linearGradient id="paint17_linear_108_2683" x1="82.8909" y1="82.8599" x2="82.8909" y2="84.9093" gradientUnits="userSpaceOnUse">
<stop/>
<stop offset="1" stop-color="#282828"/>
</linearGradient>
<linearGradient id="paint18_linear_108_2683" x1="82.8909" y1="88.0858" x2="82.8909" y2="90.1352" gradientUnits="userSpaceOnUse">
<stop/>
<stop offset="1" stop-color="#282828"/>
</linearGradient>
</defs>
</svg>
