<svg width="137" height="137" viewBox="0 0 137 137" fill="none" xmlns="http://www.w3.org/2000/svg">
<rect x="0.614796" y="0.614796" width="135.255" height="135.255" rx="17.8291" stroke="url(#paint0_linear_108_2662)" stroke-width="1.22959"/>
<rect x="7.99224" y="7.99236" width="120.5" height="120.5" rx="14.1403" stroke="url(#paint1_linear_108_2662)" stroke-width="1.22959"/>
<rect x="14.1402" y="14.1403" width="108.204" height="108.204" rx="11.6811" stroke="url(#paint2_linear_108_2662)" stroke-width="1.22959"/>
<rect x="19.6733" y="19.6735" width="97.1378" height="97.1378" rx="9.83673" fill="url(#paint3_linear_108_2662)"/>
<path fill-rule="evenodd" clip-rule="evenodd" d="M100.055 58.6301V95.1301C100.055 96.946 99.3347 98.6866 98.0503 99.9687C96.7659 101.253 95.0251 101.974 93.2093 101.974H56.6983C54.8825 101.974 53.1418 101.253 51.8574 99.9687C50.573 98.6866 49.8525 96.946 49.8525 95.1301V78.8602C50.9642 79.0587 52.1084 79.1614 53.2755 79.1614C63.981 79.1614 72.6719 70.4721 72.6719 59.7708C72.6719 49.0694 63.981 40.3801 53.2755 40.3801C52.6854 40.3801 52.1019 40.4075 51.5281 40.4577C52.7832 39.0137 54.6348 38.0989 56.6983 38.0989H79.5177V51.7864C79.5177 53.6023 80.2381 55.3429 81.5225 56.6249C82.8069 57.9093 84.5477 58.6301 86.3635 58.6301H100.055ZM63.5441 90.5676V88.2864C63.5441 87.0271 62.5205 86.0051 61.2622 86.0051C60.0039 86.0051 58.9803 87.0271 58.9803 88.2864V90.5676C58.9803 91.8269 60.0039 92.8489 61.2622 92.8489C62.5205 92.8489 63.5441 91.8269 63.5441 90.5676ZM72.6719 90.5676V81.4426C72.6719 80.1834 71.6483 79.1614 70.39 79.1614C69.1316 79.1614 68.108 80.1834 68.108 81.4426V90.5676C68.108 91.8269 69.1316 92.8489 70.39 92.8489C71.6483 92.8489 72.6719 91.8269 72.6719 90.5676ZM81.7996 90.5676V83.7239C81.7996 82.4646 80.776 81.4426 79.5177 81.4426C78.2593 81.4426 77.2357 82.4646 77.2357 83.7239V90.5676C77.2357 91.8269 78.2593 92.8489 79.5177 92.8489C80.776 92.8489 81.7996 91.8269 81.7996 90.5676ZM90.9273 90.5676V74.5989C90.9273 73.3396 89.9037 72.3176 88.6454 72.3176C87.3871 72.3176 86.3635 73.3396 86.3635 74.5989V90.5676C86.3635 91.8269 87.3871 92.8489 88.6454 92.8489C89.9037 92.8489 90.9273 91.8269 90.9273 90.5676ZM84.0816 38.1422C85.7213 38.3293 87.2502 39.1049 88.3716 40.3391L98.2752 51.2275C99.0152 52.0442 99.5433 53.0183 99.8236 54.0676H86.3635C85.7571 54.0676 85.1769 53.8281 84.7498 53.3992C84.3228 52.9726 84.0816 52.3909 84.0816 51.7864V38.1422ZM67.932 62.052C66.8334 69.1535 60.6852 74.5989 53.2755 74.5989C45.0898 74.5989 38.4429 67.9536 38.4429 59.7708C38.4429 52.3635 43.8901 46.2156 50.9935 45.1183V57.4895C50.9935 60.0103 53.0375 62.052 55.5574 62.052H67.932ZM55.5574 45.1183C61.9175 46.1015 66.9507 51.1317 67.932 57.4895H55.5574V45.1183Z" fill="url(#paint4_linear_108_2662)"/>
<defs>
<linearGradient id="paint0_linear_108_2662" x1="0" y1="0" x2="136.485" y2="136.485" gradientUnits="userSpaceOnUse">
<stop stop-color="#28292C"/>
<stop offset="1" stop-color="#939393"/>
</linearGradient>
<linearGradient id="paint1_linear_108_2662" x1="7.37744" y1="7.37756" x2="68.2422" y2="129.107" gradientUnits="userSpaceOnUse">
<stop stop-color="#28292C"/>
<stop offset="1" stop-color="#9A9A9A"/>
</linearGradient>
<linearGradient id="paint2_linear_108_2662" x1="13.5254" y1="13.5255" x2="122.959" y2="122.959" gradientUnits="userSpaceOnUse">
<stop stop-color="#28292C"/>
<stop offset="1" stop-color="white"/>
</linearGradient>
<linearGradient id="paint3_linear_108_2662" x1="19.6733" y1="19.6735" x2="116.811" y2="116.811" gradientUnits="userSpaceOnUse">
<stop stop-color="#FF8181"/>
<stop offset="0.52" stop-color="#F5BA79"/>
<stop offset="1" stop-color="#6A94FF"/>
</linearGradient>
<linearGradient id="paint4_linear_108_2662" x1="69.249" y1="38.0989" x2="69.249" y2="101.974" gradientUnits="userSpaceOnUse">
<stop/>
<stop offset="1" stop-color="#141414"/>
</linearGradient>
</defs>
</svg>
