<svg width="100" height="100" viewBox="0 0 100 100" fill="none" xmlns="http://www.w3.org/2000/svg">
<circle cx="50" cy="50" r="49.5" transform="rotate(180 50 50)" stroke="url(#paint0_linear_124_158)"/>
<path d="M37 48C35.8954 48 35 48.8954 35 50C35 51.1046 35.8954 52 37 52L37 48ZM63.4142 51.4142C64.1953 50.6332 64.1953 49.3668 63.4142 48.5858L50.6863 35.8579C49.9052 35.0768 48.6389 35.0768 47.8579 35.8579C47.0768 36.6389 47.0768 37.9052 47.8579 38.6863L59.1716 50L47.8579 61.3137C47.0768 62.0948 47.0768 63.3611 47.8579 64.1421C48.6389 64.9232 49.9052 64.9232 50.6863 64.1421L63.4142 51.4142ZM37 52L62 52L62 48L37 48L37 52Z" fill="white"/>
<defs>
<linearGradient id="paint0_linear_124_158" x1="50" y1="3.8147e-06" x2="50" y2="100" gradientUnits="userSpaceOnUse">
<stop stop-color="#6A94FF"/>
<stop offset="0.465" stop-color="#F5BA79"/>
<stop offset="1" stop-color="#FF8181"/>
</linearGradient>
</defs>
</svg>
