<svg width="230" height="135" viewBox="0 0 230 135" fill="none" xmlns="http://www.w3.org/2000/svg">
<circle cx="1.49211" cy="25.3661" r="1.49211" fill="#353535"/>
<circle cx="13.4291" cy="25.3661" r="1.49211" fill="#353535"/>
<circle cx="13.4291" cy="13.4296" r="1.49211" fill="#353535"/>
<circle cx="13.4291" cy="37.3027" r="1.49211" fill="#FF8181"/>
<circle cx="13.4291" cy="61.1767" r="1.49211" fill="#353535"/>
<circle cx="13.4291" cy="73.1132" r="1.49211" fill="#FF8181"/>
<circle cx="13.4291" cy="108.924" r="1.49211" fill="#353535"/>
<circle cx="25.3661" cy="108.924" r="1.49211" fill="#353535"/>
<circle cx="25.3661" cy="85.0507" r="1.49211" fill="#353535"/>
<circle cx="25.3661" cy="49.2402" r="1.49211" fill="#FF8181"/>
<circle cx="37.3027" cy="37.3027" r="1.49211" fill="#353535"/>
<circle cx="37.3027" cy="96.9882" r="1.49211" fill="#353535"/>
<circle cx="37.3027" cy="108.924" r="1.49211" fill="#FF8181"/>
<circle cx="49.2397" cy="85.0507" r="1.49211" fill="#353535"/>
<circle cx="49.2397" cy="73.1132" r="1.49211" fill="#FF8181"/>
<circle cx="49.2397" cy="25.3661" r="1.49211" fill="#353535"/>
<circle cx="49.2397" cy="1.49211" r="1.49211" fill="#FF8181"/>
<circle cx="61.1767" cy="85.0507" r="1.49211" fill="#353535"/>
<circle cx="73.1137" cy="85.0507" r="1.49211" fill="#6A94FF"/>
<circle cx="73.1137" cy="108.924" r="1.49211" fill="#353535"/>
<circle cx="85.0507" cy="108.924" r="1.49211" fill="#6A94FF"/>
<circle cx="85.0507" cy="96.9882" r="1.49211" fill="#353535"/>
<circle cx="85.0507" cy="132.799" r="1.49211" fill="#353535"/>
<circle cx="96.9872" cy="132.799" r="1.49211" fill="#353535"/>
<circle cx="108.924" cy="132.799" r="1.49211" fill="#353535"/>
<circle cx="132.798" cy="132.799" r="1.49211" fill="#6A94FF"/>
<circle cx="168.609" cy="132.799" r="1.49211" fill="#6A94FF"/>
<circle cx="180.546" cy="132.799" r="1.49211" fill="#353535"/>
<circle cx="180.546" cy="108.924" r="1.49211" fill="#353535"/>
<circle cx="168.609" cy="96.9882" r="1.49211" fill="#6A94FF"/>
<circle cx="156.672" cy="96.9882" r="1.49211" fill="#353535"/>
<circle cx="156.672" cy="85.0507" r="1.49211" fill="#353535"/>
<circle cx="132.798" cy="73.1132" r="1.49211" fill="#353535"/>
<circle cx="120.861" cy="73.1132" r="1.49211" fill="#6A94FF"/>
<circle cx="204.42" cy="108.924" r="1.49211" fill="#353535"/>
<circle cx="204.42" cy="120.861" r="1.49211" fill="#6A94FF"/>
<circle cx="216.356" cy="108.924" r="1.49211" fill="#353535"/>
<circle cx="228.293" cy="96.9882" r="1.49211" fill="#353535"/>
</svg>
