<svg width="125" height="170" viewBox="0 0 125 170" fill="none" xmlns="http://www.w3.org/2000/svg">
<circle cx="1.88889" cy="77.4445" r="1.88889" fill="#353535"/>
<circle cx="47.2224" cy="77.4445" r="1.88889" fill="#353535"/>
<circle cx="77.4445" cy="77.4445" r="1.88889" fill="#353535"/>
<circle cx="92.5554" cy="77.4445" r="1.88889" fill="#FF8181"/>
<circle cx="107.667" cy="77.4445" r="1.88889" fill="#353535"/>
<circle cx="92.5554" cy="62.3332" r="1.88889" fill="#353535"/>
<circle cx="62.3332" cy="62.3332" r="1.88889" fill="#FF8181"/>
<circle cx="77.4445" cy="32.1115" r="1.88889" fill="#353535"/>
<circle cx="92.5554" cy="47.2219" r="1.88889" fill="#353535"/>
<circle cx="107.667" cy="47.2219" r="1.88889" fill="#F5BA79"/>
<circle cx="107.667" cy="17.0002" r="1.88889" fill="#353535"/>
<circle cx="122.778" cy="17.0002" r="1.88889" fill="#353535"/>
<circle cx="107.667" cy="1.88889" r="1.88889" fill="#353535"/>
<circle cx="107.667" cy="92.5559" r="1.88889" fill="#353535"/>
<circle cx="122.778" cy="92.5559" r="1.88889" fill="#353535"/>
<circle cx="107.667" cy="122.778" r="1.88889" fill="#353535"/>
<circle cx="92.5554" cy="122.778" r="1.88889" fill="#353535"/>
<circle cx="92.5554" cy="137.889" r="1.88889" fill="#353535"/>
<circle cx="92.5554" cy="153" r="1.88889" fill="#353535"/>
<circle cx="77.4445" cy="107.666" r="1.88889" fill="#F5BA79"/>
<circle cx="62.3332" cy="107.666" r="1.88889" fill="#353535"/>
<circle cx="17.0002" cy="107.666" r="1.88889" fill="#FF8181"/>
<circle cx="32.1111" cy="122.778" r="1.88889" fill="#353535"/>
<circle cx="47.2224" cy="122.778" r="1.88889" fill="#353535"/>
<circle cx="47.2224" cy="137.889" r="1.88889" fill="#FF8181"/>
<circle cx="32.1111" cy="137.889" r="1.88889" fill="#353535"/>
<circle cx="62.3332" cy="137.889" r="1.88889" fill="#353535"/>
<circle cx="62.3332" cy="168.112" r="1.88889" fill="#353535"/>
<circle cx="47.2224" cy="168.112" r="1.88889" fill="#F5BA79"/>
<circle cx="32.1111" cy="168.112" r="1.88889" fill="#353535"/>
<circle cx="47.2224" cy="153" r="1.88889" fill="#353535"/>
</svg>
