<svg width="134" height="39" viewBox="0 0 134 39" fill="none" xmlns="http://www.w3.org/2000/svg">
<g clip-path="url(#clip0_108_133)">
<g clip-path="url(#clip1_108_133)">
<g clip-path="url(#clip2_108_133)">
<path d="M114.827 0.317995H18.874C18.5242 0.317995 18.1787 0.317995 17.8298 0.319903C17.5378 0.32181 17.2482 0.327352 16.9533 0.332016C16.3129 0.339553 15.6739 0.395898 15.042 0.500563C14.411 0.607506 13.7998 0.809124 13.229 1.0986C12.6588 1.39052 12.1379 1.76985 11.6851 2.22281C11.2299 2.6745 10.8504 3.19659 10.5613 3.76901C10.2714 4.34029 10.0704 4.95247 9.96516 5.58441C9.85896 6.21554 9.80182 6.85396 9.79424 7.49392C9.78538 7.78636 9.78445 8.07977 9.77979 8.37224V30.4187C9.78445 30.7149 9.78538 31.0018 9.79424 31.298C9.80182 31.938 9.85896 32.5764 9.96516 33.2075C10.0701 33.8398 10.2711 34.4523 10.5613 35.0238C10.8503 35.5944 11.2298 36.1143 11.6851 36.5635C12.1362 37.0185 12.6575 37.3981 13.229 37.6878C13.7998 37.978 14.4109 38.1808 15.042 38.2894C15.674 38.3932 16.3129 38.4496 16.9533 38.4581C17.2482 38.4645 17.5378 38.4683 17.8298 38.4683C18.1787 38.4702 18.5243 38.4702 18.874 38.4702H114.827C115.17 38.4702 115.518 38.4702 115.861 38.4683C116.151 38.4683 116.449 38.4645 116.74 38.4581C117.379 38.4501 118.017 38.3937 118.648 38.2894C119.281 38.1801 119.894 37.9773 120.468 37.6878C121.039 37.3979 121.559 37.0183 122.01 36.5635C122.464 36.1126 122.845 35.593 123.137 35.0238C123.425 34.4519 123.624 33.8394 123.728 33.2075C123.834 32.5763 123.893 31.938 123.905 31.298C123.908 31.0018 123.908 30.7149 123.908 30.4187C123.916 30.0722 123.916 29.7276 123.916 29.3755V9.4136C123.916 9.0643 123.916 8.71781 123.908 8.37224C123.908 8.07977 123.908 7.78636 123.905 7.49389C123.893 6.85387 123.834 6.21559 123.728 5.58437C123.624 4.9528 123.425 4.34067 123.137 3.76897C122.548 2.62162 121.615 1.68768 120.468 1.09851C119.894 0.809745 119.281 0.608181 118.648 0.500477C118.017 0.395351 117.379 0.338986 116.74 0.331882C116.449 0.327228 116.151 0.321639 115.861 0.319779C115.518 0.317871 115.17 0.317995 114.827 0.317995Z" fill="#A6A6A6"/>
<path d="M17.8343 37.6354C17.5437 37.6354 17.2601 37.6316 16.9718 37.6252C16.3745 37.6174 15.7786 37.5654 15.189 37.4696C14.6392 37.3749 14.1067 37.1988 13.6088 36.947C13.1156 36.6973 12.6657 36.3699 12.2764 35.9774C11.8814 35.5894 11.5526 35.1395 11.303 34.6454C11.0506 34.148 10.8759 33.615 10.7851 33.0647C10.687 32.4735 10.6339 31.8756 10.6263 31.2763C10.6202 31.0752 10.6123 30.4054 10.6123 30.4054V8.37201C10.6123 8.37201 10.6207 7.71254 10.6263 7.5188C10.6336 6.92046 10.6864 6.32354 10.7842 5.73321C10.8752 5.18145 11.05 4.64684 11.3026 4.14789C11.5513 3.65412 11.8782 3.20384 12.2708 2.81452C12.6629 2.4215 13.1142 2.09242 13.6084 1.83928C14.105 1.58832 14.6366 1.41343 15.1853 1.32047C15.7768 1.22372 16.3748 1.17142 16.9742 1.16399L17.8348 1.15234H115.856L116.727 1.16446C117.321 1.17151 117.913 1.22335 118.499 1.31954C119.054 1.41366 119.591 1.58977 120.093 1.84208C121.083 2.35222 121.888 3.1593 122.397 4.15022C122.645 4.64573 122.817 5.17597 122.907 5.72296C123.006 6.31814 123.061 6.91975 123.073 7.52299C123.076 7.79311 123.076 8.08326 123.076 8.37201C123.083 8.72969 123.083 9.07013 123.083 9.41337V29.3752C123.083 29.7217 123.083 30.0599 123.076 30.4008C123.076 30.7109 123.076 30.9951 123.072 31.2875C123.061 31.88 123.006 32.4709 122.909 33.0554C122.82 33.6096 122.646 34.1468 122.394 34.6482C122.142 35.137 121.815 35.583 121.425 35.9699C121.035 36.3646 120.585 36.6939 120.09 36.9452C119.589 37.1989 119.053 37.3757 118.499 37.4696C117.91 37.5659 117.314 37.6179 116.717 37.6252C116.437 37.6316 116.145 37.6354 115.861 37.6354L114.827 37.6373L17.8343 37.6354Z" fill="black"/>
<path d="M33.4048 19.6804C33.415 18.8843 33.6265 18.1037 34.0195 17.4113C34.4125 16.7189 34.9742 16.1371 35.6525 15.7201C35.2216 15.1048 34.6532 14.5984 33.9923 14.2411C33.3315 13.8839 32.5965 13.6856 31.8457 13.6621C30.244 13.494 28.6913 14.6205 27.8751 14.6205C27.0431 14.6205 25.7865 13.6788 24.4333 13.7067C23.558 13.7349 22.705 13.9895 21.9573 14.4454C21.2096 14.9014 20.5928 15.5433 20.167 16.3085C18.3223 19.5022 19.6983 24.196 21.4653 26.7775C22.3494 28.0417 23.3826 29.4537 24.7346 29.4037C26.0576 29.3488 26.5517 28.56 28.1486 28.56C29.7308 28.56 30.1943 29.4037 31.5737 29.3718C32.9934 29.3488 33.8878 28.1021 34.7409 26.826C35.3761 25.9252 35.8649 24.9297 36.1891 23.8763C35.3644 23.5275 34.6605 22.9436 34.1654 22.1974C33.6703 21.4513 33.4057 20.5759 33.4048 19.6804Z" fill="white"/>
<path d="M30.7992 11.9646C31.5733 11.0354 31.9546 9.84108 31.8623 8.63525C30.6797 8.75946 29.5873 9.32464 28.8028 10.2182C28.4193 10.6547 28.1255 11.1626 27.9383 11.7127C27.7512 12.2628 27.6742 12.8444 27.712 13.4243C28.3035 13.4304 28.8886 13.3022 29.4234 13.0494C29.9582 12.7965 30.4286 12.4256 30.7992 11.9646Z" fill="white"/>
<path d="M50.1284 26.2035H45.6137L44.5295 29.4049H42.6172L46.8935 17.5605H48.8803L53.1565 29.4049H51.2117L50.1284 26.2035ZM46.0812 24.7262H49.6599L47.8958 19.5306H47.8464L46.0812 24.7262Z" fill="white"/>
<path d="M62.3917 25.0879C62.3917 27.7714 60.9554 29.4955 58.7879 29.4955C58.2389 29.5242 57.6928 29.3977 57.2123 29.1305C56.7318 28.8634 56.3362 28.4662 56.0709 27.9847H56.0299V32.2619H54.2573V20.7697H55.9731V22.206H56.0057C56.2832 21.7267 56.6854 21.3317 57.1696 21.0628C57.6538 20.794 58.2018 20.6615 58.7553 20.6793C60.947 20.6793 62.3917 22.4118 62.3917 25.0879ZM60.5698 25.0879C60.5698 23.3396 59.6663 22.1901 58.2877 22.1901C56.9334 22.1901 56.0224 23.3638 56.0224 25.0879C56.0224 26.8278 56.9334 27.9931 58.2877 27.9931C59.6663 27.9931 60.5698 26.8521 60.5698 25.0879Z" fill="white"/>
<path d="M71.8966 25.0879C71.8966 27.7714 70.4603 29.4955 68.2928 29.4955C67.7437 29.5242 67.1977 29.3977 66.7172 29.1305C66.2367 28.8633 65.8411 28.4662 65.5758 27.9847H65.5348V32.2619H63.7622V20.7697H65.4779V22.206H65.5105C65.788 21.7267 66.1903 21.3317 66.6745 21.0628C67.1587 20.794 67.7067 20.6615 68.2602 20.6793C70.4519 20.6793 71.8966 22.4118 71.8966 25.0879ZM70.0747 25.0879C70.0747 23.3396 69.1712 22.1901 67.7926 22.1901C66.4383 22.1901 65.5273 23.3638 65.5273 25.0879C65.5273 26.8278 66.4383 27.9931 67.7926 27.9931C69.1712 27.9931 70.0747 26.852 70.0747 25.0879Z" fill="white"/>
<path d="M78.1783 26.105C78.3096 27.2795 79.4506 28.0507 81.0099 28.0507C82.5039 28.0507 83.5788 27.2795 83.5788 26.2204C83.5788 25.3011 82.9305 24.7506 81.3955 24.3734L79.8605 24.0036C77.6855 23.4783 76.6758 22.4611 76.6758 20.8106C76.6758 18.767 78.4568 17.3633 80.9857 17.3633C83.4884 17.3633 85.2042 18.767 85.2619 20.8106H83.4726C83.3655 19.6286 82.3884 18.9151 80.9605 18.9151C79.5326 18.9151 78.5555 19.637 78.5555 20.6876C78.5555 21.525 79.1796 22.0177 80.7062 22.3949L82.0111 22.7154C84.4413 23.2901 85.451 24.2662 85.451 25.9987C85.451 28.2146 83.6859 29.6025 80.8785 29.6025C78.2518 29.6025 76.4783 28.2472 76.3638 26.1049L78.1783 26.105Z" fill="white"/>
<path d="M89.2763 18.7261V20.7697H90.9184V22.1734H89.2763V26.934C89.2763 27.6736 89.6051 28.0182 90.3269 28.0182C90.5219 28.0148 90.7165 28.0011 90.91 27.9772V29.3725C90.5855 29.4332 90.2556 29.4606 89.9255 29.4545C88.1772 29.4545 87.4953 28.7978 87.4953 27.1231V22.1734H86.2397V20.7697H87.4953V18.7261H89.2763Z" fill="white"/>
<path d="M91.8696 25.088C91.8696 22.3709 93.4699 20.6636 95.9652 20.6636C98.4689 20.6636 100.062 22.3709 100.062 25.088C100.062 27.8125 98.4773 29.5123 95.9652 29.5123C93.454 29.5123 91.8696 27.8124 91.8696 25.088ZM98.2556 25.088C98.2556 23.2241 97.4015 22.1241 95.9652 22.1241C94.5289 22.1241 93.6757 23.2325 93.6757 25.088C93.6757 26.9592 94.5289 28.0509 95.9652 28.0509C97.4015 28.0509 98.2556 26.9592 98.2556 25.088Z" fill="white"/>
<path d="M101.523 20.7696H103.214V22.2394H103.255C103.369 21.7804 103.638 21.3747 104.016 21.0906C104.394 20.8064 104.859 20.6612 105.332 20.6792C105.536 20.6785 105.74 20.7007 105.939 20.7454V22.4034C105.681 22.3246 105.412 22.2884 105.143 22.2962C104.885 22.2858 104.628 22.3312 104.39 22.4293C104.152 22.5275 103.937 22.676 103.762 22.8648C103.587 23.0535 103.454 23.278 103.373 23.5228C103.293 23.7676 103.266 24.027 103.295 24.283V29.4051H101.523L101.523 20.7696Z" fill="white"/>
<path d="M114.111 26.8689C113.873 28.4365 112.346 29.5123 110.393 29.5123C107.881 29.5123 106.322 27.8292 106.322 25.1289C106.322 22.4203 107.889 20.6636 110.319 20.6636C112.708 20.6636 114.21 22.3048 114.21 24.9231V25.5304H108.111V25.6375C108.083 25.9553 108.123 26.2755 108.228 26.5767C108.333 26.878 108.501 27.1534 108.721 27.3848C108.94 27.6161 109.207 27.7981 109.502 27.9185C109.798 28.039 110.115 28.0952 110.434 28.0835C110.853 28.1227 111.273 28.0257 111.633 27.8069C111.992 27.588 112.271 27.2591 112.428 26.8689L114.111 26.8689ZM108.119 24.2916H112.437C112.453 24.0058 112.409 23.7199 112.309 23.4516C112.21 23.1834 112.055 22.9387 111.857 22.7329C111.658 22.5271 111.418 22.3647 111.154 22.2557C110.889 22.1468 110.605 22.0937 110.319 22.0999C110.03 22.0981 109.744 22.1536 109.477 22.263C109.21 22.3725 108.967 22.5337 108.762 22.7375C108.558 22.9413 108.396 23.1835 108.286 23.4502C108.175 23.717 108.119 24.0029 108.119 24.2916Z" fill="white"/>
<path d="M45.8584 8.64513C46.2301 8.61846 46.603 8.6746 46.9502 8.8095C47.2975 8.9444 47.6106 9.1547 47.8667 9.42522C48.1229 9.69574 48.3159 10.0197 48.4317 10.3739C48.5475 10.728 48.5832 11.1034 48.5364 11.473C48.5364 13.2912 47.5537 14.3363 45.8584 14.3363H43.8027V8.64513H45.8584ZM44.6867 13.5315H45.7597C46.0252 13.5473 46.291 13.5038 46.5376 13.404C46.7842 13.3042 47.0054 13.1507 47.1852 12.9547C47.365 12.7586 47.4988 12.5249 47.5769 12.2706C47.655 12.0163 47.6753 11.7478 47.6366 11.4846C47.6725 11.2225 47.6501 10.9556 47.5708 10.7032C47.4915 10.4507 47.3574 10.219 47.178 10.0245C46.9986 9.82995 46.7785 9.67752 46.5332 9.5781C46.288 9.47868 46.0239 9.43473 45.7597 9.44939H44.6867V13.5315Z" fill="white"/>
<path d="M49.535 12.1869C49.508 11.9047 49.5403 11.6199 49.6298 11.3509C49.7193 11.0818 49.864 10.8345 50.0547 10.6247C50.2454 10.4148 50.4779 10.2472 50.7372 10.1325C50.9965 10.0178 51.2769 9.9585 51.5604 9.9585C51.8439 9.9585 52.1244 10.0178 52.3836 10.1325C52.6429 10.2472 52.8754 10.4148 53.0661 10.6247C53.2568 10.8345 53.4016 11.0818 53.4911 11.3509C53.5806 11.6199 53.6128 11.9047 53.5858 12.1869C53.6134 12.4695 53.5815 12.7547 53.4922 13.0241C53.4029 13.2936 53.2583 13.5414 53.0675 13.7516C52.8768 13.9619 52.6441 14.1299 52.3846 14.2448C52.125 14.3598 51.8443 14.4192 51.5604 14.4192C51.2765 14.4192 50.9958 14.3598 50.7362 14.2448C50.4767 14.1299 50.2441 13.9619 50.0533 13.7516C49.8626 13.5414 49.7179 13.2936 49.6286 13.0241C49.5394 12.7547 49.5075 12.4695 49.535 12.1869ZM52.714 12.1869C52.714 11.256 52.2958 10.7115 51.5618 10.7115C50.825 10.7115 50.4106 11.256 50.4106 12.187C50.4106 13.1254 50.8251 13.6656 51.5618 13.6656C52.2958 13.6656 52.714 13.1217 52.714 12.1869Z" fill="white"/>
<path d="M58.9705 14.3364H58.0912L57.2035 11.1732H57.1365L56.2525 14.3364H55.3816L54.1978 10.0415H55.0575L55.8269 13.3188H55.8902L56.7732 10.0415H57.5864L58.4694 13.3188H58.5364L59.3021 10.0415H60.1497L58.9705 14.3364Z" fill="white"/>
<path d="M61.1455 10.0412H61.9615V10.7235H62.0248C62.1323 10.4785 62.3135 10.273 62.5432 10.1359C62.773 9.99872 63.0398 9.93665 63.3065 9.95833C63.5155 9.94262 63.7253 9.97413 63.9204 10.0505C64.1156 10.1269 64.291 10.2462 64.4338 10.3997C64.5766 10.5531 64.683 10.7366 64.7452 10.9368C64.8074 11.1369 64.8237 11.3485 64.7931 11.5558V14.3361H63.9454V11.7686C63.9454 11.0784 63.6455 10.7352 63.0187 10.7352C62.8768 10.7286 62.7351 10.7527 62.6035 10.806C62.4718 10.8592 62.3532 10.9403 62.2558 11.0437C62.1584 11.1471 62.0844 11.2703 62.0391 11.4049C61.9938 11.5395 61.9781 11.6823 61.9931 11.8236V14.3361H61.1455L61.1455 10.0412Z" fill="white"/>
<path d="M66.1436 8.36475H66.9912V14.3363H66.1436V8.36475Z" fill="white"/>
<path d="M68.1692 12.187C68.1422 11.9048 68.1746 11.62 68.2641 11.3509C68.3536 11.0819 68.4984 10.8345 68.6891 10.6247C68.8798 10.4148 69.1123 10.2472 69.3716 10.1325C69.6309 10.0178 69.9113 9.9585 70.1949 9.9585C70.4785 9.9585 70.7589 10.0178 71.0182 10.1325C71.2775 10.2472 71.51 10.4148 71.7007 10.6247C71.8914 10.8345 72.0362 11.0819 72.1257 11.3509C72.2152 11.62 72.2475 11.9048 72.2206 12.187C72.248 12.4696 72.2161 12.7547 72.1268 13.0242C72.0375 13.2937 71.8928 13.5415 71.7021 13.7517C71.5113 13.962 71.2786 14.1299 71.0191 14.2449C70.7595 14.3599 70.4788 14.4193 70.1949 14.4193C69.911 14.4193 69.6303 14.3599 69.3707 14.2449C69.1111 14.1299 68.8785 13.962 68.6877 13.7517C68.497 13.5415 68.3523 13.2937 68.263 13.0242C68.1737 12.7547 68.1417 12.4696 68.1692 12.187ZM71.3483 12.187C71.3483 11.256 70.93 10.7116 70.1961 10.7116C69.4593 10.7116 69.0448 11.256 69.0448 12.187C69.0448 13.1255 69.4593 13.6657 70.1961 13.6657C70.93 13.6657 71.3483 13.1217 71.3483 12.187Z" fill="white"/>
<path d="M73.1133 13.1217C73.1133 12.3486 73.6889 11.9029 74.7107 11.8396L75.8741 11.7725V11.4018C75.8741 10.9482 75.5742 10.692 74.9948 10.692C74.5216 10.692 74.1938 10.8657 74.0997 11.1694H73.2791C73.3657 10.4317 74.0596 9.9585 75.0339 9.9585C76.1107 9.9585 76.718 10.4945 76.718 11.4018V14.3363H75.902V13.7327H75.835C75.6989 13.9492 75.5077 14.1257 75.2811 14.2442C75.0544 14.3627 74.8004 14.4189 74.5449 14.4071C74.3646 14.4258 74.1824 14.4066 74.01 14.3506C73.8376 14.2946 73.6788 14.2031 73.5439 14.082C73.409 13.9609 73.301 13.8129 73.2269 13.6475C73.1527 13.4821 73.114 13.303 73.1133 13.1217ZM75.8741 12.7547V12.3956L74.8253 12.4627C74.2338 12.5023 73.9656 12.7035 73.9656 13.0821C73.9656 13.4686 74.3009 13.6936 74.762 13.6936C74.8971 13.7073 75.0335 13.6936 75.1633 13.6535C75.293 13.6133 75.4133 13.5475 75.5171 13.4599C75.6208 13.3723 75.7059 13.2647 75.7673 13.1436C75.8286 13.0224 75.8649 12.8902 75.8741 12.7547Z" fill="white"/>
<path d="M77.832 12.187C77.832 10.8298 78.5297 9.97011 79.6148 9.97011C79.8832 9.95775 80.1496 10.022 80.3829 10.1555C80.6161 10.2889 80.8065 10.486 80.9319 10.7236H80.9952V8.36475H81.8429V14.3363H81.0306V13.6577H80.9636C80.8285 13.8938 80.6314 14.0884 80.3937 14.2205C80.156 14.3525 79.8866 14.4171 79.6148 14.407C78.5222 14.4071 77.832 13.5473 77.832 12.187ZM78.7076 12.187C78.7076 13.0979 79.137 13.6461 79.8552 13.6461C80.5696 13.6461 81.0111 13.09 81.0111 12.1907C81.0111 11.2956 80.5649 10.7316 79.8552 10.7316C79.1417 10.7316 78.7076 11.2835 78.7076 12.187Z" fill="white"/>
<path d="M85.3494 12.1869C85.3224 11.9047 85.3547 11.6199 85.4442 11.3509C85.5337 11.0818 85.6785 10.8345 85.8692 10.6247C86.0599 10.4148 86.2923 10.2472 86.5516 10.1325C86.8109 10.0178 87.0913 9.9585 87.3749 9.9585C87.6584 9.9585 87.9388 10.0178 88.1981 10.1325C88.4574 10.2472 88.6898 10.4148 88.8805 10.6247C89.0712 10.8345 89.216 11.0818 89.3055 11.3509C89.395 11.6199 89.4273 11.9047 89.4003 12.1869C89.4278 12.4695 89.3959 12.7547 89.3066 13.0241C89.2174 13.2936 89.0727 13.5414 88.882 13.7516C88.6912 13.9619 88.4586 14.1299 88.199 14.2448C87.9395 14.3598 87.6587 14.4192 87.3749 14.4192C87.091 14.4192 86.8102 14.3598 86.5507 14.2448C86.2911 14.1299 86.0585 13.9619 85.8678 13.7516C85.677 13.5414 85.5323 13.2936 85.4431 13.0241C85.3538 12.7547 85.3219 12.4695 85.3494 12.1869ZM88.5285 12.1869C88.5285 11.256 88.1102 10.7115 87.3763 10.7115C86.6395 10.7115 86.225 11.256 86.225 12.187C86.225 13.1254 86.6395 13.6656 87.3763 13.6656C88.1102 13.6656 88.5285 13.1217 88.5285 12.1869Z" fill="white"/>
<path d="M90.5376 10.0412H91.3535V10.7235H91.4169C91.5243 10.4785 91.7056 10.273 91.9353 10.1359C92.1651 9.99872 92.4319 9.93665 92.6986 9.95833C92.9075 9.94262 93.1174 9.97413 93.3125 10.0505C93.5077 10.1269 93.6831 10.2462 93.8259 10.3997C93.9687 10.5531 94.0751 10.7366 94.1373 10.9368C94.1995 11.1369 94.2158 11.3485 94.1852 11.5558V14.3361H93.3375V11.7686C93.3375 11.0784 93.0376 10.7352 92.4108 10.7352C92.2689 10.7286 92.1272 10.7527 91.9955 10.806C91.8639 10.8592 91.7453 10.9403 91.6478 11.0437C91.5504 11.1471 91.4765 11.2703 91.4312 11.4049C91.3859 11.5395 91.3702 11.6823 91.3852 11.8236V14.3361H90.5376V10.0412Z" fill="white"/>
<path d="M98.9747 8.97217V10.061H99.9052V10.775H98.9747V12.9835C98.9747 13.4333 99.1601 13.6303 99.582 13.6303C99.69 13.63 99.798 13.6235 99.9052 13.6108V14.3168C99.753 14.3441 99.5988 14.3585 99.4442 14.3601C98.5015 14.3601 98.1262 14.0285 98.1262 13.2005V10.775H97.4443V10.061H98.1262V8.97217H98.9747Z" fill="white"/>
<path d="M101.063 8.36475H101.903V10.7316H101.97C102.083 10.4842 102.269 10.2776 102.503 10.14C102.738 10.0023 103.009 9.9402 103.28 9.96219C103.488 9.95087 103.696 9.98558 103.888 10.0638C104.081 10.1421 104.255 10.262 104.396 10.4149C104.537 10.5678 104.643 10.75 104.706 10.9486C104.768 11.1471 104.787 11.357 104.759 11.5633V14.3363H103.91V11.7725C103.91 11.0864 103.591 10.739 102.992 10.739C102.846 10.7271 102.7 10.7471 102.563 10.7977C102.426 10.8483 102.301 10.9282 102.198 11.032C102.095 11.1357 102.016 11.2606 101.966 11.3981C101.917 11.5356 101.898 11.6823 101.911 11.8279V14.3363H101.063L101.063 8.36475Z" fill="white"/>
<path d="M109.701 13.1767C109.586 13.5693 109.337 13.9088 108.996 14.1359C108.656 14.3631 108.247 14.4634 107.84 14.4193C107.557 14.4267 107.276 14.3725 107.016 14.2604C106.756 14.1483 106.524 13.981 106.335 13.7701C106.146 13.5592 106.006 13.3097 105.923 13.039C105.84 12.7683 105.818 12.4828 105.856 12.2024C105.819 11.9212 105.842 11.6351 105.924 11.3636C106.007 11.092 106.147 10.8414 106.334 10.6287C106.522 10.4159 106.753 10.2459 107.013 10.1303C107.272 10.0147 107.553 9.95615 107.836 9.95857C109.032 9.95857 109.752 10.775 109.752 12.1237V12.4195H106.72V12.467C106.706 12.6246 106.726 12.7832 106.778 12.9327C106.829 13.0822 106.912 13.2193 107.019 13.3352C107.127 13.451 107.258 13.5431 107.403 13.6054C107.549 13.6678 107.705 13.6991 107.863 13.6974C108.066 13.7217 108.272 13.6852 108.454 13.5925C108.636 13.4998 108.786 13.355 108.885 13.1767L109.701 13.1767ZM106.72 11.7926H108.889C108.9 11.6484 108.88 11.5037 108.831 11.3675C108.783 11.2314 108.706 11.107 108.607 11.0022C108.507 10.8974 108.387 10.8146 108.253 10.7591C108.12 10.7036 107.976 10.6767 107.832 10.68C107.685 10.6781 107.54 10.7057 107.404 10.7609C107.268 10.8162 107.145 10.8981 107.041 11.0018C106.937 11.1055 106.856 11.2289 106.8 11.3647C106.745 11.5005 106.718 11.646 106.72 11.7926Z" fill="white"/>
</g>
</g>
</g>
<defs>
<clipPath id="clip0_108_133">
<rect width="114.13" height="38.1522" fill="white" transform="translate(9.78271 0.317871)"/>
</clipPath>
<clipPath id="clip1_108_133">
<rect width="114.13" height="38.1522" fill="white" transform="translate(9.78271 0.317871)"/>
</clipPath>
<clipPath id="clip2_108_133">
<rect width="114.136" height="38.1522" fill="white" transform="translate(9.77979 0.317871)"/>
</clipPath>
</defs>
</svg>
