<svg width="73" height="73" viewBox="0 0 73 73" fill="none" xmlns="http://www.w3.org/2000/svg">
<path d="M32.132 6.08325C20.8778 6.08325 11.7163 15.2326 11.7163 26.4868C11.7163 44.3109 30.4286 65.6026 31.2195 66.5029C31.4506 66.7584 31.7791 66.9166 32.132 66.9166C32.4848 66.9166 32.8133 66.7584 33.0445 66.5029C33.0931 66.4421 33.9448 65.4809 35.2588 63.8263C33.5555 62.9138 32.3996 61.1131 32.3996 59.0569V45.9778C32.3996 42.9848 34.833 40.5514 37.826 40.5514H38.8845C38.921 37.7044 41.2448 35.4049 44.104 35.4049H51.185C52.0975 32.2173 52.5476 29.2364 52.5476 26.4868C52.5355 15.2326 43.3861 6.08325 32.132 6.08325ZM32.1198 36.6338C26.5231 36.6338 21.9728 32.0834 21.9728 26.4868C21.9728 20.8901 26.5231 16.3398 32.1198 16.3398C37.7165 16.3398 42.2668 20.8779 42.2668 26.4868C42.2668 32.0956 37.7286 36.6338 32.1198 36.6338Z" fill="url(#paint0_linear_108_522)"/>
<path d="M58.3147 42.9846H54.8107V40.6243C54.8107 39.0913 53.5697 37.8381 52.0245 37.8381H44.104C42.571 37.8381 41.3178 39.0913 41.3178 40.6243V42.9846H37.826C36.1713 42.9846 34.833 44.323 34.833 45.9776V59.0568C34.833 60.6993 36.1713 62.0376 37.826 62.0376H58.3147C59.9572 62.0376 61.2955 60.6993 61.2955 59.0568V45.9776C61.2955 44.323 59.9572 42.9846 58.3147 42.9846ZM43.7512 40.6243C43.7512 40.4296 43.9093 40.2715 44.104 40.2715H52.0245C52.2192 40.2715 52.3773 40.4296 52.3773 40.6243V42.9846H43.7512V40.6243Z" fill="url(#paint1_linear_108_522)"/>
<defs>
<linearGradient id="paint0_linear_108_522" x1="10.1105" y1="6.27336" x2="40.2513" y2="62.5695" gradientUnits="userSpaceOnUse">
<stop stop-color="#FF8181"/>
<stop offset="0.48" stop-color="#F5BA79"/>
<stop offset="1" stop-color="#6A94FF"/>
</linearGradient>
<linearGradient id="paint1_linear_108_522" x1="33.7923" y1="37.9138" x2="42.3384" y2="63.9193" gradientUnits="userSpaceOnUse">
<stop stop-color="#FF8181"/>
<stop offset="0.48" stop-color="#F5BA79"/>
<stop offset="1" stop-color="#6A94FF"/>
</linearGradient>
</defs>
</svg>
