<svg width="50" height="38" viewBox="0 0 50 38" fill="none" xmlns="http://www.w3.org/2000/svg">
<path fill-rule="evenodd" clip-rule="evenodd" d="M19.0481 0.00674929C18.2068 0.152431 18.2686 0.843422 18.4631 1.39119C18.6575 1.93895 19.0201 1.99032 19.3806 1.85384C19.5612 1.85384 20.0439 2.44608 20.2347 2.90168C20.2671 2.97897 20.3026 3.0538 20.3138 3.06791C20.3359 3.09551 20.4048 3.26312 20.5186 3.5663C20.7929 4.29685 20.8841 4.56506 20.8943 4.66888L20.9056 4.78742L20.7437 4.92052C20.1014 5.44805 19.9202 5.8535 19.8549 6.90793C19.8332 7.25726 19.7768 36.756 19.7966 37.367C19.8061 37.6611 19.7483 37.6438 20.6583 37.6255C21.08 37.6169 22.1266 37.6031 22.9841 37.5947C24.5497 37.5792 24.7137 37.5692 24.7579 37.4867C24.7726 37.4593 24.7861 33.5582 24.7929 27.3729C24.801 20.015 24.812 17.2211 24.8337 16.9971C24.9686 15.5978 25.0953 15.1046 25.5625 14.1601C26.6754 11.9102 29.1854 10.5655 31.7644 10.8377C32.664 10.9326 33.6882 11.3221 34.4712 11.8669C35.1348 12.3287 35.7997 13.098 36.0886 13.7384C36.596 14.8634 36.7075 15.8686 36.4485 16.9844C36.3876 17.2464 36.3545 17.3467 36.2077 17.7128C35.7718 18.8009 34.7229 19.7539 33.5013 20.1714C33.3959 20.2075 33.2578 20.2575 33.1946 20.2825C33.1314 20.3076 33.0336 20.3361 32.9773 20.3459C32.9212 20.3558 32.8061 20.3847 32.7218 20.4103C32.5741 20.4551 32.2786 20.507 31.8574 20.562C31.7325 20.5783 30.5453 20.5892 28.7008 20.591C27.0747 20.5927 25.7099 20.6014 25.6677 20.6105L25.591 20.6269L25.5999 23.8215C25.6055 25.777 25.6183 27.0258 25.6331 27.0413C25.6487 27.0579 25.7898 26.9302 26.033 26.6796C26.5364 26.1608 26.8462 25.9659 27.265 25.9044C27.3564 25.8911 27.4887 25.8674 27.559 25.8523C27.6386 25.8349 28.382 25.8161 29.5269 25.8023C30.539 25.7902 31.4936 25.7737 31.6484 25.7656C32.2841 25.7328 32.733 25.6957 32.9385 25.659C33.0582 25.6376 33.2137 25.6103 33.284 25.5982C33.8589 25.4999 35.2976 25.0179 35.5715 24.8319C35.6066 24.8081 35.6929 24.7623 35.7632 24.7304C35.9901 24.6268 36.5215 24.3182 36.8493 24.0992C38.2778 23.1456 39.1476 22.2205 40.139 20.6002C40.2399 20.4353 40.4215 20.1021 40.4521 20.0257C40.4719 19.9765 40.5089 19.9089 40.5345 19.8753C40.5599 19.8419 40.581 19.8042 40.581 19.7916C40.581 19.779 40.6444 19.637 40.722 19.4761C41.0339 18.8298 41.4014 17.6729 41.4762 17.1021C41.4874 17.0163 41.5144 16.8425 41.536 16.716C41.6887 15.8258 41.6743 14.5263 41.5015 13.5978C41.4883 13.5276 41.4646 13.3952 41.4486 13.304C41.4327 13.2126 41.4104 13.1091 41.3992 13.074C41.3882 13.0388 41.3598 12.9352 41.3365 12.8439C41.1782 12.2246 41.0089 11.765 40.6705 11.0361C40.6067 10.8987 40.544 10.7691 40.5311 10.7481C40.5182 10.7269 40.4207 10.5661 40.3146 10.3903C40.2083 10.2146 40.0754 10.0076 40.0189 9.9303C39.9625 9.85286 39.8875 9.74935 39.8521 9.70027C39.8168 9.65105 39.7392 9.55183 39.6796 9.4796C39.6201 9.40753 39.4834 9.24084 39.3759 9.10911C39.1586 8.8429 38.7299 8.41643 38.4285 8.16693C38.32 8.07707 38.2677 8.06925 38.2607 8.05084C38.2579 8.0437 38.2458 8.03056 38.2314 8.01496C38.1924 7.97284 38.1329 7.92688 38.0906 7.88814C37.9575 7.76562 37.2275 7.27842 36.8493 7.05975C36.1804 6.67285 35.1048 6.19915 34.4724 6.01283C33.1777 5.6313 32.5093 5.52472 31.201 5.4916C30.3625 5.47044 29.5261 5.52472 28.9775 5.6359C28.9143 5.64878 28.7763 5.6724 28.6708 5.6885C28.5654 5.7046 28.4042 5.74002 28.313 5.76717C28.2216 5.79431 28.0893 5.82682 28.019 5.83955C27.6461 5.90733 26.8945 6.13352 26.3578 6.33962C25.9663 6.49006 25.8577 6.47533 25.7924 6.26264C25.7679 6.18244 25.509 5.58529 25.4431 5.45648C25.3425 5.26019 25.2178 5.09565 25.0097 4.88433C24.7742 4.64511 24.7574 4.60232 24.8476 4.46968C24.884 4.416 24.9137 4.35865 24.9137 4.34209C24.9137 4.18353 25.3641 3.19074 25.5772 2.8796C25.9652 2.31328 26.1755 1.88451 26.8361 1.84019C27.2505 2.23169 27.5969 2.27785 28.0253 1.71782C28.104 1.61545 28.1464 1.48976 28.1456 1.36063L28.1452 1.29151C28.1408 0.532124 27.4751 0.0858775 26.7312 0.343351C26.2607 0.506362 25.9663 1.04339 26.1853 1.33951C26.2696 1.4536 26.2603 1.51187 26.1517 1.5476C25.9865 1.6022 25.5878 1.95597 25.3307 2.27632C25.1822 2.46111 25.1437 2.5134 25.1437 2.53057C25.1437 2.53993 25.1111 2.59559 25.0712 2.65433C24.9645 2.81166 24.6337 3.47582 24.6322 3.53578C24.6318 3.54559 24.5543 3.70876 24.4596 3.89845C24.2661 4.28658 24.2546 4.29517 24.0697 4.19457C23.7171 4.00273 23.2583 3.93372 22.7844 4.0015C22.312 4.06897 22.1858 4.10379 21.6678 4.30912C21.413 4.41018 21.2844 4.38702 21.2844 4.24027C21.2844 4.2237 21.228 4.09106 21.1588 3.94568C21.0898 3.80015 20.9643 3.52029 20.8802 3.32339C20.5336 2.51294 20.3022 2.1495 19.9444 1.85369C19.7103 1.66001 19.6693 1.50129 19.8369 1.43704C19.8999 1.41281 19.9809 1.1512 19.9809 0.972084C19.9809 0.463577 19.469 -0.0660917 19.0481 0.00674929ZM1.88568 1.0871C0.813463 1.17895 0.574391 1.24321 0.318451 1.50804C0.0907274 1.74374 -0.016004 1.98404 0.0019379 2.22096C0.0652712 3.05718 0.30281 4.2191 0.53038 4.80582C0.557676 4.87605 0.608588 5.00839 0.643399 5.09979C0.828798 5.58468 1.13044 6.12386 1.55475 6.72851C2.1772 7.61518 3.47208 8.7515 4.1988 9.04869C4.2971 9.08902 4.38957 9.13058 4.40399 9.14116C4.45904 9.18149 4.99914 9.32027 5.18622 9.3422C5.47145 9.37563 5.75361 9.33745 6.60118 9.15051C6.75591 9.11647 6.9916 9.06617 7.12517 9.03872C7.4857 8.96465 7.62586 8.93521 7.868 8.88261C8.32084 8.78447 9.44013 8.64293 10.3072 8.57407C11.8799 8.44909 14.1857 8.58251 15.3804 8.86759C15.4718 8.88936 15.6847 8.93659 15.8534 8.97248C16.4878 9.10742 17.0161 9.23746 17.2462 9.31521C17.3235 9.34144 17.519 9.40017 17.6807 9.44602C17.8423 9.49187 18.1127 9.58051 18.2813 9.64323C19.1964 9.98259 19.1438 9.98489 19.1679 9.60535C19.1774 9.45369 19.1932 9.27044 19.2028 9.1979C19.2402 8.91589 18.8799 8.47578 17.9619 7.6825C17.8283 7.56718 17.6903 7.4468 17.6552 7.41506C17.6048 7.36951 17.3151 7.1329 17.1338 6.98921C17.1183 6.97694 17.0136 6.89091 16.9012 6.79798C16.5367 6.49665 16.2205 6.24148 15.9446 6.02587C15.796 5.90978 15.6341 5.7822 15.585 5.74232C15.5358 5.70261 15.2631 5.51 14.9793 5.31463C14.4973 4.98278 14.2082 4.79401 13.7065 4.48317C13.5939 4.41355 13.3831 4.28213 13.2377 4.19135C13.0925 4.10056 12.9684 4.02634 12.9623 4.02634C12.9561 4.02634 12.845 3.95964 12.7154 3.87821C12.5856 3.79663 12.4107 3.69158 12.3263 3.6445C12.242 3.59758 12.1211 3.52704 12.058 3.48778C11.7744 3.31189 10.7786 2.80292 10.3938 2.63731C10.1012 2.51141 9.84927 2.40145 9.77045 2.36542C9.74239 2.35269 9.63888 2.3119 9.54043 2.27479C9.44197 2.23783 9.31546 2.18983 9.25934 2.16806C9.16196 2.13049 8.47603 1.88789 8.31363 1.8336C8.14464 1.77717 7.89161 1.70249 7.64917 1.63762C7.50855 1.5999 7.3187 1.5473 7.22746 1.52077C6.82476 1.40392 5.97398 1.24075 5.50227 1.18999C4.58356 1.09124 4.37056 1.0802 3.26583 1.07329C2.64031 1.06946 2.01925 1.07559 1.88568 1.0871ZM10.3072 9.48221C10.2829 9.49264 9.9057 9.52913 9.37435 9.57253C9.24078 9.58357 9.05093 9.61133 8.95264 9.63449C8.85419 9.65764 8.649 9.69905 8.49673 9.72649C8.34445 9.7541 8.20997 9.78262 8.19785 9.79014C8.18589 9.7975 8.10921 9.81544 8.02763 9.8297C7.68229 9.89027 6.89806 10.1476 6.06445 10.4735C5.99422 10.5009 5.89071 10.5403 5.83443 10.5612C5.7783 10.5819 5.69197 10.6199 5.64274 10.6458C5.59352 10.6716 5.44063 10.747 5.30277 10.8133C5.16506 10.8795 5.00972 10.9625 4.95773 10.9979C4.86848 11.0585 4.50336 11.2844 4.15479 11.4949C3.76207 11.7318 3.49846 12.0014 3.36366 12.3038C3.32226 12.3971 3.27273 12.5078 3.25371 12.55C3.06494 12.9703 3.16707 13.3204 3.64874 13.9045C3.74152 14.0171 3.8507 14.1551 3.89149 14.2112C4.02291 14.3926 4.67618 15.0232 4.96555 15.2478C6.39998 16.3619 8.45302 17.0775 9.72383 16.9063C10.2556 16.8347 11.1834 16.4607 11.6873 16.115C11.7821 16.05 12.286 15.7323 12.4743 15.6186C12.5194 15.5915 12.7059 15.472 12.8885 15.3532C13.2355 15.1275 13.2602 15.1117 13.7103 14.8301C14.0964 14.5887 14.66 14.257 14.9331 14.1104C15.0595 14.0425 15.2378 13.9465 15.3292 13.897C15.6022 13.7492 16.5894 13.2617 16.6584 13.2407C16.6936 13.2299 16.8179 13.1765 16.9346 13.122C17.0515 13.0674 17.1519 13.0227 17.1579 13.0227C17.1639 13.0227 17.4184 12.9238 17.7236 12.8028C18.0288 12.6818 18.4029 12.5428 18.5551 12.4937C18.8797 12.3891 18.8728 12.3977 18.9087 12.0471C18.9236 11.9019 18.9453 11.697 18.957 11.5915C19.0108 11.1063 18.9844 11.078 18.2686 10.8521C18.0366 10.7789 17.7779 10.6958 17.6936 10.6676C17.6092 10.6392 17.4999 10.6049 17.4506 10.5911C17.3333 10.5583 17.0731 10.4834 16.8501 10.4183C16.7517 10.3896 16.6367 10.3591 16.5945 10.3505C16.5523 10.3419 16.4775 10.3198 16.4284 10.3016C16.241 10.2319 14.8687 9.90959 14.5243 9.85454C14.4258 9.83875 14.2533 9.8093 14.1409 9.78906C14.0285 9.76882 13.81 9.73478 13.6552 9.71346C13.5007 9.6923 13.3108 9.66332 13.2335 9.64936C13.0762 9.62069 12.8304 9.59216 12.2113 9.53098C11.8269 9.49279 10.3694 9.45568 10.3072 9.48221ZM18.6903 13.4788C18.5497 13.5464 18.3485 13.6398 18.243 13.6864C17.886 13.8441 16.6591 14.5067 16.6062 14.5703C16.5893 14.5907 16.5623 14.6075 16.5463 14.6075C16.4988 14.6075 15.5131 15.2788 15.3645 15.4122C15.3488 15.4265 15.2456 15.507 15.1354 15.5913C15.0251 15.6757 14.8828 15.7912 14.819 15.8479C14.7554 15.9046 14.6572 15.9896 14.601 16.0367C14.0851 16.4685 12.9781 17.7198 12.9781 17.8712C12.9781 17.8798 12.9512 17.9224 12.9186 17.966C12.8557 18.0495 12.4981 18.6898 12.4533 18.7988C12.4389 18.8341 12.4053 18.9089 12.3788 18.965C12.265 19.2059 12.2251 19.3039 12.1162 19.6114C12.0531 19.7901 11.9926 19.9823 11.9819 20.0385C11.9713 20.0948 11.9383 20.2328 11.9088 20.3452C11.7674 20.8816 11.7046 22.1757 11.7893 22.8116C11.9238 23.8225 12.085 24.5678 12.2811 25.0863C12.3157 25.1777 12.3677 25.3157 12.3967 25.393C12.5545 25.8132 12.7819 26.3082 12.912 26.5141C12.9483 26.5716 12.9781 26.6251 12.9781 26.6331C12.9781 26.6409 12.9994 26.6785 13.0256 26.7167C13.0517 26.7547 13.1728 26.9354 13.2946 27.1182C13.5821 27.5494 13.5773 27.5437 13.6264 27.5248C13.6494 27.5159 13.6681 27.5008 13.6681 27.4909C13.6681 27.4667 14.2469 26.8809 14.9587 26.1847C15.9193 25.2453 16.3597 24.7627 16.8915 24.0664C16.9926 23.9343 17.095 23.8061 17.1194 23.7817C17.1936 23.7075 17.8852 22.646 17.8852 22.6063C17.8852 22.5967 17.9406 22.4924 18.0085 22.3744C18.6 21.345 18.8961 20.2722 18.9844 18.8373C19.0237 18.1984 19.0179 13.3549 18.9779 13.3554C18.9602 13.3555 18.8308 13.411 18.6903 13.4788ZM42.3245 18.4604C42.283 18.4745 42.2078 18.6217 42.1581 18.7862C42.1054 18.961 41.9238 19.464 41.8755 19.5692C41.8539 19.6165 41.785 19.7701 41.7225 19.9107C41.6599 20.0514 41.5443 20.2929 41.4656 20.4475C41.3868 20.602 41.3222 20.7391 41.3222 20.7522C41.3221 20.765 41.3064 20.7939 41.2874 20.8161C41.2683 20.8382 41.2117 20.9319 41.1617 21.0242C40.9813 21.357 40.3569 22.2996 40.1272 22.5859C39.4514 23.428 39.4544 23.5523 40.1526 23.5831C42.4142 23.6828 43.9175 24.563 44.4877 26.1214C44.8619 27.1439 44.8585 28.3801 44.4791 29.2778C44.4464 29.3551 44.3872 29.4989 44.3477 29.5974C44.0793 30.2646 43.3823 31.102 42.6639 31.6205C42.3253 31.8648 41.6521 32.2367 41.4644 32.2831C41.4231 32.2932 41.3598 32.317 41.3238 32.3359C41.2877 32.3546 41.2436 32.3701 41.2258 32.3702C41.208 32.3704 41.1128 32.3986 41.0142 32.4329C40.4225 32.6397 40.2962 32.6441 35.3257 32.6311C31.7078 32.6217 31.0253 32.6254 31.0063 32.6548C30.9824 32.6921 30.9888 37.5631 31.013 37.6441C31.0512 37.7723 30.8637 37.7681 35.786 37.7503C38.3037 37.7411 40.6109 37.7236 40.9131 37.7115C41.8527 37.6735 42.6138 37.5211 43.3923 37.2148C43.5118 37.1678 43.7188 37.0865 43.8524 37.034C44.9275 36.6119 46.1751 35.7959 47.0946 34.9134C48.3363 33.7217 49.3574 31.9094 49.7077 30.2761C49.7361 30.1433 49.7644 30.0264 49.7707 30.0163C49.777 30.0062 49.8052 29.8502 49.8336 29.6699C49.862 29.4894 49.9011 29.2485 49.9204 29.1345C50.0267 28.5077 50.0265 26.8611 49.9201 26.2875C49.9006 26.1821 49.8614 25.9596 49.8328 25.7932C49.8045 25.6267 49.7698 25.4693 49.756 25.4434C49.742 25.4175 49.7305 25.3697 49.7302 25.3372C49.7296 25.2688 49.6257 24.9027 49.5539 24.7156C49.5267 24.6454 49.468 24.4901 49.4232 24.3706C49.2138 23.8115 48.8847 23.1725 48.5352 22.6465C47.9465 21.7603 47.4314 21.2036 46.5485 20.499C46.4783 20.4429 46.4095 20.3873 46.3953 20.3755C46.3814 20.3637 46.2711 20.2887 46.1506 20.209C46.0301 20.1293 45.8806 20.0303 45.8185 19.9891C45.7562 19.9478 45.6465 19.8764 45.5746 19.8302C45.4101 19.7247 44.5444 19.2831 44.3024 19.1813C44.2024 19.1391 44.0689 19.0805 44.0057 19.0511C43.8267 18.9675 43.8047 18.9587 43.5329 18.8614C43.3923 18.8109 43.1508 18.7234 42.9962 18.6668C42.5872 18.5171 42.3616 18.4478 42.3245 18.4604ZM18.8915 23.2013C18.7966 23.3096 18.6002 23.5914 18.2019 24.1907C17.9828 24.5206 17.7808 24.8196 17.7532 24.8553C17.7255 24.8909 17.6042 25.0524 17.4835 25.214C17.1197 25.7014 16.8986 25.974 16.5306 26.3891C16.0072 26.9795 15.7368 27.2631 14.9943 27.9999C14.1443 28.8433 14.1874 28.7544 14.4525 29.1169C14.9325 29.7734 15.0478 29.9211 15.2516 30.1402C15.7054 30.6282 16.4083 31.3205 16.6712 31.5383C16.7555 31.6082 16.928 31.758 17.0545 31.8711C17.6058 32.3639 18.0383 32.6907 18.1731 32.716C18.2835 32.7367 18.2807 32.7424 18.2277 32.5972C18.2051 32.5357 18.1769 32.3992 18.1648 32.2937C18.1527 32.1884 18.1308 32.0042 18.1162 31.8847C18.015 31.0557 18.1107 29.3816 18.3192 28.3322C18.3487 28.1845 18.4003 27.9085 18.4342 27.7188C18.5072 27.3105 18.633 26.7299 18.7027 26.4792C18.7626 26.264 18.8535 25.845 18.8846 25.6412C18.8969 25.56 18.9299 25.399 18.9578 25.2835C19.0361 24.9592 19.0608 24.6839 19.0607 24.1413C19.0605 23.1915 19.0332 23.0398 18.8915 23.2013Z" fill="url(#paint0_linear_108_127)"/>
<defs>
<linearGradient id="paint0_linear_108_127" x1="0" y1="0" x2="48.8418" y2="46.3115" gradientUnits="userSpaceOnUse">
<stop stop-color="#FF8181"/>
<stop offset="0.295" stop-color="#FFAA47"/>
<stop offset="0.63" stop-color="#4E80FF"/>
<stop offset="1" stop-color="#204CBE"/>
</linearGradient>
</defs>
</svg>
