<svg width="73" height="73" viewBox="0 0 73 73" fill="none" xmlns="http://www.w3.org/2000/svg">
<path d="M65.2574 6.96826H7.74222C4.64525 6.96826 2.21191 9.4016 2.21191 12.4986V60.391C2.21191 63.488 4.64525 65.9213 7.74222 65.9213H65.2574C68.3543 65.9213 70.7877 63.488 70.7877 60.391V12.6092C70.7877 9.5122 68.3543 6.96826 65.2574 6.96826ZM68.5756 60.5016C68.5756 62.3819 67.1377 63.8198 65.2574 63.8198H7.74222C5.86191 63.8198 4.42404 62.3819 4.42404 60.5016V12.6092C4.42404 10.7289 5.86191 9.29099 7.74222 9.29099H65.2574C67.1377 9.29099 68.5756 10.7289 68.5756 12.6092V60.5016Z" fill="url(#paint0_linear_108_438)"/>
<path d="M61.1649 19.2455C62.9974 19.2455 64.483 17.7599 64.483 15.9273C64.483 14.0947 62.9974 12.6091 61.1649 12.6091C59.3323 12.6091 57.8467 14.0947 57.8467 15.9273C57.8467 17.7599 59.3323 19.2455 61.1649 19.2455Z" fill="url(#paint1_linear_108_438)"/>
<path d="M51.6527 19.2455C53.4852 19.2455 54.9708 17.7599 54.9708 15.9273C54.9708 14.0947 53.4852 12.6091 51.6527 12.6091C49.8201 12.6091 48.3345 14.0947 48.3345 15.9273C48.3345 17.7599 49.8201 19.2455 51.6527 19.2455Z" fill="url(#paint2_linear_108_438)"/>
<path d="M42.1409 19.2455C43.9735 19.2455 45.4591 17.7599 45.4591 15.9273C45.4591 14.0947 43.9735 12.6091 42.1409 12.6091C40.3084 12.6091 38.8228 14.0947 38.8228 15.9273C38.8228 17.7599 40.3084 19.2455 42.1409 19.2455Z" fill="url(#paint3_linear_108_438)"/>
<path d="M10.2862 17.0334H32.9605C33.5135 17.0334 34.0665 16.591 34.0665 15.9273C34.0665 15.2637 33.5135 14.8213 32.9605 14.8213H10.2862C9.6226 14.8213 9.18018 15.2637 9.18018 15.9273C9.18018 16.591 9.6226 17.0334 10.2862 17.0334Z" fill="url(#paint4_linear_108_438)"/>
<path d="M27.0984 24.7759C27.0984 27.7623 24.6651 30.1956 21.5681 30.1956C18.5818 30.1956 16.1484 27.7623 16.1484 24.7759C16.1484 21.7895 18.5818 19.3562 21.5681 19.3562C24.6651 19.3562 27.0984 21.7895 27.0984 24.7759Z" fill="url(#paint5_linear_108_438)"/>
<path d="M32.7394 46.7864C31.4121 48.4455 29.4212 49.441 27.3197 49.441H15.8166C13.1621 49.441 10.8394 48.0031 9.73331 45.5697C8.95906 44.1319 8.84846 42.4728 9.18028 40.9243L9.6227 39.2652C9.6227 39.2652 9.6227 39.2652 9.6227 39.1546L10.7288 34.6197C11.2818 32.4076 13.2727 30.8591 15.5954 30.8591H15.9272C19.6879 32.0758 23.5591 32.0758 27.3197 30.8591H27.6515C29.9742 30.8591 31.9651 32.4076 32.5182 34.6197L34.0666 40.8137C34.5091 43.0258 34.0666 45.1273 32.7394 46.7864Z" fill="url(#paint6_linear_108_438)"/>
<path d="M34.5088 51.5425H9.73301C9.06938 51.5425 8.62695 51.9849 8.62695 52.6485V59.2849C8.62695 59.8379 9.06938 60.391 9.73301 60.391H34.5088C35.0618 60.391 35.6148 59.8379 35.6148 59.2849V52.6485C35.6148 52.0955 35.0618 51.5425 34.5088 51.5425ZM13.7148 57.0728H12.83C12.1663 57.0728 11.7239 56.5198 11.7239 55.9667C11.7239 55.3031 12.1663 54.8607 12.83 54.8607H13.7148C14.3785 54.8607 14.8209 55.3031 14.8209 55.9667C14.8209 56.6304 14.2679 57.0728 13.7148 57.0728ZM17.586 57.0728H16.5906C15.927 57.0728 15.4845 56.5198 15.4845 55.9667C15.4845 55.3031 15.927 54.8607 16.5906 54.8607H17.4754C18.1391 54.8607 18.5815 55.3031 18.5815 55.9667C18.6921 56.6304 18.1391 57.0728 17.586 57.0728ZM21.3466 57.0728H20.4618C19.9088 57.0728 19.3557 56.5198 19.3557 55.9667C19.3557 55.3031 19.9088 54.8607 20.4618 54.8607H21.3466C21.8997 54.8607 22.4527 55.3031 22.4527 55.9667C22.4527 56.6304 22.0103 57.0728 21.3466 57.0728Z" fill="url(#paint7_linear_108_438)"/>
<path d="M62.1602 23.6697H41.8087C41.2557 23.6697 40.7026 24.2227 40.7026 24.7757C40.7026 25.3288 41.2557 25.8818 41.8087 25.8818H62.1602C62.7132 25.8818 63.2663 25.3288 63.2663 24.7757C63.2663 24.2227 62.8239 23.6697 62.1602 23.6697Z" fill="url(#paint8_linear_108_438)"/>
<path d="M62.1602 29.3108H41.8087C41.2557 29.3108 40.7026 29.8638 40.7026 30.4169C40.7026 30.9699 41.2557 31.5229 41.8087 31.5229H62.1602C62.7132 31.5229 63.2663 30.9699 63.2663 30.4169C63.2663 29.8638 62.8239 29.3108 62.1602 29.3108Z" fill="url(#paint9_linear_108_438)"/>
<path d="M62.1602 34.9517H41.8087C41.2557 34.9517 40.7026 35.5047 40.7026 36.0577C40.7026 36.6107 41.2557 37.1638 41.8087 37.1638H62.1602C62.7132 37.1638 63.2663 36.6107 63.2663 36.0577C63.2663 35.5047 62.8239 34.9517 62.1602 34.9517Z" fill="url(#paint10_linear_108_438)"/>
<path d="M62.1602 40.7031H41.8087C41.2557 40.7031 40.7026 41.2562 40.7026 41.8092C40.7026 42.3622 41.2557 42.9152 41.8087 42.9152H62.1602C62.7132 42.9152 63.2663 42.3622 63.2663 41.8092C63.2663 41.2562 62.8239 40.7031 62.1602 40.7031Z" fill="url(#paint11_linear_108_438)"/>
<path d="M62.1602 46.344H41.8087C41.2557 46.344 40.7026 46.897 40.7026 47.4501C40.7026 48.0031 41.2557 48.5561 41.8087 48.5561H62.1602C62.7132 48.5561 63.2663 48.0031 63.2663 47.4501C63.2663 46.897 62.8239 46.344 62.1602 46.344Z" fill="url(#paint12_linear_108_438)"/>
<path d="M62.1602 51.9849H41.8087C41.2557 51.9849 40.7026 52.5379 40.7026 53.0909C40.7026 53.644 41.2557 54.197 41.8087 54.197H62.1602C62.7132 54.197 63.2663 53.644 63.2663 53.0909C63.2663 52.5379 62.8239 51.9849 62.1602 51.9849Z" fill="url(#paint13_linear_108_438)"/>
<path d="M62.1602 57.6257H41.8087C41.2557 57.6257 40.7026 58.1788 40.7026 58.7318C40.7026 59.2848 41.2557 59.8379 41.8087 59.8379H62.1602C62.7132 59.8379 63.2663 59.2848 63.2663 58.7318C63.2663 58.1788 62.8239 57.6257 62.1602 57.6257Z" fill="url(#paint14_linear_108_438)"/>
<defs>
<linearGradient id="paint0_linear_108_438" x1="1.99976" y1="6.5" x2="70.4998" y2="66" gradientUnits="userSpaceOnUse">
<stop stop-color="#FF8181"/>
<stop offset="0.5" stop-color="#F5BA79"/>
<stop offset="1" stop-color="#6A94FF"/>
</linearGradient>
<linearGradient id="paint1_linear_108_438" x1="57.8261" y1="12.5564" x2="65.2931" y2="18.1322" gradientUnits="userSpaceOnUse">
<stop stop-color="#FF8181"/>
<stop offset="0.5" stop-color="#F5BA79"/>
<stop offset="1" stop-color="#6A94FF"/>
</linearGradient>
<linearGradient id="paint2_linear_108_438" x1="48.3139" y1="12.5564" x2="55.7809" y2="18.1322" gradientUnits="userSpaceOnUse">
<stop stop-color="#FF8181"/>
<stop offset="0.5" stop-color="#F5BA79"/>
<stop offset="1" stop-color="#6A94FF"/>
</linearGradient>
<linearGradient id="paint3_linear_108_438" x1="38.8022" y1="12.5564" x2="46.2692" y2="18.1322" gradientUnits="userSpaceOnUse">
<stop stop-color="#FF8181"/>
<stop offset="0.5" stop-color="#F5BA79"/>
<stop offset="1" stop-color="#6A94FF"/>
</linearGradient>
<linearGradient id="paint4_linear_108_438" x1="9.10318" y1="14.8037" x2="9.71257" y2="19.923" gradientUnits="userSpaceOnUse">
<stop stop-color="#FF8181"/>
<stop offset="0.5" stop-color="#F5BA79"/>
<stop offset="1" stop-color="#6A94FF"/>
</linearGradient>
<linearGradient id="paint5_linear_108_438" x1="16.1146" y1="19.2701" x2="28.3452" y2="28.4963" gradientUnits="userSpaceOnUse">
<stop stop-color="#FF8181"/>
<stop offset="0.5" stop-color="#F5BA79"/>
<stop offset="1" stop-color="#6A94FF"/>
</linearGradient>
<linearGradient id="paint6_linear_108_438" x1="8.92585" y1="30.7115" x2="30.7293" y2="52.8167" gradientUnits="userSpaceOnUse">
<stop stop-color="#FF8181"/>
<stop offset="0.5" stop-color="#F5BA79"/>
<stop offset="1" stop-color="#6A94FF"/>
</linearGradient>
<linearGradient id="paint7_linear_108_438" x1="8.54346" y1="51.4722" x2="16.188" y2="68.8828" gradientUnits="userSpaceOnUse">
<stop stop-color="#FF8181"/>
<stop offset="0.5" stop-color="#F5BA79"/>
<stop offset="1" stop-color="#6A94FF"/>
</linearGradient>
<linearGradient id="paint8_linear_108_438" x1="40.6328" y1="23.6521" x2="41.3029" y2="28.7559" gradientUnits="userSpaceOnUse">
<stop stop-color="#FF8181"/>
<stop offset="0.5" stop-color="#F5BA79"/>
<stop offset="1" stop-color="#6A94FF"/>
</linearGradient>
<linearGradient id="paint9_linear_108_438" x1="40.6328" y1="29.2932" x2="41.3029" y2="34.397" gradientUnits="userSpaceOnUse">
<stop stop-color="#FF8181"/>
<stop offset="0.5" stop-color="#F5BA79"/>
<stop offset="1" stop-color="#6A94FF"/>
</linearGradient>
<linearGradient id="paint10_linear_108_438" x1="40.6328" y1="34.9341" x2="41.3029" y2="40.0379" gradientUnits="userSpaceOnUse">
<stop stop-color="#FF8181"/>
<stop offset="0.5" stop-color="#F5BA79"/>
<stop offset="1" stop-color="#6A94FF"/>
</linearGradient>
<linearGradient id="paint11_linear_108_438" x1="40.6328" y1="40.6856" x2="41.3029" y2="45.7894" gradientUnits="userSpaceOnUse">
<stop stop-color="#FF8181"/>
<stop offset="0.5" stop-color="#F5BA79"/>
<stop offset="1" stop-color="#6A94FF"/>
</linearGradient>
<linearGradient id="paint12_linear_108_438" x1="40.6328" y1="46.3264" x2="41.3029" y2="51.4302" gradientUnits="userSpaceOnUse">
<stop stop-color="#FF8181"/>
<stop offset="0.5" stop-color="#F5BA79"/>
<stop offset="1" stop-color="#6A94FF"/>
</linearGradient>
<linearGradient id="paint13_linear_108_438" x1="40.6328" y1="51.9673" x2="41.3029" y2="57.0711" gradientUnits="userSpaceOnUse">
<stop stop-color="#FF8181"/>
<stop offset="0.5" stop-color="#F5BA79"/>
<stop offset="1" stop-color="#6A94FF"/>
</linearGradient>
<linearGradient id="paint14_linear_108_438" x1="40.6328" y1="57.6082" x2="41.3029" y2="62.712" gradientUnits="userSpaceOnUse">
<stop stop-color="#FF8181"/>
<stop offset="0.5" stop-color="#F5BA79"/>
<stop offset="1" stop-color="#6A94FF"/>
</linearGradient>
</defs>
</svg>
