<svg width="73" height="73" viewBox="0 0 73 73" fill="none" xmlns="http://www.w3.org/2000/svg">
<path fill-rule="evenodd" clip-rule="evenodd" d="M66.3256 25.0938V61.5938C66.3256 63.4096 65.6052 65.1502 64.3208 66.4323C63.0364 67.7166 61.2956 68.4375 59.4798 68.4375H22.9688C21.1531 68.4375 19.4123 67.7166 18.1279 66.4323C16.8435 65.1502 16.1231 63.4096 16.1231 61.5938V45.3239C17.2347 45.5223 18.3789 45.625 19.546 45.625C30.2515 45.625 38.9424 36.9357 38.9424 26.2344C38.9424 15.533 30.2515 6.84375 19.546 6.84375C18.9559 6.84375 18.3724 6.87112 17.7986 6.9213C19.0537 5.47727 20.9053 4.5625 22.9688 4.5625H45.7882V18.25C45.7882 20.0659 46.5086 21.8065 47.793 23.0885C49.0774 24.3729 50.8182 25.0938 52.634 25.0938H66.3256ZM29.8146 57.0312V54.75C29.8146 53.4907 28.791 52.4688 27.5327 52.4688C26.2744 52.4688 25.2508 53.4907 25.2508 54.75V57.0312C25.2508 58.2905 26.2744 59.3125 27.5327 59.3125C28.791 59.3125 29.8146 58.2905 29.8146 57.0312ZM38.9424 57.0312V47.9062C38.9424 46.647 37.9188 45.625 36.6605 45.625C35.4021 45.625 34.3785 46.647 34.3785 47.9062V57.0312C34.3785 58.2905 35.4021 59.3125 36.6605 59.3125C37.9188 59.3125 38.9424 58.2905 38.9424 57.0312ZM48.0701 57.0312V50.1875C48.0701 48.9282 47.0465 47.9062 45.7882 47.9062C44.5298 47.9062 43.5062 48.9282 43.5062 50.1875V57.0312C43.5062 58.2905 44.5298 59.3125 45.7882 59.3125C47.0465 59.3125 48.0701 58.2905 48.0701 57.0312ZM57.1978 57.0312V41.0625C57.1978 39.8032 56.1742 38.7812 54.9159 38.7812C53.6576 38.7812 52.634 39.8032 52.634 41.0625V57.0312C52.634 58.2905 53.6576 59.3125 54.9159 59.3125C56.1742 59.3125 57.1978 58.2905 57.1978 57.0312ZM50.3521 4.60584C51.9918 4.7929 53.5207 5.56854 54.6421 6.80269L64.5457 17.6911C65.2857 18.5078 65.8138 19.4819 66.0941 20.5312H52.634C52.0276 20.5312 51.4474 20.2917 51.0204 19.8628C50.5933 19.4363 50.3521 18.8545 50.3521 18.25V4.60584ZM34.2025 28.5156C33.1039 35.6172 26.9557 41.0625 19.546 41.0625C11.3603 41.0625 4.71338 34.4172 4.71338 26.2344C4.71338 18.8272 10.1607 12.6792 17.264 11.5819V23.9531C17.264 26.4739 19.308 28.5156 21.8279 28.5156H34.2025ZM21.8279 11.5819C28.188 12.5651 33.2212 17.5953 34.2025 23.9531H21.8279V11.5819Z" fill="url(#paint0_linear_108_459)"/>
<defs>
<linearGradient id="paint0_linear_108_459" x1="4.99988" y1="5" x2="65.9999" y2="68" gradientUnits="userSpaceOnUse">
<stop stop-color="#FF8181"/>
<stop offset="0.48" stop-color="#F5BA79"/>
<stop offset="1" stop-color="#6A94FF"/>
</linearGradient>
</defs>
</svg>
