<svg width="73" height="73" viewBox="0 0 73 73" fill="none" xmlns="http://www.w3.org/2000/svg">
<path d="M50.1875 22.8125C48.3724 22.8125 46.6317 22.0915 45.3482 20.808C44.0648 19.5246 43.3438 17.7838 43.3438 15.9688V4.5625H18.25C16.4349 4.5625 14.6942 5.28354 13.4107 6.56699C12.1273 7.85044 11.4062 9.59117 11.4062 11.4062V61.5938C11.4062 63.4088 12.1273 65.1496 13.4107 66.433C14.6942 67.7165 16.4349 68.4375 18.25 68.4375H54.75C56.5651 68.4375 58.3058 67.7165 59.5893 66.433C60.8727 65.1496 61.5938 63.4088 61.5938 61.5938V22.8125H50.1875ZM29.6562 15.9688C31.0098 15.9688 32.333 16.3701 33.4584 17.1221C34.5839 17.8741 35.4611 18.943 35.9791 20.1935C36.497 21.444 36.6326 22.8201 36.3685 24.1476C36.1044 25.4752 35.4526 26.6946 34.4955 27.6518C33.5384 28.6089 32.319 29.2607 30.9914 29.5247C29.6638 29.7888 28.2878 29.6533 27.0373 29.1353C25.7867 28.6173 24.7179 27.7401 23.9659 26.6147C23.2139 25.4892 22.8125 24.1661 22.8125 22.8125C22.8125 20.9974 23.5335 19.2567 24.817 17.9732C26.1004 16.6898 27.8412 15.9688 29.6562 15.9688ZM20.5312 38.7812C20.5312 36.9662 21.2523 35.2254 22.5357 33.942C23.8192 32.6585 25.5599 31.9375 27.375 31.9375H31.9375C33.7526 31.9375 35.4933 32.6585 36.7768 33.942C38.0602 35.2254 38.7812 36.9662 38.7812 38.7812V43.3438C38.7812 43.9488 38.5409 44.529 38.1131 44.9568C37.6853 45.3847 37.105 45.625 36.5 45.625H22.8125C22.2075 45.625 21.6272 45.3847 21.1994 44.9568C20.7716 44.529 20.5312 43.9488 20.5312 43.3438V38.7812ZM50.1875 57.0312H22.8125C22.2075 57.0312 21.6272 56.7909 21.1994 56.3631C20.7716 55.9353 20.5312 55.355 20.5312 54.75C20.5312 54.145 20.7716 53.5647 21.1994 53.1369C21.6272 52.7091 22.2075 52.4688 22.8125 52.4688H50.1875C50.7925 52.4688 51.3728 52.7091 51.8006 53.1369C52.2284 53.5647 52.4688 54.145 52.4688 54.75C52.4688 55.355 52.2284 55.9353 51.8006 56.3631C51.3728 56.7909 50.7925 57.0312 50.1875 57.0312ZM50.1875 45.625H45.625C45.02 45.625 44.4397 45.3847 44.0119 44.9568C43.5841 44.529 43.3438 43.9488 43.3438 43.3438C43.3438 42.7387 43.5841 42.1585 44.0119 41.7307C44.4397 41.3028 45.02 41.0625 45.625 41.0625H50.1875C50.7925 41.0625 51.3728 41.3028 51.8006 41.7307C52.2284 42.1585 52.4688 42.7387 52.4688 43.3438C52.4688 43.9488 52.2284 44.529 51.8006 44.9568C51.3728 45.3847 50.7925 45.625 50.1875 45.625ZM50.1875 34.2188H45.625C45.02 34.2188 44.4397 33.9784 44.0119 33.5506C43.5841 33.1228 43.3438 32.5425 43.3438 31.9375C43.3438 31.3325 43.5841 30.7522 44.0119 30.3244C44.4397 29.8966 45.02 29.6562 45.625 29.6562H50.1875C50.7925 29.6562 51.3728 29.8966 51.8006 30.3244C52.2284 30.7522 52.4688 31.3325 52.4688 31.9375C52.4688 32.5425 52.2284 33.1228 51.8006 33.5506C51.3728 33.9784 50.7925 34.2188 50.1875 34.2188Z" fill="url(#paint0_linear_108_503)"/>
<path d="M50.1875 18.2501H60.2706L47.9062 5.88574V15.9689C47.9062 16.5739 48.1466 17.1541 48.5744 17.582C49.0022 18.0098 49.5825 18.2501 50.1875 18.2501Z" fill="url(#paint1_linear_108_503)"/>
<defs>
<linearGradient id="paint0_linear_108_503" x1="13.3311" y1="5.06152" x2="61.0234" y2="68.5801" gradientUnits="userSpaceOnUse">
<stop stop-color="#FF8181"/>
<stop offset="0.505" stop-color="#F5BA79"/>
<stop offset="1" stop-color="#6A94FF"/>
</linearGradient>
<linearGradient id="paint1_linear_108_503" x1="48.3805" y1="5.98234" x2="56.7949" y2="20.2453" gradientUnits="userSpaceOnUse">
<stop stop-color="#FF8181"/>
<stop offset="0.505" stop-color="#F5BA79"/>
<stop offset="1" stop-color="#6A94FF"/>
</linearGradient>
</defs>
</svg>
